M48
; DRILL file {KiCad (5.1.12)-1} date 05/01/25 22:50:23
; FORMAT={-:-/ absolute / inch / decimal}
; #@! TF.CreationDate,2025-05-01T22:50:23-05:00
; #@! TF.GenerationSoftware,Kicad,Pcbnew,(5.1.12)-1
FMAT,2
INCH
T1C0.0157
T2C0.0276
T3C0.0315
T4C0.0354
T5C0.0394
%
G90
G05
T1
X4.35Y-5.45
X4.375Y-5.5
X4.4Y-5.45
X4.425Y-5.5
X4.45Y-5.45
X4.475Y-5.5
X4.5Y-5.45
X4.525Y-5.5
X4.6Y-4.7
X4.6Y-4.75
X4.6Y-4.8
X4.6Y-4.85
X4.6Y-4.9
X4.6Y-5.15
X4.6Y-5.55
X4.625Y-4.3
X4.625Y-4.45
X4.625Y-4.575
X4.65Y-5.1
X4.65Y-5.45
X4.7Y-5.05
X4.75Y-5.2
X4.75Y-5.55
X4.8Y-5.35
X4.825Y-3.4
X4.875Y-4.725
X4.875Y-4.775
X4.875Y-4.825
X4.875Y-4.875
X4.9Y-4.3
X4.9Y-4.45
X4.9Y-4.575
X4.925Y-3.45
X4.925Y-4.025
X4.975Y-4.375
X5.05Y-4.3
X5.05Y-4.45
X5.05Y-4.575
X5.05Y-4.725
X5.05Y-4.775
X5.05Y-4.825
X5.05Y-4.875
X5.1Y-5.425
X5.125Y-4.3
X5.125Y-4.45
X5.125Y-4.575
X5.15Y-5.425
X5.2Y-4.8
X5.2Y-5.2
X5.2Y-5.425
X5.25Y-5.425
X5.275Y-4.7
X5.275Y-4.75
X5.275Y-4.85
X5.275Y-4.9
X5.3Y-5.425
X5.35Y-5.175
X5.775Y-4.6
X5.8Y-4.375
X5.9Y-4.375
X5.975Y-4.625
X6.0Y-3.6
X6.075Y-5.2
X6.1Y-3.65
X6.1Y-5.475
X6.125Y-5.2
X6.175Y-5.2
X6.2Y-3.7
X6.3Y-3.75
X6.3Y-5.15
X6.4Y-3.8
X6.4Y-4.675
X6.4Y-5.2
X6.4Y-5.475
X6.45Y-5.2
X6.475Y-4.675
X6.5Y-3.85
X6.5Y-5.2
X6.55Y-2.775
X6.55Y-2.825
X6.55Y-2.875
X6.55Y-2.925
X6.55Y-2.975
X6.55Y-4.675
X6.6Y-3.9
X6.625Y-4.675
X6.675Y-5.1
X6.675Y-5.3
X6.675Y-5.35
X6.7Y-3.95
X6.7Y-4.375
X6.75Y-5.575
X6.8Y-4.45
X6.8Y-5.175
X6.8Y-5.55
X6.85Y-3.95
X6.85Y-5.575
X6.9Y-4.275
X6.9Y-4.7
X6.9Y-5.2
X6.9Y-5.55
X6.95Y-3.9
X6.95Y-5.575
X7.0Y-4.375
X7.0Y-4.8
X7.0Y-4.875
X7.0Y-5.225
X7.0Y-5.55
X7.05Y-3.85
X7.05Y-5.575
X7.1Y-4.6
X7.1Y-5.225
X7.1Y-5.55
X7.125Y-2.75
X7.125Y-2.8
X7.125Y-2.85
X7.125Y-2.9
X7.125Y-2.95
X7.15Y-3.8
X7.15Y-5.575
X7.2Y-4.275
X7.2Y-4.65
X7.2Y-4.725
X7.2Y-5.225
X7.2Y-5.45
X7.25Y-3.75
X7.25Y-5.575
X7.3Y-4.275
X7.3Y-4.675
X7.3Y-4.8
X7.3Y-4.875
X7.3Y-5.1
X7.35Y-3.7
X7.35Y-5.575
X7.4Y-4.275
X7.4Y-4.675
X7.4Y-4.8
X7.45Y-3.65
X7.45Y-5.575
X7.5Y-4.375
X7.5Y-5.3
X7.5Y-5.35
X7.55Y-3.6
X7.55Y-5.575
X7.6Y-4.675
X7.6Y-5.525
X7.65Y-4.025
X7.65Y-5.2
X7.65Y-5.575
X7.7Y-4.375
X7.7Y-5.175
X7.7Y-5.55
X7.75Y-4.025
X7.75Y-5.2
X7.8Y-3.6
X7.8Y-4.875
X7.8Y-5.175
X7.85Y-5.2
X7.9Y-3.65
X7.9Y-4.375
X7.975Y-3.6
X7.975Y-5.5
X7.975Y-5.575
X8.0Y-3.7
X8.0Y-5.125
X8.05Y-3.15
X8.05Y-3.6
X8.1Y-3.75
X8.1Y-5.125
X8.1Y-5.55
X8.15Y-3.15
X8.15Y-3.6
X8.15Y-5.05
X8.2Y-3.8
X8.2Y-5.55
X8.25Y-3.15
X8.25Y-3.6
X8.25Y-4.6
X8.25Y-5.55
X8.3Y-3.85
X8.3Y-5.55
X8.325Y-4.45
X8.325Y-4.625
X8.325Y-4.725
X8.325Y-4.85
X8.35Y-3.15
X8.35Y-3.6
X8.35Y-5.55
X8.4Y-3.9
X8.4Y-4.375
X8.4Y-5.3
X8.4Y-5.35
X8.4Y-5.425
X8.45Y-3.0
X8.45Y-3.6
X8.475Y-4.625
X8.475Y-4.725
X8.475Y-4.85
X8.5Y-3.95
X8.55Y-3.05
X8.55Y-3.6
X8.55Y-4.9
X8.55Y-5.175
X8.55Y-5.55
X8.6Y-4.625
X8.6Y-4.725
X8.6Y-5.425
X8.625Y-5.2
X8.65Y-3.6
X8.65Y-3.925
X8.65Y-4.025
X8.65Y-5.125
X8.7Y-4.5
X8.7Y-4.625
X8.7Y-4.725
X8.7Y-4.9
X8.7Y-5.425
X8.7Y-5.55
X8.75Y-3.9
X8.75Y-3.95
X8.75Y-4.55
X8.775Y-5.425
X8.775Y-5.55
X8.8Y-5.125
X8.8Y-5.2
X8.825Y-4.625
X8.825Y-4.725
X8.825Y-4.9
X8.85Y-5.2
X8.85Y-5.55
X8.9Y-5.425
X8.925Y-2.75
X8.925Y-2.8
X8.925Y-2.85
X8.925Y-2.9
X8.925Y-2.95
X8.95Y-3.925
X9.0Y-3.1
X9.05Y-3.925
X9.05Y-4.5
X9.1Y-3.6
X9.1Y-4.8
X9.175Y-4.375
T2
X4.7Y-2.8
X4.7Y-3.0
X4.9Y-2.8
X4.9Y-3.0
X5.1Y-2.8
X5.1Y-3.0
X6.4Y-4.8
X6.6Y-4.8
X6.7Y-3.2
X6.7Y-3.4
X6.8Y-3.2
X6.8Y-3.4
X6.9Y-3.2
X6.9Y-3.4
X7.0Y-3.2
X7.0Y-3.4
X7.9Y-4.625
X8.1Y-4.625
T3
X4.975Y-5.0
X4.975Y-5.1969
X5.1Y-3.5
X5.1Y-4.1
X5.1Y-5.0
X5.1Y-5.3
X5.2Y-3.5
X5.2Y-4.1
X5.2Y-5.0
X5.2Y-5.3
X5.3Y-3.5
X5.3Y-4.1
X5.3Y-5.0
X5.3Y-5.3
X5.325Y-2.8
X5.325Y-2.8984
X5.4Y-3.5
X5.4Y-4.1
X5.4Y-5.0
X5.4Y-5.3
X5.5Y-3.5
X5.5Y-4.1
X5.5Y-5.0
X5.5Y-5.3
X5.6Y-3.5
X5.6Y-4.1
X5.6Y-5.0
X5.6Y-5.3
X5.6031Y-4.225
X5.7Y-3.5
X5.7Y-4.1
X5.7Y-5.0
X5.7Y-5.3
X5.8Y-3.5
X5.8Y-4.1
X5.8Y-4.225
X5.8Y-5.0
X5.8Y-5.3
X5.9Y-3.5
X5.9Y-4.1
X5.9Y-5.0
X5.9Y-5.1969
X6.0Y-3.5
X6.0Y-4.1
X6.0Y-5.0
X6.0Y-5.3
X6.1Y-3.5
X6.1Y-4.1
X6.1Y-5.0
X6.1Y-5.3
X6.2Y-3.5
X6.2Y-4.1
X6.2Y-5.0
X6.2Y-5.3
X6.3Y-3.5
X6.3Y-4.1
X6.3Y-5.0
X6.3Y-5.3
X6.4Y-3.5
X6.4Y-4.1
X6.4Y-5.0
X6.4Y-5.3
X6.4031Y-4.9
X6.5Y-3.5
X6.5Y-4.1
X6.5Y-5.0
X6.5Y-5.3
X6.6Y-3.5
X6.6Y-4.1
X6.6Y-4.9
X6.6Y-5.0
X6.6Y-5.3
X6.7Y-3.0
X6.7Y-3.0984
X6.7Y-3.5
X6.7Y-4.1
X6.7Y-5.0
X6.7Y-5.1969
X6.8Y-3.5
X6.8Y-4.1
X6.8Y-5.0
X6.8Y-5.3
X6.8031Y-4.2
X6.9Y-3.5
X6.9Y-4.1
X6.9Y-5.0
X6.9Y-5.3
X7.0Y-3.0
X7.0Y-3.0984
X7.0Y-3.5
X7.0Y-4.1
X7.0Y-4.2
X7.0Y-5.0
X7.0Y-5.3
X7.1Y-5.0
X7.1Y-5.3
X7.2Y-3.5
X7.2Y-4.1
X7.2Y-5.0
X7.2Y-5.3
X7.3Y-3.5
X7.3Y-4.1
X7.3Y-5.0
X7.3Y-5.3
X7.4Y-3.5
X7.4Y-4.1
X7.4Y-5.0
X7.4Y-5.3
X7.5Y-3.5
X7.5Y-4.1
X7.5Y-5.0
X7.5Y-5.1969
X7.6Y-3.5
X7.6Y-4.1
X7.6Y-5.0
X7.6Y-5.3
X7.7Y-3.5
X7.7Y-4.1
X7.7Y-4.225
X7.7Y-5.0
X7.7Y-5.3
X7.8Y-3.5
X7.8Y-4.1
X7.8Y-5.0
X7.8Y-5.3
X7.8969Y-4.225
X7.9Y-3.5
X7.9Y-4.1
X7.9Y-5.0
X7.9Y-5.3
X8.0Y-3.5
X8.0Y-4.1
X8.0Y-5.0
X8.0Y-5.3
X8.1Y-3.5
X8.1Y-4.1
X8.1Y-5.0
X8.1Y-5.3
X8.2Y-3.5
X8.2Y-4.1
X8.2Y-5.0
X8.2Y-5.3
X8.3Y-3.5
X8.3Y-4.1
X8.3Y-5.0
X8.3Y-5.3
X8.4Y-3.5
X8.4Y-4.1
X8.4Y-5.0
X8.4Y-5.1969
X8.5Y-3.5
X8.5Y-4.1
X8.5Y-5.0
X8.5Y-5.3
X8.6Y-3.5
X8.6Y-4.1
X8.6Y-5.0
X8.6Y-5.3
X8.7Y-3.5
X8.7Y-4.1
X8.7Y-5.0
X8.7Y-5.3
X8.8Y-3.5
X8.8Y-4.1
X8.8Y-5.0
X8.8Y-5.3
X8.9Y-3.5
X8.9Y-4.1
X8.9Y-5.0
X8.9Y-5.3
X9.0Y-3.5
X9.0Y-4.1
X9.0Y-5.0
X9.0Y-5.3
X9.0516Y-4.3
X9.1Y-2.8
X9.1Y-2.8984
X9.1Y-3.5
X9.1Y-4.1
X9.1Y-5.0
X9.1Y-5.3
X9.15Y-4.3
T4
X6.2Y-4.7
X6.2Y-4.8969
X6.2984Y-4.7984
X7.9Y-4.75
X7.9Y-4.875
X8.2Y-4.75
X8.2Y-4.875
T5
X4.4Y-3.4
X4.4Y-3.5
X4.4Y-3.6
X4.4Y-3.7
X4.4Y-3.8
X4.4Y-3.9
X4.4Y-4.0
X4.4Y-4.1
X4.4Y-4.2
X4.4Y-4.3
X4.4Y-4.4
X4.4Y-4.5
X4.4Y-4.6
X4.4Y-4.7
X4.4Y-4.8
X4.4Y-4.9
X4.4Y-5.0
X4.4Y-5.1
X4.4Y-5.2
X4.4Y-5.3
X4.5Y-2.9
X4.5Y-3.0
X4.5Y-3.4
X4.5Y-3.5
X4.5Y-3.6
X4.5Y-3.7
X4.5Y-3.8
X4.5Y-3.9
X4.5Y-4.0
X4.5Y-4.1
X4.5Y-4.2
X4.5Y-4.3
X4.5Y-4.4
X4.5Y-4.5
X4.5Y-4.6
X4.5Y-4.7
X4.5Y-4.8
X4.5Y-4.9
X4.5Y-5.0
X4.5Y-5.1
X4.5Y-5.2
X4.5Y-5.3
X6.75Y-2.8
X6.85Y-2.8
X6.95Y-2.8
X7.5Y-2.8
X7.5Y-2.9
X7.6Y-2.8
X7.6Y-2.9
X7.7Y-2.8
X7.7Y-2.9
X7.8Y-2.8
X7.8Y-2.9
X7.9Y-2.8
X7.9Y-2.9
X8.0Y-2.8
X8.0Y-2.9
X8.1Y-2.8
X8.1Y-2.9
X8.2Y-2.8
X8.2Y-2.9
X8.3Y-2.8
X8.3Y-2.9
X8.4Y-2.8
X8.4Y-2.9
X8.5Y-2.8
X8.5Y-2.9
X8.6Y-2.8
X8.6Y-2.9
X8.7Y-2.8
X8.7Y-2.9
T0
M30
