%TF.GenerationSoftware,KiCad,Pcbnew,(5.1.12)-1*%
%TF.CreationDate,2025-05-01T22:50:32-05:00*%
%TF.ProjectId,apple_ay_8255,6170706c-655f-4617-995f-383235352e6b,rev?*%
%TF.SameCoordinates,Original*%
%TF.FileFunction,Legend,Top*%
%TF.FilePolarity,Positive*%
%FSLAX46Y46*%
G04 Gerber Fmt 4.6, Leading zero omitted, Abs format (unit mm)*
G04 Created by KiCad (PCBNEW (5.1.12)-1) date 2025-05-01 22:50:32*
%MOMM*%
%LPD*%
G01*
G04 APERTURE LIST*
%ADD10C,0.120000*%
%ADD11C,0.127000*%
%ADD12C,0.150000*%
G04 APERTURE END LIST*
D10*
%TO.C,C14*%
X137875000Y-72370000D02*
G75*
G03*
X137875000Y-72370000I-2620000J0D01*
G01*
X137835000Y-72370000D02*
X132675000Y-72370000D01*
X137835000Y-72410000D02*
X132675000Y-72410000D01*
X137834000Y-72450000D02*
X132676000Y-72450000D01*
X137833000Y-72490000D02*
X132677000Y-72490000D01*
X137831000Y-72530000D02*
X132679000Y-72530000D01*
X137828000Y-72570000D02*
X132682000Y-72570000D01*
X137824000Y-72610000D02*
X136295000Y-72610000D01*
X134215000Y-72610000D02*
X132686000Y-72610000D01*
X137820000Y-72650000D02*
X136295000Y-72650000D01*
X134215000Y-72650000D02*
X132690000Y-72650000D01*
X137816000Y-72690000D02*
X136295000Y-72690000D01*
X134215000Y-72690000D02*
X132694000Y-72690000D01*
X137811000Y-72730000D02*
X136295000Y-72730000D01*
X134215000Y-72730000D02*
X132699000Y-72730000D01*
X137805000Y-72770000D02*
X136295000Y-72770000D01*
X134215000Y-72770000D02*
X132705000Y-72770000D01*
X137798000Y-72810000D02*
X136295000Y-72810000D01*
X134215000Y-72810000D02*
X132712000Y-72810000D01*
X137791000Y-72850000D02*
X136295000Y-72850000D01*
X134215000Y-72850000D02*
X132719000Y-72850000D01*
X137783000Y-72890000D02*
X136295000Y-72890000D01*
X134215000Y-72890000D02*
X132727000Y-72890000D01*
X137775000Y-72930000D02*
X136295000Y-72930000D01*
X134215000Y-72930000D02*
X132735000Y-72930000D01*
X137766000Y-72970000D02*
X136295000Y-72970000D01*
X134215000Y-72970000D02*
X132744000Y-72970000D01*
X137756000Y-73010000D02*
X136295000Y-73010000D01*
X134215000Y-73010000D02*
X132754000Y-73010000D01*
X137746000Y-73050000D02*
X136295000Y-73050000D01*
X134215000Y-73050000D02*
X132764000Y-73050000D01*
X137735000Y-73091000D02*
X136295000Y-73091000D01*
X134215000Y-73091000D02*
X132775000Y-73091000D01*
X137723000Y-73131000D02*
X136295000Y-73131000D01*
X134215000Y-73131000D02*
X132787000Y-73131000D01*
X137710000Y-73171000D02*
X136295000Y-73171000D01*
X134215000Y-73171000D02*
X132800000Y-73171000D01*
X137697000Y-73211000D02*
X136295000Y-73211000D01*
X134215000Y-73211000D02*
X132813000Y-73211000D01*
X137683000Y-73251000D02*
X136295000Y-73251000D01*
X134215000Y-73251000D02*
X132827000Y-73251000D01*
X137669000Y-73291000D02*
X136295000Y-73291000D01*
X134215000Y-73291000D02*
X132841000Y-73291000D01*
X137653000Y-73331000D02*
X136295000Y-73331000D01*
X134215000Y-73331000D02*
X132857000Y-73331000D01*
X137637000Y-73371000D02*
X136295000Y-73371000D01*
X134215000Y-73371000D02*
X132873000Y-73371000D01*
X137620000Y-73411000D02*
X136295000Y-73411000D01*
X134215000Y-73411000D02*
X132890000Y-73411000D01*
X137603000Y-73451000D02*
X136295000Y-73451000D01*
X134215000Y-73451000D02*
X132907000Y-73451000D01*
X137584000Y-73491000D02*
X136295000Y-73491000D01*
X134215000Y-73491000D02*
X132926000Y-73491000D01*
X137565000Y-73531000D02*
X136295000Y-73531000D01*
X134215000Y-73531000D02*
X132945000Y-73531000D01*
X137545000Y-73571000D02*
X136295000Y-73571000D01*
X134215000Y-73571000D02*
X132965000Y-73571000D01*
X137523000Y-73611000D02*
X136295000Y-73611000D01*
X134215000Y-73611000D02*
X132987000Y-73611000D01*
X137502000Y-73651000D02*
X136295000Y-73651000D01*
X134215000Y-73651000D02*
X133008000Y-73651000D01*
X137479000Y-73691000D02*
X136295000Y-73691000D01*
X134215000Y-73691000D02*
X133031000Y-73691000D01*
X137455000Y-73731000D02*
X136295000Y-73731000D01*
X134215000Y-73731000D02*
X133055000Y-73731000D01*
X137430000Y-73771000D02*
X136295000Y-73771000D01*
X134215000Y-73771000D02*
X133080000Y-73771000D01*
X137404000Y-73811000D02*
X136295000Y-73811000D01*
X134215000Y-73811000D02*
X133106000Y-73811000D01*
X137377000Y-73851000D02*
X136295000Y-73851000D01*
X134215000Y-73851000D02*
X133133000Y-73851000D01*
X137350000Y-73891000D02*
X136295000Y-73891000D01*
X134215000Y-73891000D02*
X133160000Y-73891000D01*
X137320000Y-73931000D02*
X136295000Y-73931000D01*
X134215000Y-73931000D02*
X133190000Y-73931000D01*
X137290000Y-73971000D02*
X136295000Y-73971000D01*
X134215000Y-73971000D02*
X133220000Y-73971000D01*
X137259000Y-74011000D02*
X136295000Y-74011000D01*
X134215000Y-74011000D02*
X133251000Y-74011000D01*
X137226000Y-74051000D02*
X136295000Y-74051000D01*
X134215000Y-74051000D02*
X133284000Y-74051000D01*
X137192000Y-74091000D02*
X136295000Y-74091000D01*
X134215000Y-74091000D02*
X133318000Y-74091000D01*
X137156000Y-74131000D02*
X136295000Y-74131000D01*
X134215000Y-74131000D02*
X133354000Y-74131000D01*
X137119000Y-74171000D02*
X136295000Y-74171000D01*
X134215000Y-74171000D02*
X133391000Y-74171000D01*
X137081000Y-74211000D02*
X136295000Y-74211000D01*
X134215000Y-74211000D02*
X133429000Y-74211000D01*
X137040000Y-74251000D02*
X136295000Y-74251000D01*
X134215000Y-74251000D02*
X133470000Y-74251000D01*
X136998000Y-74291000D02*
X136295000Y-74291000D01*
X134215000Y-74291000D02*
X133512000Y-74291000D01*
X136954000Y-74331000D02*
X136295000Y-74331000D01*
X134215000Y-74331000D02*
X133556000Y-74331000D01*
X136908000Y-74371000D02*
X136295000Y-74371000D01*
X134215000Y-74371000D02*
X133602000Y-74371000D01*
X136860000Y-74411000D02*
X136295000Y-74411000D01*
X134215000Y-74411000D02*
X133650000Y-74411000D01*
X136809000Y-74451000D02*
X136295000Y-74451000D01*
X134215000Y-74451000D02*
X133701000Y-74451000D01*
X136755000Y-74491000D02*
X136295000Y-74491000D01*
X134215000Y-74491000D02*
X133755000Y-74491000D01*
X136698000Y-74531000D02*
X136295000Y-74531000D01*
X134215000Y-74531000D02*
X133812000Y-74531000D01*
X136638000Y-74571000D02*
X136295000Y-74571000D01*
X134215000Y-74571000D02*
X133872000Y-74571000D01*
X136574000Y-74611000D02*
X136295000Y-74611000D01*
X134215000Y-74611000D02*
X133936000Y-74611000D01*
X136506000Y-74651000D02*
X136295000Y-74651000D01*
X134215000Y-74651000D02*
X134004000Y-74651000D01*
X136433000Y-74691000D02*
X134077000Y-74691000D01*
X136353000Y-74731000D02*
X134157000Y-74731000D01*
X136266000Y-74771000D02*
X134244000Y-74771000D01*
X136170000Y-74811000D02*
X134340000Y-74811000D01*
X136060000Y-74851000D02*
X134450000Y-74851000D01*
X135932000Y-74891000D02*
X134578000Y-74891000D01*
X135773000Y-74931000D02*
X134737000Y-74931000D01*
X135539000Y-74971000D02*
X134971000Y-74971000D01*
X136730000Y-69565225D02*
X136730000Y-70065225D01*
X136980000Y-69815225D02*
X136480000Y-69815225D01*
%TO.C,C13*%
X233760000Y-72370000D02*
G75*
G03*
X233760000Y-72370000I-2620000J0D01*
G01*
X233720000Y-72370000D02*
X228560000Y-72370000D01*
X233720000Y-72410000D02*
X228560000Y-72410000D01*
X233719000Y-72450000D02*
X228561000Y-72450000D01*
X233718000Y-72490000D02*
X228562000Y-72490000D01*
X233716000Y-72530000D02*
X228564000Y-72530000D01*
X233713000Y-72570000D02*
X228567000Y-72570000D01*
X233709000Y-72610000D02*
X232180000Y-72610000D01*
X230100000Y-72610000D02*
X228571000Y-72610000D01*
X233705000Y-72650000D02*
X232180000Y-72650000D01*
X230100000Y-72650000D02*
X228575000Y-72650000D01*
X233701000Y-72690000D02*
X232180000Y-72690000D01*
X230100000Y-72690000D02*
X228579000Y-72690000D01*
X233696000Y-72730000D02*
X232180000Y-72730000D01*
X230100000Y-72730000D02*
X228584000Y-72730000D01*
X233690000Y-72770000D02*
X232180000Y-72770000D01*
X230100000Y-72770000D02*
X228590000Y-72770000D01*
X233683000Y-72810000D02*
X232180000Y-72810000D01*
X230100000Y-72810000D02*
X228597000Y-72810000D01*
X233676000Y-72850000D02*
X232180000Y-72850000D01*
X230100000Y-72850000D02*
X228604000Y-72850000D01*
X233668000Y-72890000D02*
X232180000Y-72890000D01*
X230100000Y-72890000D02*
X228612000Y-72890000D01*
X233660000Y-72930000D02*
X232180000Y-72930000D01*
X230100000Y-72930000D02*
X228620000Y-72930000D01*
X233651000Y-72970000D02*
X232180000Y-72970000D01*
X230100000Y-72970000D02*
X228629000Y-72970000D01*
X233641000Y-73010000D02*
X232180000Y-73010000D01*
X230100000Y-73010000D02*
X228639000Y-73010000D01*
X233631000Y-73050000D02*
X232180000Y-73050000D01*
X230100000Y-73050000D02*
X228649000Y-73050000D01*
X233620000Y-73091000D02*
X232180000Y-73091000D01*
X230100000Y-73091000D02*
X228660000Y-73091000D01*
X233608000Y-73131000D02*
X232180000Y-73131000D01*
X230100000Y-73131000D02*
X228672000Y-73131000D01*
X233595000Y-73171000D02*
X232180000Y-73171000D01*
X230100000Y-73171000D02*
X228685000Y-73171000D01*
X233582000Y-73211000D02*
X232180000Y-73211000D01*
X230100000Y-73211000D02*
X228698000Y-73211000D01*
X233568000Y-73251000D02*
X232180000Y-73251000D01*
X230100000Y-73251000D02*
X228712000Y-73251000D01*
X233554000Y-73291000D02*
X232180000Y-73291000D01*
X230100000Y-73291000D02*
X228726000Y-73291000D01*
X233538000Y-73331000D02*
X232180000Y-73331000D01*
X230100000Y-73331000D02*
X228742000Y-73331000D01*
X233522000Y-73371000D02*
X232180000Y-73371000D01*
X230100000Y-73371000D02*
X228758000Y-73371000D01*
X233505000Y-73411000D02*
X232180000Y-73411000D01*
X230100000Y-73411000D02*
X228775000Y-73411000D01*
X233488000Y-73451000D02*
X232180000Y-73451000D01*
X230100000Y-73451000D02*
X228792000Y-73451000D01*
X233469000Y-73491000D02*
X232180000Y-73491000D01*
X230100000Y-73491000D02*
X228811000Y-73491000D01*
X233450000Y-73531000D02*
X232180000Y-73531000D01*
X230100000Y-73531000D02*
X228830000Y-73531000D01*
X233430000Y-73571000D02*
X232180000Y-73571000D01*
X230100000Y-73571000D02*
X228850000Y-73571000D01*
X233408000Y-73611000D02*
X232180000Y-73611000D01*
X230100000Y-73611000D02*
X228872000Y-73611000D01*
X233387000Y-73651000D02*
X232180000Y-73651000D01*
X230100000Y-73651000D02*
X228893000Y-73651000D01*
X233364000Y-73691000D02*
X232180000Y-73691000D01*
X230100000Y-73691000D02*
X228916000Y-73691000D01*
X233340000Y-73731000D02*
X232180000Y-73731000D01*
X230100000Y-73731000D02*
X228940000Y-73731000D01*
X233315000Y-73771000D02*
X232180000Y-73771000D01*
X230100000Y-73771000D02*
X228965000Y-73771000D01*
X233289000Y-73811000D02*
X232180000Y-73811000D01*
X230100000Y-73811000D02*
X228991000Y-73811000D01*
X233262000Y-73851000D02*
X232180000Y-73851000D01*
X230100000Y-73851000D02*
X229018000Y-73851000D01*
X233235000Y-73891000D02*
X232180000Y-73891000D01*
X230100000Y-73891000D02*
X229045000Y-73891000D01*
X233205000Y-73931000D02*
X232180000Y-73931000D01*
X230100000Y-73931000D02*
X229075000Y-73931000D01*
X233175000Y-73971000D02*
X232180000Y-73971000D01*
X230100000Y-73971000D02*
X229105000Y-73971000D01*
X233144000Y-74011000D02*
X232180000Y-74011000D01*
X230100000Y-74011000D02*
X229136000Y-74011000D01*
X233111000Y-74051000D02*
X232180000Y-74051000D01*
X230100000Y-74051000D02*
X229169000Y-74051000D01*
X233077000Y-74091000D02*
X232180000Y-74091000D01*
X230100000Y-74091000D02*
X229203000Y-74091000D01*
X233041000Y-74131000D02*
X232180000Y-74131000D01*
X230100000Y-74131000D02*
X229239000Y-74131000D01*
X233004000Y-74171000D02*
X232180000Y-74171000D01*
X230100000Y-74171000D02*
X229276000Y-74171000D01*
X232966000Y-74211000D02*
X232180000Y-74211000D01*
X230100000Y-74211000D02*
X229314000Y-74211000D01*
X232925000Y-74251000D02*
X232180000Y-74251000D01*
X230100000Y-74251000D02*
X229355000Y-74251000D01*
X232883000Y-74291000D02*
X232180000Y-74291000D01*
X230100000Y-74291000D02*
X229397000Y-74291000D01*
X232839000Y-74331000D02*
X232180000Y-74331000D01*
X230100000Y-74331000D02*
X229441000Y-74331000D01*
X232793000Y-74371000D02*
X232180000Y-74371000D01*
X230100000Y-74371000D02*
X229487000Y-74371000D01*
X232745000Y-74411000D02*
X232180000Y-74411000D01*
X230100000Y-74411000D02*
X229535000Y-74411000D01*
X232694000Y-74451000D02*
X232180000Y-74451000D01*
X230100000Y-74451000D02*
X229586000Y-74451000D01*
X232640000Y-74491000D02*
X232180000Y-74491000D01*
X230100000Y-74491000D02*
X229640000Y-74491000D01*
X232583000Y-74531000D02*
X232180000Y-74531000D01*
X230100000Y-74531000D02*
X229697000Y-74531000D01*
X232523000Y-74571000D02*
X232180000Y-74571000D01*
X230100000Y-74571000D02*
X229757000Y-74571000D01*
X232459000Y-74611000D02*
X232180000Y-74611000D01*
X230100000Y-74611000D02*
X229821000Y-74611000D01*
X232391000Y-74651000D02*
X232180000Y-74651000D01*
X230100000Y-74651000D02*
X229889000Y-74651000D01*
X232318000Y-74691000D02*
X229962000Y-74691000D01*
X232238000Y-74731000D02*
X230042000Y-74731000D01*
X232151000Y-74771000D02*
X230129000Y-74771000D01*
X232055000Y-74811000D02*
X230225000Y-74811000D01*
X231945000Y-74851000D02*
X230335000Y-74851000D01*
X231817000Y-74891000D02*
X230463000Y-74891000D01*
X231658000Y-74931000D02*
X230622000Y-74931000D01*
X231424000Y-74971000D02*
X230856000Y-74971000D01*
X232615000Y-69565225D02*
X232615000Y-70065225D01*
X232865000Y-69815225D02*
X232365000Y-69815225D01*
%TO.C,C12*%
X233780000Y-109220000D02*
G75*
G03*
X233780000Y-109220000I-2620000J0D01*
G01*
X231160000Y-111800000D02*
X231160000Y-106640000D01*
X231120000Y-111800000D02*
X231120000Y-106640000D01*
X231080000Y-111799000D02*
X231080000Y-106641000D01*
X231040000Y-111798000D02*
X231040000Y-106642000D01*
X231000000Y-111796000D02*
X231000000Y-106644000D01*
X230960000Y-111793000D02*
X230960000Y-106647000D01*
X230920000Y-111789000D02*
X230920000Y-110260000D01*
X230920000Y-108180000D02*
X230920000Y-106651000D01*
X230880000Y-111785000D02*
X230880000Y-110260000D01*
X230880000Y-108180000D02*
X230880000Y-106655000D01*
X230840000Y-111781000D02*
X230840000Y-110260000D01*
X230840000Y-108180000D02*
X230840000Y-106659000D01*
X230800000Y-111776000D02*
X230800000Y-110260000D01*
X230800000Y-108180000D02*
X230800000Y-106664000D01*
X230760000Y-111770000D02*
X230760000Y-110260000D01*
X230760000Y-108180000D02*
X230760000Y-106670000D01*
X230720000Y-111763000D02*
X230720000Y-110260000D01*
X230720000Y-108180000D02*
X230720000Y-106677000D01*
X230680000Y-111756000D02*
X230680000Y-110260000D01*
X230680000Y-108180000D02*
X230680000Y-106684000D01*
X230640000Y-111748000D02*
X230640000Y-110260000D01*
X230640000Y-108180000D02*
X230640000Y-106692000D01*
X230600000Y-111740000D02*
X230600000Y-110260000D01*
X230600000Y-108180000D02*
X230600000Y-106700000D01*
X230560000Y-111731000D02*
X230560000Y-110260000D01*
X230560000Y-108180000D02*
X230560000Y-106709000D01*
X230520000Y-111721000D02*
X230520000Y-110260000D01*
X230520000Y-108180000D02*
X230520000Y-106719000D01*
X230480000Y-111711000D02*
X230480000Y-110260000D01*
X230480000Y-108180000D02*
X230480000Y-106729000D01*
X230439000Y-111700000D02*
X230439000Y-110260000D01*
X230439000Y-108180000D02*
X230439000Y-106740000D01*
X230399000Y-111688000D02*
X230399000Y-110260000D01*
X230399000Y-108180000D02*
X230399000Y-106752000D01*
X230359000Y-111675000D02*
X230359000Y-110260000D01*
X230359000Y-108180000D02*
X230359000Y-106765000D01*
X230319000Y-111662000D02*
X230319000Y-110260000D01*
X230319000Y-108180000D02*
X230319000Y-106778000D01*
X230279000Y-111648000D02*
X230279000Y-110260000D01*
X230279000Y-108180000D02*
X230279000Y-106792000D01*
X230239000Y-111634000D02*
X230239000Y-110260000D01*
X230239000Y-108180000D02*
X230239000Y-106806000D01*
X230199000Y-111618000D02*
X230199000Y-110260000D01*
X230199000Y-108180000D02*
X230199000Y-106822000D01*
X230159000Y-111602000D02*
X230159000Y-110260000D01*
X230159000Y-108180000D02*
X230159000Y-106838000D01*
X230119000Y-111585000D02*
X230119000Y-110260000D01*
X230119000Y-108180000D02*
X230119000Y-106855000D01*
X230079000Y-111568000D02*
X230079000Y-110260000D01*
X230079000Y-108180000D02*
X230079000Y-106872000D01*
X230039000Y-111549000D02*
X230039000Y-110260000D01*
X230039000Y-108180000D02*
X230039000Y-106891000D01*
X229999000Y-111530000D02*
X229999000Y-110260000D01*
X229999000Y-108180000D02*
X229999000Y-106910000D01*
X229959000Y-111510000D02*
X229959000Y-110260000D01*
X229959000Y-108180000D02*
X229959000Y-106930000D01*
X229919000Y-111488000D02*
X229919000Y-110260000D01*
X229919000Y-108180000D02*
X229919000Y-106952000D01*
X229879000Y-111467000D02*
X229879000Y-110260000D01*
X229879000Y-108180000D02*
X229879000Y-106973000D01*
X229839000Y-111444000D02*
X229839000Y-110260000D01*
X229839000Y-108180000D02*
X229839000Y-106996000D01*
X229799000Y-111420000D02*
X229799000Y-110260000D01*
X229799000Y-108180000D02*
X229799000Y-107020000D01*
X229759000Y-111395000D02*
X229759000Y-110260000D01*
X229759000Y-108180000D02*
X229759000Y-107045000D01*
X229719000Y-111369000D02*
X229719000Y-110260000D01*
X229719000Y-108180000D02*
X229719000Y-107071000D01*
X229679000Y-111342000D02*
X229679000Y-110260000D01*
X229679000Y-108180000D02*
X229679000Y-107098000D01*
X229639000Y-111315000D02*
X229639000Y-110260000D01*
X229639000Y-108180000D02*
X229639000Y-107125000D01*
X229599000Y-111285000D02*
X229599000Y-110260000D01*
X229599000Y-108180000D02*
X229599000Y-107155000D01*
X229559000Y-111255000D02*
X229559000Y-110260000D01*
X229559000Y-108180000D02*
X229559000Y-107185000D01*
X229519000Y-111224000D02*
X229519000Y-110260000D01*
X229519000Y-108180000D02*
X229519000Y-107216000D01*
X229479000Y-111191000D02*
X229479000Y-110260000D01*
X229479000Y-108180000D02*
X229479000Y-107249000D01*
X229439000Y-111157000D02*
X229439000Y-110260000D01*
X229439000Y-108180000D02*
X229439000Y-107283000D01*
X229399000Y-111121000D02*
X229399000Y-110260000D01*
X229399000Y-108180000D02*
X229399000Y-107319000D01*
X229359000Y-111084000D02*
X229359000Y-110260000D01*
X229359000Y-108180000D02*
X229359000Y-107356000D01*
X229319000Y-111046000D02*
X229319000Y-110260000D01*
X229319000Y-108180000D02*
X229319000Y-107394000D01*
X229279000Y-111005000D02*
X229279000Y-110260000D01*
X229279000Y-108180000D02*
X229279000Y-107435000D01*
X229239000Y-110963000D02*
X229239000Y-110260000D01*
X229239000Y-108180000D02*
X229239000Y-107477000D01*
X229199000Y-110919000D02*
X229199000Y-110260000D01*
X229199000Y-108180000D02*
X229199000Y-107521000D01*
X229159000Y-110873000D02*
X229159000Y-110260000D01*
X229159000Y-108180000D02*
X229159000Y-107567000D01*
X229119000Y-110825000D02*
X229119000Y-110260000D01*
X229119000Y-108180000D02*
X229119000Y-107615000D01*
X229079000Y-110774000D02*
X229079000Y-110260000D01*
X229079000Y-108180000D02*
X229079000Y-107666000D01*
X229039000Y-110720000D02*
X229039000Y-110260000D01*
X229039000Y-108180000D02*
X229039000Y-107720000D01*
X228999000Y-110663000D02*
X228999000Y-110260000D01*
X228999000Y-108180000D02*
X228999000Y-107777000D01*
X228959000Y-110603000D02*
X228959000Y-110260000D01*
X228959000Y-108180000D02*
X228959000Y-107837000D01*
X228919000Y-110539000D02*
X228919000Y-110260000D01*
X228919000Y-108180000D02*
X228919000Y-107901000D01*
X228879000Y-110471000D02*
X228879000Y-110260000D01*
X228879000Y-108180000D02*
X228879000Y-107969000D01*
X228839000Y-110398000D02*
X228839000Y-108042000D01*
X228799000Y-110318000D02*
X228799000Y-108122000D01*
X228759000Y-110231000D02*
X228759000Y-108209000D01*
X228719000Y-110135000D02*
X228719000Y-108305000D01*
X228679000Y-110025000D02*
X228679000Y-108415000D01*
X228639000Y-109897000D02*
X228639000Y-108543000D01*
X228599000Y-109738000D02*
X228599000Y-108702000D01*
X228559000Y-109504000D02*
X228559000Y-108936000D01*
X233964775Y-110695000D02*
X233464775Y-110695000D01*
X233714775Y-110945000D02*
X233714775Y-110445000D01*
%TO.C,C11*%
X171250000Y-127230000D02*
X171250000Y-131770000D01*
X169110000Y-127230000D02*
X169110000Y-131770000D01*
X171250000Y-127230000D02*
X171235000Y-127230000D01*
X169125000Y-127230000D02*
X169110000Y-127230000D01*
X171250000Y-131770000D02*
X171235000Y-131770000D01*
X169125000Y-131770000D02*
X169110000Y-131770000D01*
%TO.C,C10*%
X177570000Y-107750000D02*
X173030000Y-107750000D01*
X177570000Y-105610000D02*
X173030000Y-105610000D01*
X177570000Y-107750000D02*
X177570000Y-107735000D01*
X177570000Y-105625000D02*
X177570000Y-105610000D01*
X173030000Y-107750000D02*
X173030000Y-107735000D01*
X173030000Y-105625000D02*
X173030000Y-105610000D01*
%TO.C,C9*%
X191570000Y-127230000D02*
X191570000Y-131770000D01*
X189430000Y-127230000D02*
X189430000Y-131770000D01*
X191570000Y-127230000D02*
X191555000Y-127230000D01*
X189445000Y-127230000D02*
X189430000Y-127230000D01*
X191570000Y-131770000D02*
X191555000Y-131770000D01*
X189445000Y-131770000D02*
X189430000Y-131770000D01*
%TO.C,C8*%
X150930000Y-127230000D02*
X150930000Y-131770000D01*
X148790000Y-127230000D02*
X148790000Y-131770000D01*
X150930000Y-127230000D02*
X150915000Y-127230000D01*
X148805000Y-127230000D02*
X148790000Y-127230000D01*
X150930000Y-131770000D02*
X150915000Y-131770000D01*
X148805000Y-131770000D02*
X148790000Y-131770000D01*
%TO.C,C7*%
X214430000Y-127230000D02*
X214430000Y-131770000D01*
X212290000Y-127230000D02*
X212290000Y-131770000D01*
X214430000Y-127230000D02*
X214415000Y-127230000D01*
X212305000Y-127230000D02*
X212290000Y-127230000D01*
X214430000Y-131770000D02*
X214415000Y-131770000D01*
X212305000Y-131770000D02*
X212290000Y-131770000D01*
%TO.C,C6*%
X127435000Y-127230000D02*
X127435000Y-131770000D01*
X125295000Y-127230000D02*
X125295000Y-131770000D01*
X127435000Y-127230000D02*
X127420000Y-127230000D01*
X125310000Y-127230000D02*
X125295000Y-127230000D01*
X127435000Y-131770000D02*
X127420000Y-131770000D01*
X125310000Y-131770000D02*
X125295000Y-131770000D01*
%TO.C,C5*%
X195810000Y-106245000D02*
X200350000Y-106245000D01*
X195810000Y-108385000D02*
X200350000Y-108385000D01*
X195810000Y-106245000D02*
X195810000Y-106260000D01*
X195810000Y-108370000D02*
X195810000Y-108385000D01*
X200350000Y-106245000D02*
X200350000Y-106260000D01*
X200350000Y-108370000D02*
X200350000Y-108385000D01*
%TO.C,C4*%
X147090000Y-108385000D02*
X142550000Y-108385000D01*
X147090000Y-106245000D02*
X142550000Y-106245000D01*
X147090000Y-108385000D02*
X147090000Y-108370000D01*
X147090000Y-106260000D02*
X147090000Y-106245000D01*
X142550000Y-108385000D02*
X142550000Y-108370000D01*
X142550000Y-106260000D02*
X142550000Y-106245000D01*
%TO.C,R9*%
X178720000Y-81900000D02*
X178720000Y-85740000D01*
X176880000Y-81900000D02*
X176880000Y-85740000D01*
%TO.C,R8*%
X176180000Y-81900000D02*
X176180000Y-85740000D01*
X174340000Y-81900000D02*
X174340000Y-85740000D01*
%TO.C,R7*%
X173640000Y-81900000D02*
X173640000Y-85740000D01*
X171800000Y-81900000D02*
X171800000Y-85740000D01*
%TO.C,R6*%
X171100000Y-81900000D02*
X171100000Y-85740000D01*
X169260000Y-81900000D02*
X169260000Y-85740000D01*
%TO.C,J4*%
X177860000Y-72450000D02*
X177860000Y-69790000D01*
X172720000Y-72450000D02*
X177860000Y-72450000D01*
X172720000Y-69790000D02*
X177860000Y-69790000D01*
X172720000Y-72450000D02*
X172720000Y-69790000D01*
X171450000Y-72450000D02*
X170120000Y-72450000D01*
X170120000Y-72450000D02*
X170120000Y-71120000D01*
%TO.C,C3*%
X180420000Y-77450000D02*
G75*
G03*
X180420000Y-77450000I-2620000J0D01*
G01*
X180380000Y-77450000D02*
X175220000Y-77450000D01*
X180380000Y-77490000D02*
X175220000Y-77490000D01*
X180379000Y-77530000D02*
X175221000Y-77530000D01*
X180378000Y-77570000D02*
X175222000Y-77570000D01*
X180376000Y-77610000D02*
X175224000Y-77610000D01*
X180373000Y-77650000D02*
X175227000Y-77650000D01*
X180369000Y-77690000D02*
X178840000Y-77690000D01*
X176760000Y-77690000D02*
X175231000Y-77690000D01*
X180365000Y-77730000D02*
X178840000Y-77730000D01*
X176760000Y-77730000D02*
X175235000Y-77730000D01*
X180361000Y-77770000D02*
X178840000Y-77770000D01*
X176760000Y-77770000D02*
X175239000Y-77770000D01*
X180356000Y-77810000D02*
X178840000Y-77810000D01*
X176760000Y-77810000D02*
X175244000Y-77810000D01*
X180350000Y-77850000D02*
X178840000Y-77850000D01*
X176760000Y-77850000D02*
X175250000Y-77850000D01*
X180343000Y-77890000D02*
X178840000Y-77890000D01*
X176760000Y-77890000D02*
X175257000Y-77890000D01*
X180336000Y-77930000D02*
X178840000Y-77930000D01*
X176760000Y-77930000D02*
X175264000Y-77930000D01*
X180328000Y-77970000D02*
X178840000Y-77970000D01*
X176760000Y-77970000D02*
X175272000Y-77970000D01*
X180320000Y-78010000D02*
X178840000Y-78010000D01*
X176760000Y-78010000D02*
X175280000Y-78010000D01*
X180311000Y-78050000D02*
X178840000Y-78050000D01*
X176760000Y-78050000D02*
X175289000Y-78050000D01*
X180301000Y-78090000D02*
X178840000Y-78090000D01*
X176760000Y-78090000D02*
X175299000Y-78090000D01*
X180291000Y-78130000D02*
X178840000Y-78130000D01*
X176760000Y-78130000D02*
X175309000Y-78130000D01*
X180280000Y-78171000D02*
X178840000Y-78171000D01*
X176760000Y-78171000D02*
X175320000Y-78171000D01*
X180268000Y-78211000D02*
X178840000Y-78211000D01*
X176760000Y-78211000D02*
X175332000Y-78211000D01*
X180255000Y-78251000D02*
X178840000Y-78251000D01*
X176760000Y-78251000D02*
X175345000Y-78251000D01*
X180242000Y-78291000D02*
X178840000Y-78291000D01*
X176760000Y-78291000D02*
X175358000Y-78291000D01*
X180228000Y-78331000D02*
X178840000Y-78331000D01*
X176760000Y-78331000D02*
X175372000Y-78331000D01*
X180214000Y-78371000D02*
X178840000Y-78371000D01*
X176760000Y-78371000D02*
X175386000Y-78371000D01*
X180198000Y-78411000D02*
X178840000Y-78411000D01*
X176760000Y-78411000D02*
X175402000Y-78411000D01*
X180182000Y-78451000D02*
X178840000Y-78451000D01*
X176760000Y-78451000D02*
X175418000Y-78451000D01*
X180165000Y-78491000D02*
X178840000Y-78491000D01*
X176760000Y-78491000D02*
X175435000Y-78491000D01*
X180148000Y-78531000D02*
X178840000Y-78531000D01*
X176760000Y-78531000D02*
X175452000Y-78531000D01*
X180129000Y-78571000D02*
X178840000Y-78571000D01*
X176760000Y-78571000D02*
X175471000Y-78571000D01*
X180110000Y-78611000D02*
X178840000Y-78611000D01*
X176760000Y-78611000D02*
X175490000Y-78611000D01*
X180090000Y-78651000D02*
X178840000Y-78651000D01*
X176760000Y-78651000D02*
X175510000Y-78651000D01*
X180068000Y-78691000D02*
X178840000Y-78691000D01*
X176760000Y-78691000D02*
X175532000Y-78691000D01*
X180047000Y-78731000D02*
X178840000Y-78731000D01*
X176760000Y-78731000D02*
X175553000Y-78731000D01*
X180024000Y-78771000D02*
X178840000Y-78771000D01*
X176760000Y-78771000D02*
X175576000Y-78771000D01*
X180000000Y-78811000D02*
X178840000Y-78811000D01*
X176760000Y-78811000D02*
X175600000Y-78811000D01*
X179975000Y-78851000D02*
X178840000Y-78851000D01*
X176760000Y-78851000D02*
X175625000Y-78851000D01*
X179949000Y-78891000D02*
X178840000Y-78891000D01*
X176760000Y-78891000D02*
X175651000Y-78891000D01*
X179922000Y-78931000D02*
X178840000Y-78931000D01*
X176760000Y-78931000D02*
X175678000Y-78931000D01*
X179895000Y-78971000D02*
X178840000Y-78971000D01*
X176760000Y-78971000D02*
X175705000Y-78971000D01*
X179865000Y-79011000D02*
X178840000Y-79011000D01*
X176760000Y-79011000D02*
X175735000Y-79011000D01*
X179835000Y-79051000D02*
X178840000Y-79051000D01*
X176760000Y-79051000D02*
X175765000Y-79051000D01*
X179804000Y-79091000D02*
X178840000Y-79091000D01*
X176760000Y-79091000D02*
X175796000Y-79091000D01*
X179771000Y-79131000D02*
X178840000Y-79131000D01*
X176760000Y-79131000D02*
X175829000Y-79131000D01*
X179737000Y-79171000D02*
X178840000Y-79171000D01*
X176760000Y-79171000D02*
X175863000Y-79171000D01*
X179701000Y-79211000D02*
X178840000Y-79211000D01*
X176760000Y-79211000D02*
X175899000Y-79211000D01*
X179664000Y-79251000D02*
X178840000Y-79251000D01*
X176760000Y-79251000D02*
X175936000Y-79251000D01*
X179626000Y-79291000D02*
X178840000Y-79291000D01*
X176760000Y-79291000D02*
X175974000Y-79291000D01*
X179585000Y-79331000D02*
X178840000Y-79331000D01*
X176760000Y-79331000D02*
X176015000Y-79331000D01*
X179543000Y-79371000D02*
X178840000Y-79371000D01*
X176760000Y-79371000D02*
X176057000Y-79371000D01*
X179499000Y-79411000D02*
X178840000Y-79411000D01*
X176760000Y-79411000D02*
X176101000Y-79411000D01*
X179453000Y-79451000D02*
X178840000Y-79451000D01*
X176760000Y-79451000D02*
X176147000Y-79451000D01*
X179405000Y-79491000D02*
X178840000Y-79491000D01*
X176760000Y-79491000D02*
X176195000Y-79491000D01*
X179354000Y-79531000D02*
X178840000Y-79531000D01*
X176760000Y-79531000D02*
X176246000Y-79531000D01*
X179300000Y-79571000D02*
X178840000Y-79571000D01*
X176760000Y-79571000D02*
X176300000Y-79571000D01*
X179243000Y-79611000D02*
X178840000Y-79611000D01*
X176760000Y-79611000D02*
X176357000Y-79611000D01*
X179183000Y-79651000D02*
X178840000Y-79651000D01*
X176760000Y-79651000D02*
X176417000Y-79651000D01*
X179119000Y-79691000D02*
X178840000Y-79691000D01*
X176760000Y-79691000D02*
X176481000Y-79691000D01*
X179051000Y-79731000D02*
X178840000Y-79731000D01*
X176760000Y-79731000D02*
X176549000Y-79731000D01*
X178978000Y-79771000D02*
X176622000Y-79771000D01*
X178898000Y-79811000D02*
X176702000Y-79811000D01*
X178811000Y-79851000D02*
X176789000Y-79851000D01*
X178715000Y-79891000D02*
X176885000Y-79891000D01*
X178605000Y-79931000D02*
X176995000Y-79931000D01*
X178477000Y-79971000D02*
X177123000Y-79971000D01*
X178318000Y-80011000D02*
X177282000Y-80011000D01*
X178084000Y-80051000D02*
X177516000Y-80051000D01*
X179275000Y-74645225D02*
X179275000Y-75145225D01*
X179525000Y-74895225D02*
X179025000Y-74895225D01*
%TO.C,C2*%
X172800000Y-77450000D02*
G75*
G03*
X172800000Y-77450000I-2620000J0D01*
G01*
X172760000Y-77450000D02*
X167600000Y-77450000D01*
X172760000Y-77490000D02*
X167600000Y-77490000D01*
X172759000Y-77530000D02*
X167601000Y-77530000D01*
X172758000Y-77570000D02*
X167602000Y-77570000D01*
X172756000Y-77610000D02*
X167604000Y-77610000D01*
X172753000Y-77650000D02*
X167607000Y-77650000D01*
X172749000Y-77690000D02*
X171220000Y-77690000D01*
X169140000Y-77690000D02*
X167611000Y-77690000D01*
X172745000Y-77730000D02*
X171220000Y-77730000D01*
X169140000Y-77730000D02*
X167615000Y-77730000D01*
X172741000Y-77770000D02*
X171220000Y-77770000D01*
X169140000Y-77770000D02*
X167619000Y-77770000D01*
X172736000Y-77810000D02*
X171220000Y-77810000D01*
X169140000Y-77810000D02*
X167624000Y-77810000D01*
X172730000Y-77850000D02*
X171220000Y-77850000D01*
X169140000Y-77850000D02*
X167630000Y-77850000D01*
X172723000Y-77890000D02*
X171220000Y-77890000D01*
X169140000Y-77890000D02*
X167637000Y-77890000D01*
X172716000Y-77930000D02*
X171220000Y-77930000D01*
X169140000Y-77930000D02*
X167644000Y-77930000D01*
X172708000Y-77970000D02*
X171220000Y-77970000D01*
X169140000Y-77970000D02*
X167652000Y-77970000D01*
X172700000Y-78010000D02*
X171220000Y-78010000D01*
X169140000Y-78010000D02*
X167660000Y-78010000D01*
X172691000Y-78050000D02*
X171220000Y-78050000D01*
X169140000Y-78050000D02*
X167669000Y-78050000D01*
X172681000Y-78090000D02*
X171220000Y-78090000D01*
X169140000Y-78090000D02*
X167679000Y-78090000D01*
X172671000Y-78130000D02*
X171220000Y-78130000D01*
X169140000Y-78130000D02*
X167689000Y-78130000D01*
X172660000Y-78171000D02*
X171220000Y-78171000D01*
X169140000Y-78171000D02*
X167700000Y-78171000D01*
X172648000Y-78211000D02*
X171220000Y-78211000D01*
X169140000Y-78211000D02*
X167712000Y-78211000D01*
X172635000Y-78251000D02*
X171220000Y-78251000D01*
X169140000Y-78251000D02*
X167725000Y-78251000D01*
X172622000Y-78291000D02*
X171220000Y-78291000D01*
X169140000Y-78291000D02*
X167738000Y-78291000D01*
X172608000Y-78331000D02*
X171220000Y-78331000D01*
X169140000Y-78331000D02*
X167752000Y-78331000D01*
X172594000Y-78371000D02*
X171220000Y-78371000D01*
X169140000Y-78371000D02*
X167766000Y-78371000D01*
X172578000Y-78411000D02*
X171220000Y-78411000D01*
X169140000Y-78411000D02*
X167782000Y-78411000D01*
X172562000Y-78451000D02*
X171220000Y-78451000D01*
X169140000Y-78451000D02*
X167798000Y-78451000D01*
X172545000Y-78491000D02*
X171220000Y-78491000D01*
X169140000Y-78491000D02*
X167815000Y-78491000D01*
X172528000Y-78531000D02*
X171220000Y-78531000D01*
X169140000Y-78531000D02*
X167832000Y-78531000D01*
X172509000Y-78571000D02*
X171220000Y-78571000D01*
X169140000Y-78571000D02*
X167851000Y-78571000D01*
X172490000Y-78611000D02*
X171220000Y-78611000D01*
X169140000Y-78611000D02*
X167870000Y-78611000D01*
X172470000Y-78651000D02*
X171220000Y-78651000D01*
X169140000Y-78651000D02*
X167890000Y-78651000D01*
X172448000Y-78691000D02*
X171220000Y-78691000D01*
X169140000Y-78691000D02*
X167912000Y-78691000D01*
X172427000Y-78731000D02*
X171220000Y-78731000D01*
X169140000Y-78731000D02*
X167933000Y-78731000D01*
X172404000Y-78771000D02*
X171220000Y-78771000D01*
X169140000Y-78771000D02*
X167956000Y-78771000D01*
X172380000Y-78811000D02*
X171220000Y-78811000D01*
X169140000Y-78811000D02*
X167980000Y-78811000D01*
X172355000Y-78851000D02*
X171220000Y-78851000D01*
X169140000Y-78851000D02*
X168005000Y-78851000D01*
X172329000Y-78891000D02*
X171220000Y-78891000D01*
X169140000Y-78891000D02*
X168031000Y-78891000D01*
X172302000Y-78931000D02*
X171220000Y-78931000D01*
X169140000Y-78931000D02*
X168058000Y-78931000D01*
X172275000Y-78971000D02*
X171220000Y-78971000D01*
X169140000Y-78971000D02*
X168085000Y-78971000D01*
X172245000Y-79011000D02*
X171220000Y-79011000D01*
X169140000Y-79011000D02*
X168115000Y-79011000D01*
X172215000Y-79051000D02*
X171220000Y-79051000D01*
X169140000Y-79051000D02*
X168145000Y-79051000D01*
X172184000Y-79091000D02*
X171220000Y-79091000D01*
X169140000Y-79091000D02*
X168176000Y-79091000D01*
X172151000Y-79131000D02*
X171220000Y-79131000D01*
X169140000Y-79131000D02*
X168209000Y-79131000D01*
X172117000Y-79171000D02*
X171220000Y-79171000D01*
X169140000Y-79171000D02*
X168243000Y-79171000D01*
X172081000Y-79211000D02*
X171220000Y-79211000D01*
X169140000Y-79211000D02*
X168279000Y-79211000D01*
X172044000Y-79251000D02*
X171220000Y-79251000D01*
X169140000Y-79251000D02*
X168316000Y-79251000D01*
X172006000Y-79291000D02*
X171220000Y-79291000D01*
X169140000Y-79291000D02*
X168354000Y-79291000D01*
X171965000Y-79331000D02*
X171220000Y-79331000D01*
X169140000Y-79331000D02*
X168395000Y-79331000D01*
X171923000Y-79371000D02*
X171220000Y-79371000D01*
X169140000Y-79371000D02*
X168437000Y-79371000D01*
X171879000Y-79411000D02*
X171220000Y-79411000D01*
X169140000Y-79411000D02*
X168481000Y-79411000D01*
X171833000Y-79451000D02*
X171220000Y-79451000D01*
X169140000Y-79451000D02*
X168527000Y-79451000D01*
X171785000Y-79491000D02*
X171220000Y-79491000D01*
X169140000Y-79491000D02*
X168575000Y-79491000D01*
X171734000Y-79531000D02*
X171220000Y-79531000D01*
X169140000Y-79531000D02*
X168626000Y-79531000D01*
X171680000Y-79571000D02*
X171220000Y-79571000D01*
X169140000Y-79571000D02*
X168680000Y-79571000D01*
X171623000Y-79611000D02*
X171220000Y-79611000D01*
X169140000Y-79611000D02*
X168737000Y-79611000D01*
X171563000Y-79651000D02*
X171220000Y-79651000D01*
X169140000Y-79651000D02*
X168797000Y-79651000D01*
X171499000Y-79691000D02*
X171220000Y-79691000D01*
X169140000Y-79691000D02*
X168861000Y-79691000D01*
X171431000Y-79731000D02*
X171220000Y-79731000D01*
X169140000Y-79731000D02*
X168929000Y-79731000D01*
X171358000Y-79771000D02*
X169002000Y-79771000D01*
X171278000Y-79811000D02*
X169082000Y-79811000D01*
X171191000Y-79851000D02*
X169169000Y-79851000D01*
X171095000Y-79891000D02*
X169265000Y-79891000D01*
X170985000Y-79931000D02*
X169375000Y-79931000D01*
X170857000Y-79971000D02*
X169503000Y-79971000D01*
X170698000Y-80011000D02*
X169662000Y-80011000D01*
X170464000Y-80051000D02*
X169896000Y-80051000D01*
X171655000Y-74645225D02*
X171655000Y-75145225D01*
X171905000Y-74895225D02*
X171405000Y-74895225D01*
%TO.C,C1*%
X167410000Y-125530000D02*
X162870000Y-125530000D01*
X167410000Y-123390000D02*
X162870000Y-123390000D01*
X167410000Y-125530000D02*
X167410000Y-125515000D01*
X167410000Y-123405000D02*
X167410000Y-123390000D01*
X162870000Y-125530000D02*
X162870000Y-125515000D01*
X162870000Y-123405000D02*
X162870000Y-123390000D01*
D11*
%TO.C,J2*%
X233045000Y-151765000D02*
X233045000Y-143192500D01*
X168275000Y-151765000D02*
X233045000Y-151765000D01*
X168275000Y-143192500D02*
X168275000Y-151765000D01*
D10*
%TO.C,RV1*%
X161100000Y-120760000D02*
X161100000Y-123000000D01*
X157359000Y-120760000D02*
X157359000Y-123000000D01*
X157359000Y-123000000D02*
X161100000Y-123000000D01*
X157359000Y-120760000D02*
X161100000Y-120760000D01*
X157359000Y-120446000D02*
X157359000Y-123315000D01*
X161100000Y-118610000D02*
X161100000Y-125150000D01*
X158405000Y-125150000D02*
X161100000Y-125150000D01*
X158405000Y-118610000D02*
X161100000Y-118610000D01*
%TO.C,R5*%
X125380000Y-71740000D02*
X125380000Y-75580000D01*
X123540000Y-71740000D02*
X123540000Y-75580000D01*
%TO.C,R4*%
X130460000Y-71740000D02*
X130460000Y-75580000D01*
X128620000Y-71740000D02*
X128620000Y-75580000D01*
%TO.C,R3*%
X201280000Y-116555000D02*
X205120000Y-116555000D01*
X201280000Y-118395000D02*
X205120000Y-118395000D01*
%TO.C,R2*%
X120300000Y-71740000D02*
X120300000Y-75580000D01*
X118460000Y-71740000D02*
X118460000Y-75580000D01*
%TO.C,R1*%
X163180000Y-121000000D02*
X167020000Y-121000000D01*
X163180000Y-122840000D02*
X167020000Y-122840000D01*
%TO.C,J3*%
X110430000Y-135950000D02*
X115630000Y-135950000D01*
X110430000Y-87630000D02*
X110430000Y-135950000D01*
X115630000Y-85030000D02*
X115630000Y-135950000D01*
X110430000Y-87630000D02*
X113030000Y-87630000D01*
X113030000Y-87630000D02*
X113030000Y-85030000D01*
X113030000Y-85030000D02*
X115630000Y-85030000D01*
X110430000Y-86360000D02*
X110430000Y-85030000D01*
X110430000Y-85030000D02*
X111760000Y-85030000D01*
%TO.C,D3*%
X115630000Y-72330000D02*
X112970000Y-72330000D01*
X115630000Y-74930000D02*
X115630000Y-72330000D01*
X112970000Y-74930000D02*
X112970000Y-72330000D01*
X115630000Y-74930000D02*
X112970000Y-74930000D01*
X115630000Y-76200000D02*
X115630000Y-77530000D01*
X115630000Y-77530000D02*
X114300000Y-77530000D01*
%TO.C,D2*%
X201750000Y-119510000D02*
X201750000Y-119180000D01*
X201750000Y-119180000D02*
X207190000Y-119180000D01*
X207190000Y-119180000D02*
X207190000Y-119510000D01*
X201750000Y-121790000D02*
X201750000Y-122120000D01*
X201750000Y-122120000D02*
X207190000Y-122120000D01*
X207190000Y-122120000D02*
X207190000Y-121790000D01*
X202650000Y-119180000D02*
X202650000Y-122120000D01*
X202770000Y-119180000D02*
X202770000Y-122120000D01*
X202530000Y-119180000D02*
X202530000Y-122120000D01*
%TO.C,D1*%
X201750000Y-122685000D02*
X201750000Y-122355000D01*
X201750000Y-122355000D02*
X207190000Y-122355000D01*
X207190000Y-122355000D02*
X207190000Y-122685000D01*
X201750000Y-124965000D02*
X201750000Y-125295000D01*
X201750000Y-125295000D02*
X207190000Y-125295000D01*
X207190000Y-125295000D02*
X207190000Y-124965000D01*
X202650000Y-122355000D02*
X202650000Y-125295000D01*
X202770000Y-122355000D02*
X202770000Y-125295000D01*
X202530000Y-122355000D02*
X202530000Y-125295000D01*
%TO.C,U7*%
X179130000Y-95520000D02*
X179130000Y-90060000D01*
X179130000Y-90060000D02*
X128210000Y-90060000D01*
X128210000Y-90060000D02*
X128210000Y-102980000D01*
X128210000Y-102980000D02*
X179130000Y-102980000D01*
X179130000Y-102980000D02*
X179130000Y-97520000D01*
X179130000Y-97520000D02*
G75*
G02*
X179130000Y-95520000I0J1000000D01*
G01*
%TO.C,U5*%
X128210000Y-131810000D02*
X128210000Y-133460000D01*
X128210000Y-133460000D02*
X148650000Y-133460000D01*
X148650000Y-133460000D02*
X148650000Y-128160000D01*
X148650000Y-128160000D02*
X128210000Y-128160000D01*
X128210000Y-128160000D02*
X128210000Y-129810000D01*
X128210000Y-129810000D02*
G75*
G02*
X128210000Y-131810000I0J-1000000D01*
G01*
%TO.C,U4*%
X191710000Y-131810000D02*
X191710000Y-133460000D01*
X191710000Y-133460000D02*
X212150000Y-133460000D01*
X212150000Y-133460000D02*
X212150000Y-128160000D01*
X212150000Y-128160000D02*
X191710000Y-128160000D01*
X191710000Y-128160000D02*
X191710000Y-129810000D01*
X191710000Y-129810000D02*
G75*
G02*
X191710000Y-131810000I0J-1000000D01*
G01*
%TO.C,U3*%
X214570000Y-131810000D02*
X214570000Y-133460000D01*
X214570000Y-133460000D02*
X232470000Y-133460000D01*
X232470000Y-133460000D02*
X232470000Y-128160000D01*
X232470000Y-128160000D02*
X214570000Y-128160000D01*
X214570000Y-128160000D02*
X214570000Y-129810000D01*
X214570000Y-129810000D02*
G75*
G02*
X214570000Y-131810000I0J-1000000D01*
G01*
%TO.C,U2*%
X171390000Y-131810000D02*
X171390000Y-133460000D01*
X171390000Y-133460000D02*
X189290000Y-133460000D01*
X189290000Y-133460000D02*
X189290000Y-128160000D01*
X189290000Y-128160000D02*
X171390000Y-128160000D01*
X171390000Y-128160000D02*
X171390000Y-129810000D01*
X171390000Y-129810000D02*
G75*
G02*
X171390000Y-131810000I0J-1000000D01*
G01*
%TO.C,U1*%
X151070000Y-131810000D02*
X151070000Y-133460000D01*
X151070000Y-133460000D02*
X168970000Y-133460000D01*
X168970000Y-133460000D02*
X168970000Y-128160000D01*
X168970000Y-128160000D02*
X151070000Y-128160000D01*
X151070000Y-128160000D02*
X151070000Y-129810000D01*
X151070000Y-129810000D02*
G75*
G02*
X151070000Y-131810000I0J-1000000D01*
G01*
%TO.C,J1*%
X189170000Y-69790000D02*
X189170000Y-74990000D01*
X219710000Y-69790000D02*
X189170000Y-69790000D01*
X222310000Y-74990000D02*
X189170000Y-74990000D01*
X219710000Y-69790000D02*
X219710000Y-72390000D01*
X219710000Y-72390000D02*
X222310000Y-72390000D01*
X222310000Y-72390000D02*
X222310000Y-74990000D01*
X220980000Y-69790000D02*
X222310000Y-69790000D01*
X222310000Y-69790000D02*
X222310000Y-71120000D01*
%TO.C,U6*%
X232470000Y-102980000D02*
X232470000Y-97520000D01*
X181550000Y-102980000D02*
X232470000Y-102980000D01*
X181550000Y-90060000D02*
X181550000Y-102980000D01*
X232470000Y-90060000D02*
X181550000Y-90060000D01*
X232470000Y-95520000D02*
X232470000Y-90060000D01*
X232470000Y-97520000D02*
G75*
G02*
X232470000Y-95520000I0J1000000D01*
G01*
%TO.C,C14*%
D12*
X139362142Y-73012857D02*
X139409761Y-73060476D01*
X139457380Y-73203333D01*
X139457380Y-73298571D01*
X139409761Y-73441428D01*
X139314523Y-73536666D01*
X139219285Y-73584285D01*
X139028809Y-73631904D01*
X138885952Y-73631904D01*
X138695476Y-73584285D01*
X138600238Y-73536666D01*
X138505000Y-73441428D01*
X138457380Y-73298571D01*
X138457380Y-73203333D01*
X138505000Y-73060476D01*
X138552619Y-73012857D01*
X139457380Y-72060476D02*
X139457380Y-72631904D01*
X139457380Y-72346190D02*
X138457380Y-72346190D01*
X138600238Y-72441428D01*
X138695476Y-72536666D01*
X138743095Y-72631904D01*
X138790714Y-71203333D02*
X139457380Y-71203333D01*
X138409761Y-71441428D02*
X139124047Y-71679523D01*
X139124047Y-71060476D01*
%TO.C,C13*%
X235247142Y-73012857D02*
X235294761Y-73060476D01*
X235342380Y-73203333D01*
X235342380Y-73298571D01*
X235294761Y-73441428D01*
X235199523Y-73536666D01*
X235104285Y-73584285D01*
X234913809Y-73631904D01*
X234770952Y-73631904D01*
X234580476Y-73584285D01*
X234485238Y-73536666D01*
X234390000Y-73441428D01*
X234342380Y-73298571D01*
X234342380Y-73203333D01*
X234390000Y-73060476D01*
X234437619Y-73012857D01*
X235342380Y-72060476D02*
X235342380Y-72631904D01*
X235342380Y-72346190D02*
X234342380Y-72346190D01*
X234485238Y-72441428D01*
X234580476Y-72536666D01*
X234628095Y-72631904D01*
X234342380Y-71727142D02*
X234342380Y-71108095D01*
X234723333Y-71441428D01*
X234723333Y-71298571D01*
X234770952Y-71203333D01*
X234818571Y-71155714D01*
X234913809Y-71108095D01*
X235151904Y-71108095D01*
X235247142Y-71155714D01*
X235294761Y-71203333D01*
X235342380Y-71298571D01*
X235342380Y-71584285D01*
X235294761Y-71679523D01*
X235247142Y-71727142D01*
%TO.C,C12*%
X230517142Y-113327142D02*
X230469523Y-113374761D01*
X230326666Y-113422380D01*
X230231428Y-113422380D01*
X230088571Y-113374761D01*
X229993333Y-113279523D01*
X229945714Y-113184285D01*
X229898095Y-112993809D01*
X229898095Y-112850952D01*
X229945714Y-112660476D01*
X229993333Y-112565238D01*
X230088571Y-112470000D01*
X230231428Y-112422380D01*
X230326666Y-112422380D01*
X230469523Y-112470000D01*
X230517142Y-112517619D01*
X231469523Y-113422380D02*
X230898095Y-113422380D01*
X231183809Y-113422380D02*
X231183809Y-112422380D01*
X231088571Y-112565238D01*
X230993333Y-112660476D01*
X230898095Y-112708095D01*
X231850476Y-112517619D02*
X231898095Y-112470000D01*
X231993333Y-112422380D01*
X232231428Y-112422380D01*
X232326666Y-112470000D01*
X232374285Y-112517619D01*
X232421904Y-112612857D01*
X232421904Y-112708095D01*
X232374285Y-112850952D01*
X231802857Y-113422380D01*
X232421904Y-113422380D01*
%TO.C,C11*%
X172737142Y-130142857D02*
X172784761Y-130190476D01*
X172832380Y-130333333D01*
X172832380Y-130428571D01*
X172784761Y-130571428D01*
X172689523Y-130666666D01*
X172594285Y-130714285D01*
X172403809Y-130761904D01*
X172260952Y-130761904D01*
X172070476Y-130714285D01*
X171975238Y-130666666D01*
X171880000Y-130571428D01*
X171832380Y-130428571D01*
X171832380Y-130333333D01*
X171880000Y-130190476D01*
X171927619Y-130142857D01*
X172832380Y-129190476D02*
X172832380Y-129761904D01*
X172832380Y-129476190D02*
X171832380Y-129476190D01*
X171975238Y-129571428D01*
X172070476Y-129666666D01*
X172118095Y-129761904D01*
X172832380Y-128238095D02*
X172832380Y-128809523D01*
X172832380Y-128523809D02*
X171832380Y-128523809D01*
X171975238Y-128619047D01*
X172070476Y-128714285D01*
X172118095Y-128809523D01*
%TO.C,C10*%
X174657142Y-109237142D02*
X174609523Y-109284761D01*
X174466666Y-109332380D01*
X174371428Y-109332380D01*
X174228571Y-109284761D01*
X174133333Y-109189523D01*
X174085714Y-109094285D01*
X174038095Y-108903809D01*
X174038095Y-108760952D01*
X174085714Y-108570476D01*
X174133333Y-108475238D01*
X174228571Y-108380000D01*
X174371428Y-108332380D01*
X174466666Y-108332380D01*
X174609523Y-108380000D01*
X174657142Y-108427619D01*
X175609523Y-109332380D02*
X175038095Y-109332380D01*
X175323809Y-109332380D02*
X175323809Y-108332380D01*
X175228571Y-108475238D01*
X175133333Y-108570476D01*
X175038095Y-108618095D01*
X176228571Y-108332380D02*
X176323809Y-108332380D01*
X176419047Y-108380000D01*
X176466666Y-108427619D01*
X176514285Y-108522857D01*
X176561904Y-108713333D01*
X176561904Y-108951428D01*
X176514285Y-109141904D01*
X176466666Y-109237142D01*
X176419047Y-109284761D01*
X176323809Y-109332380D01*
X176228571Y-109332380D01*
X176133333Y-109284761D01*
X176085714Y-109237142D01*
X176038095Y-109141904D01*
X175990476Y-108951428D01*
X175990476Y-108713333D01*
X176038095Y-108522857D01*
X176085714Y-108427619D01*
X176133333Y-108380000D01*
X176228571Y-108332380D01*
%TO.C,C9*%
X193057142Y-129666666D02*
X193104761Y-129714285D01*
X193152380Y-129857142D01*
X193152380Y-129952380D01*
X193104761Y-130095238D01*
X193009523Y-130190476D01*
X192914285Y-130238095D01*
X192723809Y-130285714D01*
X192580952Y-130285714D01*
X192390476Y-130238095D01*
X192295238Y-130190476D01*
X192200000Y-130095238D01*
X192152380Y-129952380D01*
X192152380Y-129857142D01*
X192200000Y-129714285D01*
X192247619Y-129666666D01*
X193152380Y-129190476D02*
X193152380Y-129000000D01*
X193104761Y-128904761D01*
X193057142Y-128857142D01*
X192914285Y-128761904D01*
X192723809Y-128714285D01*
X192342857Y-128714285D01*
X192247619Y-128761904D01*
X192200000Y-128809523D01*
X192152380Y-128904761D01*
X192152380Y-129095238D01*
X192200000Y-129190476D01*
X192247619Y-129238095D01*
X192342857Y-129285714D01*
X192580952Y-129285714D01*
X192676190Y-129238095D01*
X192723809Y-129190476D01*
X192771428Y-129095238D01*
X192771428Y-128904761D01*
X192723809Y-128809523D01*
X192676190Y-128761904D01*
X192580952Y-128714285D01*
%TO.C,C8*%
X152417142Y-129666666D02*
X152464761Y-129714285D01*
X152512380Y-129857142D01*
X152512380Y-129952380D01*
X152464761Y-130095238D01*
X152369523Y-130190476D01*
X152274285Y-130238095D01*
X152083809Y-130285714D01*
X151940952Y-130285714D01*
X151750476Y-130238095D01*
X151655238Y-130190476D01*
X151560000Y-130095238D01*
X151512380Y-129952380D01*
X151512380Y-129857142D01*
X151560000Y-129714285D01*
X151607619Y-129666666D01*
X151940952Y-129095238D02*
X151893333Y-129190476D01*
X151845714Y-129238095D01*
X151750476Y-129285714D01*
X151702857Y-129285714D01*
X151607619Y-129238095D01*
X151560000Y-129190476D01*
X151512380Y-129095238D01*
X151512380Y-128904761D01*
X151560000Y-128809523D01*
X151607619Y-128761904D01*
X151702857Y-128714285D01*
X151750476Y-128714285D01*
X151845714Y-128761904D01*
X151893333Y-128809523D01*
X151940952Y-128904761D01*
X151940952Y-129095238D01*
X151988571Y-129190476D01*
X152036190Y-129238095D01*
X152131428Y-129285714D01*
X152321904Y-129285714D01*
X152417142Y-129238095D01*
X152464761Y-129190476D01*
X152512380Y-129095238D01*
X152512380Y-128904761D01*
X152464761Y-128809523D01*
X152417142Y-128761904D01*
X152321904Y-128714285D01*
X152131428Y-128714285D01*
X152036190Y-128761904D01*
X151988571Y-128809523D01*
X151940952Y-128904761D01*
%TO.C,C7*%
X215917142Y-129666666D02*
X215964761Y-129714285D01*
X216012380Y-129857142D01*
X216012380Y-129952380D01*
X215964761Y-130095238D01*
X215869523Y-130190476D01*
X215774285Y-130238095D01*
X215583809Y-130285714D01*
X215440952Y-130285714D01*
X215250476Y-130238095D01*
X215155238Y-130190476D01*
X215060000Y-130095238D01*
X215012380Y-129952380D01*
X215012380Y-129857142D01*
X215060000Y-129714285D01*
X215107619Y-129666666D01*
X215012380Y-129333333D02*
X215012380Y-128666666D01*
X216012380Y-129095238D01*
%TO.C,C6*%
X128922142Y-129666666D02*
X128969761Y-129714285D01*
X129017380Y-129857142D01*
X129017380Y-129952380D01*
X128969761Y-130095238D01*
X128874523Y-130190476D01*
X128779285Y-130238095D01*
X128588809Y-130285714D01*
X128445952Y-130285714D01*
X128255476Y-130238095D01*
X128160238Y-130190476D01*
X128065000Y-130095238D01*
X128017380Y-129952380D01*
X128017380Y-129857142D01*
X128065000Y-129714285D01*
X128112619Y-129666666D01*
X128017380Y-128809523D02*
X128017380Y-129000000D01*
X128065000Y-129095238D01*
X128112619Y-129142857D01*
X128255476Y-129238095D01*
X128445952Y-129285714D01*
X128826904Y-129285714D01*
X128922142Y-129238095D01*
X128969761Y-129190476D01*
X129017380Y-129095238D01*
X129017380Y-128904761D01*
X128969761Y-128809523D01*
X128922142Y-128761904D01*
X128826904Y-128714285D01*
X128588809Y-128714285D01*
X128493571Y-128761904D01*
X128445952Y-128809523D01*
X128398333Y-128904761D01*
X128398333Y-129095238D01*
X128445952Y-129190476D01*
X128493571Y-129238095D01*
X128588809Y-129285714D01*
%TO.C,C5*%
X197913333Y-105472142D02*
X197865714Y-105519761D01*
X197722857Y-105567380D01*
X197627619Y-105567380D01*
X197484761Y-105519761D01*
X197389523Y-105424523D01*
X197341904Y-105329285D01*
X197294285Y-105138809D01*
X197294285Y-104995952D01*
X197341904Y-104805476D01*
X197389523Y-104710238D01*
X197484761Y-104615000D01*
X197627619Y-104567380D01*
X197722857Y-104567380D01*
X197865714Y-104615000D01*
X197913333Y-104662619D01*
X198818095Y-104567380D02*
X198341904Y-104567380D01*
X198294285Y-105043571D01*
X198341904Y-104995952D01*
X198437142Y-104948333D01*
X198675238Y-104948333D01*
X198770476Y-104995952D01*
X198818095Y-105043571D01*
X198865714Y-105138809D01*
X198865714Y-105376904D01*
X198818095Y-105472142D01*
X198770476Y-105519761D01*
X198675238Y-105567380D01*
X198437142Y-105567380D01*
X198341904Y-105519761D01*
X198294285Y-105472142D01*
%TO.C,C4*%
X144653333Y-109872142D02*
X144605714Y-109919761D01*
X144462857Y-109967380D01*
X144367619Y-109967380D01*
X144224761Y-109919761D01*
X144129523Y-109824523D01*
X144081904Y-109729285D01*
X144034285Y-109538809D01*
X144034285Y-109395952D01*
X144081904Y-109205476D01*
X144129523Y-109110238D01*
X144224761Y-109015000D01*
X144367619Y-108967380D01*
X144462857Y-108967380D01*
X144605714Y-109015000D01*
X144653333Y-109062619D01*
X145510476Y-109300714D02*
X145510476Y-109967380D01*
X145272380Y-108919761D02*
X145034285Y-109634047D01*
X145653333Y-109634047D01*
%TO.C,R9*%
X180172380Y-83986666D02*
X179696190Y-84320000D01*
X180172380Y-84558095D02*
X179172380Y-84558095D01*
X179172380Y-84177142D01*
X179220000Y-84081904D01*
X179267619Y-84034285D01*
X179362857Y-83986666D01*
X179505714Y-83986666D01*
X179600952Y-84034285D01*
X179648571Y-84081904D01*
X179696190Y-84177142D01*
X179696190Y-84558095D01*
X180172380Y-83510476D02*
X180172380Y-83320000D01*
X180124761Y-83224761D01*
X180077142Y-83177142D01*
X179934285Y-83081904D01*
X179743809Y-83034285D01*
X179362857Y-83034285D01*
X179267619Y-83081904D01*
X179220000Y-83129523D01*
X179172380Y-83224761D01*
X179172380Y-83415238D01*
X179220000Y-83510476D01*
X179267619Y-83558095D01*
X179362857Y-83605714D01*
X179600952Y-83605714D01*
X179696190Y-83558095D01*
X179743809Y-83510476D01*
X179791428Y-83415238D01*
X179791428Y-83224761D01*
X179743809Y-83129523D01*
X179696190Y-83081904D01*
X179600952Y-83034285D01*
%TO.C,R8*%
X177632380Y-83986666D02*
X177156190Y-84320000D01*
X177632380Y-84558095D02*
X176632380Y-84558095D01*
X176632380Y-84177142D01*
X176680000Y-84081904D01*
X176727619Y-84034285D01*
X176822857Y-83986666D01*
X176965714Y-83986666D01*
X177060952Y-84034285D01*
X177108571Y-84081904D01*
X177156190Y-84177142D01*
X177156190Y-84558095D01*
X177060952Y-83415238D02*
X177013333Y-83510476D01*
X176965714Y-83558095D01*
X176870476Y-83605714D01*
X176822857Y-83605714D01*
X176727619Y-83558095D01*
X176680000Y-83510476D01*
X176632380Y-83415238D01*
X176632380Y-83224761D01*
X176680000Y-83129523D01*
X176727619Y-83081904D01*
X176822857Y-83034285D01*
X176870476Y-83034285D01*
X176965714Y-83081904D01*
X177013333Y-83129523D01*
X177060952Y-83224761D01*
X177060952Y-83415238D01*
X177108571Y-83510476D01*
X177156190Y-83558095D01*
X177251428Y-83605714D01*
X177441904Y-83605714D01*
X177537142Y-83558095D01*
X177584761Y-83510476D01*
X177632380Y-83415238D01*
X177632380Y-83224761D01*
X177584761Y-83129523D01*
X177537142Y-83081904D01*
X177441904Y-83034285D01*
X177251428Y-83034285D01*
X177156190Y-83081904D01*
X177108571Y-83129523D01*
X177060952Y-83224761D01*
%TO.C,R7*%
X175092380Y-83986666D02*
X174616190Y-84320000D01*
X175092380Y-84558095D02*
X174092380Y-84558095D01*
X174092380Y-84177142D01*
X174140000Y-84081904D01*
X174187619Y-84034285D01*
X174282857Y-83986666D01*
X174425714Y-83986666D01*
X174520952Y-84034285D01*
X174568571Y-84081904D01*
X174616190Y-84177142D01*
X174616190Y-84558095D01*
X174092380Y-83653333D02*
X174092380Y-82986666D01*
X175092380Y-83415238D01*
%TO.C,R6*%
X172552380Y-83986666D02*
X172076190Y-84320000D01*
X172552380Y-84558095D02*
X171552380Y-84558095D01*
X171552380Y-84177142D01*
X171600000Y-84081904D01*
X171647619Y-84034285D01*
X171742857Y-83986666D01*
X171885714Y-83986666D01*
X171980952Y-84034285D01*
X172028571Y-84081904D01*
X172076190Y-84177142D01*
X172076190Y-84558095D01*
X171552380Y-83129523D02*
X171552380Y-83320000D01*
X171600000Y-83415238D01*
X171647619Y-83462857D01*
X171790476Y-83558095D01*
X171980952Y-83605714D01*
X172361904Y-83605714D01*
X172457142Y-83558095D01*
X172504761Y-83510476D01*
X172552380Y-83415238D01*
X172552380Y-83224761D01*
X172504761Y-83129523D01*
X172457142Y-83081904D01*
X172361904Y-83034285D01*
X172123809Y-83034285D01*
X172028571Y-83081904D01*
X171980952Y-83129523D01*
X171933333Y-83224761D01*
X171933333Y-83415238D01*
X171980952Y-83510476D01*
X172028571Y-83558095D01*
X172123809Y-83605714D01*
%TO.C,J4*%
X168572380Y-71453333D02*
X169286666Y-71453333D01*
X169429523Y-71500952D01*
X169524761Y-71596190D01*
X169572380Y-71739047D01*
X169572380Y-71834285D01*
X168905714Y-70548571D02*
X169572380Y-70548571D01*
X168524761Y-70786666D02*
X169239047Y-71024761D01*
X169239047Y-70405714D01*
%TO.C,C3*%
X181907142Y-77616666D02*
X181954761Y-77664285D01*
X182002380Y-77807142D01*
X182002380Y-77902380D01*
X181954761Y-78045238D01*
X181859523Y-78140476D01*
X181764285Y-78188095D01*
X181573809Y-78235714D01*
X181430952Y-78235714D01*
X181240476Y-78188095D01*
X181145238Y-78140476D01*
X181050000Y-78045238D01*
X181002380Y-77902380D01*
X181002380Y-77807142D01*
X181050000Y-77664285D01*
X181097619Y-77616666D01*
X181002380Y-77283333D02*
X181002380Y-76664285D01*
X181383333Y-76997619D01*
X181383333Y-76854761D01*
X181430952Y-76759523D01*
X181478571Y-76711904D01*
X181573809Y-76664285D01*
X181811904Y-76664285D01*
X181907142Y-76711904D01*
X181954761Y-76759523D01*
X182002380Y-76854761D01*
X182002380Y-77140476D01*
X181954761Y-77235714D01*
X181907142Y-77283333D01*
%TO.C,C2*%
X174287142Y-77616666D02*
X174334761Y-77664285D01*
X174382380Y-77807142D01*
X174382380Y-77902380D01*
X174334761Y-78045238D01*
X174239523Y-78140476D01*
X174144285Y-78188095D01*
X173953809Y-78235714D01*
X173810952Y-78235714D01*
X173620476Y-78188095D01*
X173525238Y-78140476D01*
X173430000Y-78045238D01*
X173382380Y-77902380D01*
X173382380Y-77807142D01*
X173430000Y-77664285D01*
X173477619Y-77616666D01*
X173477619Y-77235714D02*
X173430000Y-77188095D01*
X173382380Y-77092857D01*
X173382380Y-76854761D01*
X173430000Y-76759523D01*
X173477619Y-76711904D01*
X173572857Y-76664285D01*
X173668095Y-76664285D01*
X173810952Y-76711904D01*
X174382380Y-77283333D01*
X174382380Y-76664285D01*
%TO.C,C1*%
X164973333Y-127017142D02*
X164925714Y-127064761D01*
X164782857Y-127112380D01*
X164687619Y-127112380D01*
X164544761Y-127064761D01*
X164449523Y-126969523D01*
X164401904Y-126874285D01*
X164354285Y-126683809D01*
X164354285Y-126540952D01*
X164401904Y-126350476D01*
X164449523Y-126255238D01*
X164544761Y-126160000D01*
X164687619Y-126112380D01*
X164782857Y-126112380D01*
X164925714Y-126160000D01*
X164973333Y-126207619D01*
X165925714Y-127112380D02*
X165354285Y-127112380D01*
X165640000Y-127112380D02*
X165640000Y-126112380D01*
X165544761Y-126255238D01*
X165449523Y-126350476D01*
X165354285Y-126398095D01*
%TO.C,J2*%
X198966666Y-146624523D02*
X198966666Y-147531666D01*
X198906190Y-147713095D01*
X198785238Y-147834047D01*
X198603809Y-147894523D01*
X198482857Y-147894523D01*
X199510952Y-146745476D02*
X199571428Y-146685000D01*
X199692380Y-146624523D01*
X199994761Y-146624523D01*
X200115714Y-146685000D01*
X200176190Y-146745476D01*
X200236666Y-146866428D01*
X200236666Y-146987380D01*
X200176190Y-147168809D01*
X199450476Y-147894523D01*
X200236666Y-147894523D01*
X185389761Y-147773571D02*
X185329285Y-147834047D01*
X185147857Y-147894523D01*
X185026904Y-147894523D01*
X184845476Y-147834047D01*
X184724523Y-147713095D01*
X184664047Y-147592142D01*
X184603571Y-147350238D01*
X184603571Y-147168809D01*
X184664047Y-146926904D01*
X184724523Y-146805952D01*
X184845476Y-146685000D01*
X185026904Y-146624523D01*
X185147857Y-146624523D01*
X185329285Y-146685000D01*
X185389761Y-146745476D01*
X186115476Y-147894523D02*
X185994523Y-147834047D01*
X185934047Y-147773571D01*
X185873571Y-147652619D01*
X185873571Y-147289761D01*
X185934047Y-147168809D01*
X185994523Y-147108333D01*
X186115476Y-147047857D01*
X186296904Y-147047857D01*
X186417857Y-147108333D01*
X186478333Y-147168809D01*
X186538809Y-147289761D01*
X186538809Y-147652619D01*
X186478333Y-147773571D01*
X186417857Y-147834047D01*
X186296904Y-147894523D01*
X186115476Y-147894523D01*
X187083095Y-147047857D02*
X187083095Y-147894523D01*
X187083095Y-147168809D02*
X187143571Y-147108333D01*
X187264523Y-147047857D01*
X187445952Y-147047857D01*
X187566904Y-147108333D01*
X187627380Y-147229285D01*
X187627380Y-147894523D01*
X188232142Y-147047857D02*
X188232142Y-147894523D01*
X188232142Y-147168809D02*
X188292619Y-147108333D01*
X188413571Y-147047857D01*
X188595000Y-147047857D01*
X188715952Y-147108333D01*
X188776428Y-147229285D01*
X188776428Y-147894523D01*
X189078809Y-148015476D02*
X190046428Y-148015476D01*
X190590714Y-146624523D02*
X190711666Y-146624523D01*
X190832619Y-146685000D01*
X190893095Y-146745476D01*
X190953571Y-146866428D01*
X191014047Y-147108333D01*
X191014047Y-147410714D01*
X190953571Y-147652619D01*
X190893095Y-147773571D01*
X190832619Y-147834047D01*
X190711666Y-147894523D01*
X190590714Y-147894523D01*
X190469761Y-147834047D01*
X190409285Y-147773571D01*
X190348809Y-147652619D01*
X190288333Y-147410714D01*
X190288333Y-147108333D01*
X190348809Y-146866428D01*
X190409285Y-146745476D01*
X190469761Y-146685000D01*
X190590714Y-146624523D01*
X191497857Y-146745476D02*
X191558333Y-146685000D01*
X191679285Y-146624523D01*
X191981666Y-146624523D01*
X192102619Y-146685000D01*
X192163095Y-146745476D01*
X192223571Y-146866428D01*
X192223571Y-146987380D01*
X192163095Y-147168809D01*
X191437380Y-147894523D01*
X192223571Y-147894523D01*
X192646904Y-147894523D02*
X193312142Y-147047857D01*
X192646904Y-147047857D02*
X193312142Y-147894523D01*
X193735476Y-146745476D02*
X193795952Y-146685000D01*
X193916904Y-146624523D01*
X194219285Y-146624523D01*
X194340238Y-146685000D01*
X194400714Y-146745476D01*
X194461190Y-146866428D01*
X194461190Y-146987380D01*
X194400714Y-147168809D01*
X193675000Y-147894523D01*
X194461190Y-147894523D01*
X195610238Y-146624523D02*
X195005476Y-146624523D01*
X194945000Y-147229285D01*
X195005476Y-147168809D01*
X195126428Y-147108333D01*
X195428809Y-147108333D01*
X195549761Y-147168809D01*
X195610238Y-147229285D01*
X195670714Y-147350238D01*
X195670714Y-147652619D01*
X195610238Y-147773571D01*
X195549761Y-147834047D01*
X195428809Y-147894523D01*
X195126428Y-147894523D01*
X195005476Y-147834047D01*
X194945000Y-147773571D01*
X195912619Y-148015476D02*
X196880238Y-148015476D01*
X197908333Y-147773571D02*
X197847857Y-147834047D01*
X197666428Y-147894523D01*
X197545476Y-147894523D01*
X197364047Y-147834047D01*
X197243095Y-147713095D01*
X197182619Y-147592142D01*
X197122142Y-147350238D01*
X197122142Y-147168809D01*
X197182619Y-146926904D01*
X197243095Y-146805952D01*
X197364047Y-146685000D01*
X197545476Y-146624523D01*
X197666428Y-146624523D01*
X197847857Y-146685000D01*
X197908333Y-146745476D01*
X198634047Y-147894523D02*
X198513095Y-147834047D01*
X198452619Y-147773571D01*
X198392142Y-147652619D01*
X198392142Y-147289761D01*
X198452619Y-147168809D01*
X198513095Y-147108333D01*
X198634047Y-147047857D01*
X198815476Y-147047857D01*
X198936428Y-147108333D01*
X198996904Y-147168809D01*
X199057380Y-147289761D01*
X199057380Y-147652619D01*
X198996904Y-147773571D01*
X198936428Y-147834047D01*
X198815476Y-147894523D01*
X198634047Y-147894523D01*
X200145952Y-147047857D02*
X200145952Y-147894523D01*
X199601666Y-147047857D02*
X199601666Y-147713095D01*
X199662142Y-147834047D01*
X199783095Y-147894523D01*
X199964523Y-147894523D01*
X200085476Y-147834047D01*
X200145952Y-147773571D01*
X200750714Y-147047857D02*
X200750714Y-147894523D01*
X200750714Y-147168809D02*
X200811190Y-147108333D01*
X200932142Y-147047857D01*
X201113571Y-147047857D01*
X201234523Y-147108333D01*
X201295000Y-147229285D01*
X201295000Y-147894523D01*
X201718333Y-147047857D02*
X202202142Y-147047857D01*
X201899761Y-146624523D02*
X201899761Y-147713095D01*
X201960238Y-147834047D01*
X202081190Y-147894523D01*
X202202142Y-147894523D01*
X203109285Y-147834047D02*
X202988333Y-147894523D01*
X202746428Y-147894523D01*
X202625476Y-147834047D01*
X202565000Y-147713095D01*
X202565000Y-147229285D01*
X202625476Y-147108333D01*
X202746428Y-147047857D01*
X202988333Y-147047857D01*
X203109285Y-147108333D01*
X203169761Y-147229285D01*
X203169761Y-147350238D01*
X202565000Y-147471190D01*
X203714047Y-147894523D02*
X203714047Y-147047857D01*
X203714047Y-147289761D02*
X203774523Y-147168809D01*
X203835000Y-147108333D01*
X203955952Y-147047857D01*
X204076904Y-147047857D01*
X204197857Y-148015476D02*
X205165476Y-148015476D01*
X206193571Y-147773571D02*
X206133095Y-147834047D01*
X205951666Y-147894523D01*
X205830714Y-147894523D01*
X205649285Y-147834047D01*
X205528333Y-147713095D01*
X205467857Y-147592142D01*
X205407380Y-147350238D01*
X205407380Y-147168809D01*
X205467857Y-146926904D01*
X205528333Y-146805952D01*
X205649285Y-146685000D01*
X205830714Y-146624523D01*
X205951666Y-146624523D01*
X206133095Y-146685000D01*
X206193571Y-146745476D01*
X206919285Y-147894523D02*
X206798333Y-147834047D01*
X206737857Y-147713095D01*
X206737857Y-146624523D01*
X207584523Y-147894523D02*
X207463571Y-147834047D01*
X207403095Y-147773571D01*
X207342619Y-147652619D01*
X207342619Y-147289761D01*
X207403095Y-147168809D01*
X207463571Y-147108333D01*
X207584523Y-147047857D01*
X207765952Y-147047857D01*
X207886904Y-147108333D01*
X207947380Y-147168809D01*
X208007857Y-147289761D01*
X208007857Y-147652619D01*
X207947380Y-147773571D01*
X207886904Y-147834047D01*
X207765952Y-147894523D01*
X207584523Y-147894523D01*
X209096428Y-147834047D02*
X208975476Y-147894523D01*
X208733571Y-147894523D01*
X208612619Y-147834047D01*
X208552142Y-147773571D01*
X208491666Y-147652619D01*
X208491666Y-147289761D01*
X208552142Y-147168809D01*
X208612619Y-147108333D01*
X208733571Y-147047857D01*
X208975476Y-147047857D01*
X209096428Y-147108333D01*
X209640714Y-147894523D02*
X209640714Y-146624523D01*
X209761666Y-147410714D02*
X210124523Y-147894523D01*
X210124523Y-147047857D02*
X209640714Y-147531666D01*
X210547857Y-147047857D02*
X210789761Y-147894523D01*
X211031666Y-147289761D01*
X211273571Y-147894523D01*
X211515476Y-147047857D01*
X211999285Y-147894523D02*
X211999285Y-147047857D01*
X211999285Y-146624523D02*
X211938809Y-146685000D01*
X211999285Y-146745476D01*
X212059761Y-146685000D01*
X211999285Y-146624523D01*
X211999285Y-146745476D01*
X212543571Y-147834047D02*
X212664523Y-147894523D01*
X212906428Y-147894523D01*
X213027380Y-147834047D01*
X213087857Y-147713095D01*
X213087857Y-147652619D01*
X213027380Y-147531666D01*
X212906428Y-147471190D01*
X212725000Y-147471190D01*
X212604047Y-147410714D01*
X212543571Y-147289761D01*
X212543571Y-147229285D01*
X212604047Y-147108333D01*
X212725000Y-147047857D01*
X212906428Y-147047857D01*
X213027380Y-147108333D01*
X214115952Y-147834047D02*
X213995000Y-147894523D01*
X213753095Y-147894523D01*
X213632142Y-147834047D01*
X213571666Y-147713095D01*
X213571666Y-147229285D01*
X213632142Y-147108333D01*
X213753095Y-147047857D01*
X213995000Y-147047857D01*
X214115952Y-147108333D01*
X214176428Y-147229285D01*
X214176428Y-147350238D01*
X213571666Y-147471190D01*
%TO.C,RV1*%
X156884761Y-117772380D02*
X156551428Y-117296190D01*
X156313333Y-117772380D02*
X156313333Y-116772380D01*
X156694285Y-116772380D01*
X156789523Y-116820000D01*
X156837142Y-116867619D01*
X156884761Y-116962857D01*
X156884761Y-117105714D01*
X156837142Y-117200952D01*
X156789523Y-117248571D01*
X156694285Y-117296190D01*
X156313333Y-117296190D01*
X157170476Y-116772380D02*
X157503809Y-117772380D01*
X157837142Y-116772380D01*
X158694285Y-117772380D02*
X158122857Y-117772380D01*
X158408571Y-117772380D02*
X158408571Y-116772380D01*
X158313333Y-116915238D01*
X158218095Y-117010476D01*
X158122857Y-117058095D01*
%TO.C,R5*%
X126832380Y-73826666D02*
X126356190Y-74160000D01*
X126832380Y-74398095D02*
X125832380Y-74398095D01*
X125832380Y-74017142D01*
X125880000Y-73921904D01*
X125927619Y-73874285D01*
X126022857Y-73826666D01*
X126165714Y-73826666D01*
X126260952Y-73874285D01*
X126308571Y-73921904D01*
X126356190Y-74017142D01*
X126356190Y-74398095D01*
X125832380Y-72921904D02*
X125832380Y-73398095D01*
X126308571Y-73445714D01*
X126260952Y-73398095D01*
X126213333Y-73302857D01*
X126213333Y-73064761D01*
X126260952Y-72969523D01*
X126308571Y-72921904D01*
X126403809Y-72874285D01*
X126641904Y-72874285D01*
X126737142Y-72921904D01*
X126784761Y-72969523D01*
X126832380Y-73064761D01*
X126832380Y-73302857D01*
X126784761Y-73398095D01*
X126737142Y-73445714D01*
%TO.C,R4*%
X131912380Y-73826666D02*
X131436190Y-74160000D01*
X131912380Y-74398095D02*
X130912380Y-74398095D01*
X130912380Y-74017142D01*
X130960000Y-73921904D01*
X131007619Y-73874285D01*
X131102857Y-73826666D01*
X131245714Y-73826666D01*
X131340952Y-73874285D01*
X131388571Y-73921904D01*
X131436190Y-74017142D01*
X131436190Y-74398095D01*
X131245714Y-72969523D02*
X131912380Y-72969523D01*
X130864761Y-73207619D02*
X131579047Y-73445714D01*
X131579047Y-72826666D01*
%TO.C,R3*%
X203033333Y-116007380D02*
X202700000Y-115531190D01*
X202461904Y-116007380D02*
X202461904Y-115007380D01*
X202842857Y-115007380D01*
X202938095Y-115055000D01*
X202985714Y-115102619D01*
X203033333Y-115197857D01*
X203033333Y-115340714D01*
X202985714Y-115435952D01*
X202938095Y-115483571D01*
X202842857Y-115531190D01*
X202461904Y-115531190D01*
X203366666Y-115007380D02*
X203985714Y-115007380D01*
X203652380Y-115388333D01*
X203795238Y-115388333D01*
X203890476Y-115435952D01*
X203938095Y-115483571D01*
X203985714Y-115578809D01*
X203985714Y-115816904D01*
X203938095Y-115912142D01*
X203890476Y-115959761D01*
X203795238Y-116007380D01*
X203509523Y-116007380D01*
X203414285Y-115959761D01*
X203366666Y-115912142D01*
%TO.C,R2*%
X121752380Y-73826666D02*
X121276190Y-74160000D01*
X121752380Y-74398095D02*
X120752380Y-74398095D01*
X120752380Y-74017142D01*
X120800000Y-73921904D01*
X120847619Y-73874285D01*
X120942857Y-73826666D01*
X121085714Y-73826666D01*
X121180952Y-73874285D01*
X121228571Y-73921904D01*
X121276190Y-74017142D01*
X121276190Y-74398095D01*
X120847619Y-73445714D02*
X120800000Y-73398095D01*
X120752380Y-73302857D01*
X120752380Y-73064761D01*
X120800000Y-72969523D01*
X120847619Y-72921904D01*
X120942857Y-72874285D01*
X121038095Y-72874285D01*
X121180952Y-72921904D01*
X121752380Y-73493333D01*
X121752380Y-72874285D01*
%TO.C,R1*%
X164933333Y-120452380D02*
X164600000Y-119976190D01*
X164361904Y-120452380D02*
X164361904Y-119452380D01*
X164742857Y-119452380D01*
X164838095Y-119500000D01*
X164885714Y-119547619D01*
X164933333Y-119642857D01*
X164933333Y-119785714D01*
X164885714Y-119880952D01*
X164838095Y-119928571D01*
X164742857Y-119976190D01*
X164361904Y-119976190D01*
X165885714Y-120452380D02*
X165314285Y-120452380D01*
X165600000Y-120452380D02*
X165600000Y-119452380D01*
X165504761Y-119595238D01*
X165409523Y-119690476D01*
X165314285Y-119738095D01*
%TO.C,J3*%
X112696666Y-83482380D02*
X112696666Y-84196666D01*
X112649047Y-84339523D01*
X112553809Y-84434761D01*
X112410952Y-84482380D01*
X112315714Y-84482380D01*
X113077619Y-83482380D02*
X113696666Y-83482380D01*
X113363333Y-83863333D01*
X113506190Y-83863333D01*
X113601428Y-83910952D01*
X113649047Y-83958571D01*
X113696666Y-84053809D01*
X113696666Y-84291904D01*
X113649047Y-84387142D01*
X113601428Y-84434761D01*
X113506190Y-84482380D01*
X113220476Y-84482380D01*
X113125238Y-84434761D01*
X113077619Y-84387142D01*
%TO.C,D3*%
X113561904Y-78982380D02*
X113561904Y-77982380D01*
X113800000Y-77982380D01*
X113942857Y-78030000D01*
X114038095Y-78125238D01*
X114085714Y-78220476D01*
X114133333Y-78410952D01*
X114133333Y-78553809D01*
X114085714Y-78744285D01*
X114038095Y-78839523D01*
X113942857Y-78934761D01*
X113800000Y-78982380D01*
X113561904Y-78982380D01*
X114466666Y-77982380D02*
X115085714Y-77982380D01*
X114752380Y-78363333D01*
X114895238Y-78363333D01*
X114990476Y-78410952D01*
X115038095Y-78458571D01*
X115085714Y-78553809D01*
X115085714Y-78791904D01*
X115038095Y-78887142D01*
X114990476Y-78934761D01*
X114895238Y-78982380D01*
X114609523Y-78982380D01*
X114514285Y-78934761D01*
X114466666Y-78887142D01*
%TO.C,D2*%
X203731904Y-118632380D02*
X203731904Y-117632380D01*
X203970000Y-117632380D01*
X204112857Y-117680000D01*
X204208095Y-117775238D01*
X204255714Y-117870476D01*
X204303333Y-118060952D01*
X204303333Y-118203809D01*
X204255714Y-118394285D01*
X204208095Y-118489523D01*
X204112857Y-118584761D01*
X203970000Y-118632380D01*
X203731904Y-118632380D01*
X204684285Y-117727619D02*
X204731904Y-117680000D01*
X204827142Y-117632380D01*
X205065238Y-117632380D01*
X205160476Y-117680000D01*
X205208095Y-117727619D01*
X205255714Y-117822857D01*
X205255714Y-117918095D01*
X205208095Y-118060952D01*
X204636666Y-118632380D01*
X205255714Y-118632380D01*
X200398095Y-119202380D02*
X200398095Y-118202380D01*
X200969523Y-119202380D02*
X200540952Y-118630952D01*
X200969523Y-118202380D02*
X200398095Y-118773809D01*
%TO.C,D1*%
X203731904Y-121807380D02*
X203731904Y-120807380D01*
X203970000Y-120807380D01*
X204112857Y-120855000D01*
X204208095Y-120950238D01*
X204255714Y-121045476D01*
X204303333Y-121235952D01*
X204303333Y-121378809D01*
X204255714Y-121569285D01*
X204208095Y-121664523D01*
X204112857Y-121759761D01*
X203970000Y-121807380D01*
X203731904Y-121807380D01*
X205255714Y-121807380D02*
X204684285Y-121807380D01*
X204970000Y-121807380D02*
X204970000Y-120807380D01*
X204874761Y-120950238D01*
X204779523Y-121045476D01*
X204684285Y-121093095D01*
X200398095Y-122377380D02*
X200398095Y-121377380D01*
X200969523Y-122377380D02*
X200540952Y-121805952D01*
X200969523Y-121377380D02*
X200398095Y-121948809D01*
%TO.C,U7*%
X179582380Y-97281904D02*
X180391904Y-97281904D01*
X180487142Y-97234285D01*
X180534761Y-97186666D01*
X180582380Y-97091428D01*
X180582380Y-96900952D01*
X180534761Y-96805714D01*
X180487142Y-96758095D01*
X180391904Y-96710476D01*
X179582380Y-96710476D01*
X179582380Y-96329523D02*
X179582380Y-95662857D01*
X180582380Y-96091428D01*
%TO.C,U5*%
X126662380Y-131571904D02*
X127471904Y-131571904D01*
X127567142Y-131524285D01*
X127614761Y-131476666D01*
X127662380Y-131381428D01*
X127662380Y-131190952D01*
X127614761Y-131095714D01*
X127567142Y-131048095D01*
X127471904Y-131000476D01*
X126662380Y-131000476D01*
X126662380Y-130048095D02*
X126662380Y-130524285D01*
X127138571Y-130571904D01*
X127090952Y-130524285D01*
X127043333Y-130429047D01*
X127043333Y-130190952D01*
X127090952Y-130095714D01*
X127138571Y-130048095D01*
X127233809Y-130000476D01*
X127471904Y-130000476D01*
X127567142Y-130048095D01*
X127614761Y-130095714D01*
X127662380Y-130190952D01*
X127662380Y-130429047D01*
X127614761Y-130524285D01*
X127567142Y-130571904D01*
%TO.C,U4*%
X190162380Y-131571904D02*
X190971904Y-131571904D01*
X191067142Y-131524285D01*
X191114761Y-131476666D01*
X191162380Y-131381428D01*
X191162380Y-131190952D01*
X191114761Y-131095714D01*
X191067142Y-131048095D01*
X190971904Y-131000476D01*
X190162380Y-131000476D01*
X190495714Y-130095714D02*
X191162380Y-130095714D01*
X190114761Y-130333809D02*
X190829047Y-130571904D01*
X190829047Y-129952857D01*
%TO.C,U3*%
X213022380Y-131571904D02*
X213831904Y-131571904D01*
X213927142Y-131524285D01*
X213974761Y-131476666D01*
X214022380Y-131381428D01*
X214022380Y-131190952D01*
X213974761Y-131095714D01*
X213927142Y-131048095D01*
X213831904Y-131000476D01*
X213022380Y-131000476D01*
X213022380Y-130619523D02*
X213022380Y-130000476D01*
X213403333Y-130333809D01*
X213403333Y-130190952D01*
X213450952Y-130095714D01*
X213498571Y-130048095D01*
X213593809Y-130000476D01*
X213831904Y-130000476D01*
X213927142Y-130048095D01*
X213974761Y-130095714D01*
X214022380Y-130190952D01*
X214022380Y-130476666D01*
X213974761Y-130571904D01*
X213927142Y-130619523D01*
%TO.C,U2*%
X169842380Y-131571904D02*
X170651904Y-131571904D01*
X170747142Y-131524285D01*
X170794761Y-131476666D01*
X170842380Y-131381428D01*
X170842380Y-131190952D01*
X170794761Y-131095714D01*
X170747142Y-131048095D01*
X170651904Y-131000476D01*
X169842380Y-131000476D01*
X169937619Y-130571904D02*
X169890000Y-130524285D01*
X169842380Y-130429047D01*
X169842380Y-130190952D01*
X169890000Y-130095714D01*
X169937619Y-130048095D01*
X170032857Y-130000476D01*
X170128095Y-130000476D01*
X170270952Y-130048095D01*
X170842380Y-130619523D01*
X170842380Y-130000476D01*
%TO.C,U1*%
X149522380Y-131571904D02*
X150331904Y-131571904D01*
X150427142Y-131524285D01*
X150474761Y-131476666D01*
X150522380Y-131381428D01*
X150522380Y-131190952D01*
X150474761Y-131095714D01*
X150427142Y-131048095D01*
X150331904Y-131000476D01*
X149522380Y-131000476D01*
X150522380Y-130000476D02*
X150522380Y-130571904D01*
X150522380Y-130286190D02*
X149522380Y-130286190D01*
X149665238Y-130381428D01*
X149760476Y-130476666D01*
X149808095Y-130571904D01*
%TO.C,J1*%
X222762380Y-72723333D02*
X223476666Y-72723333D01*
X223619523Y-72770952D01*
X223714761Y-72866190D01*
X223762380Y-73009047D01*
X223762380Y-73104285D01*
X223762380Y-71723333D02*
X223762380Y-72294761D01*
X223762380Y-72009047D02*
X222762380Y-72009047D01*
X222905238Y-72104285D01*
X223000476Y-72199523D01*
X223048095Y-72294761D01*
%TO.C,U6*%
X232922380Y-97281904D02*
X233731904Y-97281904D01*
X233827142Y-97234285D01*
X233874761Y-97186666D01*
X233922380Y-97091428D01*
X233922380Y-96900952D01*
X233874761Y-96805714D01*
X233827142Y-96758095D01*
X233731904Y-96710476D01*
X232922380Y-96710476D01*
X232922380Y-95805714D02*
X232922380Y-95996190D01*
X232970000Y-96091428D01*
X233017619Y-96139047D01*
X233160476Y-96234285D01*
X233350952Y-96281904D01*
X233731904Y-96281904D01*
X233827142Y-96234285D01*
X233874761Y-96186666D01*
X233922380Y-96091428D01*
X233922380Y-95900952D01*
X233874761Y-95805714D01*
X233827142Y-95758095D01*
X233731904Y-95710476D01*
X233493809Y-95710476D01*
X233398571Y-95758095D01*
X233350952Y-95805714D01*
X233303333Y-95900952D01*
X233303333Y-96091428D01*
X233350952Y-96186666D01*
X233398571Y-96234285D01*
X233493809Y-96281904D01*
%TD*%
M02*
