  0
SECTION
  2
TABLES
  0
TABLE
  2
LTYPE
 70
      2
  0
LTYPE
  2
CONTINUOUS
 70
     64
  3
Solid Line
 72
     65
 73
      0
 40
0.0
  0
LTYPE
  2
HIDDEN
 70
     64
  3
- - - - - - - - - - - - 
 72
     65
 73
2
 40
0.375
 49
0.25
 49
-0.125
  0
ENDTAB
  0
TABLE
  2
LAYER
 70
    16
  0
LAYER
  2
0
 70
     0
 62
7
 6
HIDDEN
  0
LAYER
  2
1
 70
     0
 62
7
 6
CONTINUOUS
0
LAYER
  2
2
 70
     0
 62
7
 6
CONTINUOUS
0
LAYER
  2
3
 70
     0
 62
7
 6
CONTINUOUS
0
LAYER
  2
4
 70
     0
 62
7
 6
CONTINUOUS
0
LAYER
  2
5
 70
     0
 62
7
 6
CONTINUOUS
0
LAYER
  2
6
 70
     0
 62
7
 6
CONTINUOUS
0
LAYER
  2
7
 70
     0
 62
7
 6
CONTINUOUS
0
LAYER
  2
8
 70
     0
 62
7
 6
CONTINUOUS
0
LAYER
  2
9
 70
     0
 62
7
 6
CONTINUOUS
0
LAYER
  2
10
 70
     0
 62
7
 6
CONTINUOUS
0
LAYER
  2
11
 70
     0
 62
7
 6
CONTINUOUS
0
LAYER
  2
12
 70
     0
 62
7
 6
CONTINUOUS
0
LAYER
  2
13
 70
     0
 62
7
 6
CONTINUOUS
0
LAYER
  2
14
 70
     0
 62
7
 6
CONTINUOUS
0
LAYER
  2
15
 70
     0
 62
7
 6
CONTINUOUS
0
ENDTAB
  0
TABLE
  2
STYLE
 70
     1
  0
STYLE
  2
STANDARD
 70
     0
 40
0.0
 41
1.0
 50
0.0
 71
     0
 42
1.0
  3
TXT
  0
ENDTAB
  0
TABLE
  2
VIEW
 70
     0
  0
ENDTAB
  0
ENDSEC
  0
SECTION
  2
ENTITIES
  0
LINE
  8
1
 10
1.3
 20
9.1
 11
2.6
 21
9.1
  0
LINE
  8
1
 10
2.6
 20
8.9
 11
3.0
 21
8.9
  0
LINE
  8
1
 10
3.0
 20
8.6
 11
1.5
 21
8.6
  0
LINE
  8
1
 10
1.9
 20
8.4
 11
3.0
 21
8.4
  0
LINE
  8
1
 10
3.0
 20
8.3
 11
2.9
 21
8.3
  0
LINE
  8
1
 10
3.0
 20
8.2
 11
2.5
 21
8.2
  0
LINE
  8
1
 10
2.5
 20
8.1
 11
3.0
 21
8.1
  0
LINE
  8
1
 10
3.0
 20
8.0
 11
2.5
 21
8.0
  0
LINE
  8
1
 10
2.5
 20
7.8
 11
3.0
 21
7.8
  0
LINE
  8
1
 10
3.0
 20
7.7
 11
2.5
 21
7.7
  0
LINE
  8
1
 10
2.5
 20
7.6
 11
3.0
 21
7.6
  0
LINE
  8
1
 10
3.0
 20
7.5
 11
2.5
 21
7.5
  0
LINE
  8
1
 10
2.5
 20
7.4
 11
3.0
 21
7.4
  0
LINE
  8
1
 10
3.0
 20
7.3
 11
2.5
 21
7.3
  0
LINE
  8
1
 10
2.5
 20
7.2
 11
3.0
 21
7.2
  0
LINE
  8
1
 10
3.0
 20
7.1
 11
2.5
 21
7.1
  0
LINE
  8
1
 10
2.9
 20
6.6
 11
3.0
 21
6.6
  0
LINE
  8
1
 10
3.0
 20
5.6
 11
2.0
 21
5.6
  0
LINE
  8
1
 10
2.5
 20
5.5
 11
3.0
 21
5.5
  0
LINE
  8
1
 10
3.0
 20
5.4
 11
2.5
 21
5.4
  0
LINE
  8
1
 10
2.5
 20
5.3
 11
3.0
 21
5.3
  0
LINE
  8
1
 10
3.0
 20
5.1
 11
2.5
 21
5.1
  0
LINE
  8
1
 10
2.5
 20
5.0
 11
3.0
 21
5.0
  0
LINE
  8
1
 10
3.0
 20
4.9
 11
2.0
 21
4.9
  0
LINE
  8
1
 10
4.1
 20
5.2
 11
4.6
 21
5.2
  0
LINE
  8
1
 10
4.6
 20
5.3
 11
4.1
 21
5.3
  0
LINE
  8
1
 10
4.1
 20
5.4
 11
4.6
 21
5.4
  0
LINE
  8
1
 10
4.6
 20
5.5
 11
4.1
 21
5.5
  0
LINE
  8
1
 10
4.8
 20
6.6
 11
6.2
 21
6.6
  0
LINE
  8
1
 10
5.3
 20
6.7
 11
4.8
 21
6.7
  0
LINE
  8
1
 10
4.8
 20
6.8
 11
5.3
 21
6.8
  0
LINE
  8
1
 10
5.3
 20
6.9
 11
4.8
 21
6.9
  0
LINE
  8
1
 10
4.8
 20
7.1
 11
5.3
 21
7.1
  0
LINE
  8
1
 10
5.3
 20
7.2
 11
4.8
 21
7.2
  0
LINE
  8
1
 10
4.8
 20
7.3
 11
5.3
 21
7.3
  0
LINE
  8
1
 10
5.3
 20
7.4
 11
4.8
 21
7.4
  0
LINE
  8
1
 10
4.8
 20
7.5
 11
5.3
 21
7.5
  0
LINE
  8
1
 10
5.3
 20
7.6
 11
4.8
 21
7.6
  0
LINE
  8
1
 10
4.8
 20
7.7
 11
5.3
 21
7.7
  0
LINE
  8
1
 10
5.3
 20
7.8
 11
4.8
 21
7.8
  0
LINE
  8
1
 10
4.8
 20
8.0
 11
5.3
 21
8.0
  0
LINE
  8
1
 10
5.3
 20
8.1
 11
4.8
 21
8.1
  0
LINE
  8
1
 10
4.8
 20
8.2
 11
5.3
 21
8.2
  0
LINE
  8
1
 10
5.3
 20
8.3
 11
4.8
 21
8.3
  0
LINE
  8
1
 10
4.8
 20
8.4
 11
5.3
 21
8.4
  0
LINE
  8
1
 10
5.3
 20
8.5
 11
4.8
 21
8.5
  0
LINE
  8
1
 10
4.8
 20
8.6
 11
5.3
 21
8.6
  0
LINE
  8
1
 10
5.3
 20
8.7
 11
4.8
 21
8.7
  0
LINE
  8
1
 10
5.8
 20
8.7
 11
6.3
 21
8.7
  0
LINE
  8
1
 10
6.3
 20
8.6
 11
5.8
 21
8.6
  0
LINE
  8
1
 10
5.8
 20
8.5
 11
6.3
 21
8.5
  0
LINE
  8
1
 10
6.3
 20
8.4
 11
5.8
 21
8.4
  0
LINE
  8
1
 10
5.8
 20
8.3
 11
6.3
 21
8.3
  0
LINE
  8
1
 10
6.3
 20
8.2
 11
5.8
 21
8.2
  0
LINE
  8
1
 10
5.8
 20
8.1
 11
6.3
 21
8.1
  0
LINE
  8
1
 10
6.3
 20
8.0
 11
5.8
 21
8.0
  0
LINE
  8
1
 10
5.8
 20
7.8
 11
6.3
 21
7.8
  0
LINE
  8
1
 10
6.3
 20
7.7
 11
6.2
 21
7.7
  0
LINE
  8
1
 10
7.5
 20
8.0
 11
8.0
 21
8.0
  0
LINE
  8
1
 10
8.0
 20
8.1
 11
7.5
 21
8.1
  0
LINE
  8
1
 10
7.5
 20
8.2
 11
8.0
 21
8.2
  0
LINE
  8
1
 10
8.0
 20
8.3
 11
7.5
 21
8.3
  0
LINE
  8
1
 10
7.5
 20
8.4
 11
8.0
 21
8.4
  0
LINE
  8
1
 10
8.0
 20
8.5
 11
7.5
 21
8.5
  0
LINE
  8
1
 10
7.5
 20
8.6
 11
8.0
 21
8.6
  0
LINE
  8
1
 10
8.0
 20
8.7
 11
7.5
 21
8.7
  0
LINE
  8
1
 10
7.7
 20
6.1
 11
7.2
 21
6.1
  0
LINE
  8
1
 10
7.3
 20
5.6
 11
7.7
 21
5.6
  0
LINE
  8
1
 10
7.4
 20
5.4
 11
6.9
 21
5.4
  0
LINE
  8
1
 10
6.9
 20
4.9
 11
7.4
 21
4.9
  0
LINE
  8
1
 10
8.3
 20
4.9
 11
8.8
 21
4.9
  0
LINE
  8
1
 10
9.0
 20
5.2
 11
9.5
 21
5.2
  0
LINE
  8
1
 10
9.5
 20
5.1
 11
9.4
 21
5.1
  0
LINE
  8
1
 10
9.3
 20
4.9
 11
9.5
 21
4.9
  0
LINE
  8
1
 10
9.5
 20
5.3
 11
9.0
 21
5.3
  0
LINE
  8
1
 10
8.8
 20
5.4
 11
8.3
 21
5.4
  0
LINE
  8
1
 10
10.8
 20
7.2
 11
11.7
 21
7.2
  0
LINE
  8
1
 10
11.7
 20
7.3
 11
11.6
 21
7.3
  0
LINE
  8
1
 10
11.7
 20
7.4
 11
11.2
 21
7.4
  0
LINE
  8
1
 10
11.2
 20
7.7
 11
11.7
 21
7.7
  0
LINE
  8
1
 10
11.7
 20
7.6
 11
11.6
 21
7.6
  0
LINE
  8
1
 10
11.7
 20
7.8
 11
11.2
 21
7.8
  0
LINE
  8
1
 10
11.2
 20
7.9
 11
11.7
 21
7.9
  0
LINE
  8
1
 10
11.7
 20
8.0
 11
11.2
 21
8.0
  0
LINE
  8
1
 10
11.2
 20
8.1
 11
11.7
 21
8.1
  0
LINE
  8
1
 10
11.7
 20
8.2
 11
11.2
 21
8.2
  0
LINE
  8
1
 10
11.2
 20
8.3
 11
11.7
 21
8.3
  0
LINE
  8
1
 10
11.7
 20
8.4
 11
11.2
 21
8.4
  0
LINE
  8
1
 10
11.2
 20
8.5
 11
11.7
 21
8.5
  0
LINE
  8
1
 10
11.7
 20
8.6
 11
11.2
 21
8.6
  0
LINE
  8
1
 10
11.2
 20
8.7
 11
11.7
 21
8.7
  0
LINE
  8
1
 10
11.7
 20
8.8
 11
11.2
 21
8.8
  0
LINE
  8
1
 10
13.1
 20
8.8
 11
13.6
 21
8.8
  0
LINE
  8
1
 10
13.6
 20
8.7
 11
13.1
 21
8.7
  0
LINE
  8
1
 10
13.1
 20
8.6
 11
13.6
 21
8.6
  0
LINE
  8
1
 10
13.6
 20
8.5
 11
13.1
 21
8.5
  0
LINE
  8
1
 10
13.1
 20
8.4
 11
13.6
 21
8.4
  0
LINE
  8
1
 10
13.6
 20
8.3
 11
13.1
 21
8.3
  0
LINE
  8
1
 10
13.1
 20
8.2
 11
13.6
 21
8.2
  0
LINE
  8
1
 10
13.6
 20
8.1
 11
13.1
 21
8.1
  0
LINE
  8
1
 10
1.9
 20
7.8
 11
1.2
 21
7.8
  0
LINE
  8
1
 10
0.7
 20
7.8
 11
0.4
 21
7.8
  0
LINE
  8
1
 10
0.4
 20
7.8
 11
0.4
 21
7.7
  0
LINE
  8
1
 10
1.3
 20
7.7
 11
1.3
 21
7.8
  0
LINE
  8
1
 10
1.3
 20
8.1
 11
1.3
 21
8.7
  0
LINE
  8
1
 10
1.5
 20
8.6
 11
1.5
 21
8.5
  0
LINE
  8
1
 10
1.5
 20
8.2
 11
1.5
 21
8.1
  0
LINE
  8
1
 10
1.9
 20
8.4
 11
1.9
 21
7.8
  0
LINE
  8
1
 10
1.3
 20
7.4
 11
1.3
 21
7.3
  0
LINE
  8
1
 10
1.3
 20
9.0
 11
1.3
 21
9.1
  0
LINE
  8
1
 10
2.6
 20
9.1
 11
2.6
 21
8.9
  0
LINE
  8
1
 10
2.9
 20
9.1
 11
2.9
 21
6.6
  0
LINE
  8
1
 10
2.0
 20
5.6
 11
2.0
 21
5.5
  0
LINE
  8
1
 10
2.0
 20
5.0
 11
2.0
 21
4.9
  0
LINE
  8
1
 10
6.2
 20
6.6
 11
6.2
 21
7.7
  0
LINE
  8
1
 10
5.8
 20
7.7
 11
5.8
 21
7.8
  0
LINE
  8
1
 10
7.2
 20
6.2
 11
7.2
 21
6.1
  0
LINE
  8
1
 10
7.2
 20
5.6
 11
7.2
 21
4.9
  0
LINE
  8
1
 10
7.3
 20
5.4
 11
7.3
 21
5.6
  0
LINE
  8
1
 10
9.3
 20
5.5
 11
9.3
 21
4.9
  0
LINE
  8
1
 10
9.4
 20
4.8
 11
9.4
 21
5.1
  0
LINE
  8
1
 10
11.6
 20
6.3
 11
11.6
 21
6.6
  0
LINE
  8
1
 10
11.6
 20
7.0
 11
11.6
 21
7.6
  0
LINE
  8
1
 10
10.8
 20
7.5
 11
10.8
 21
7.2
  0
LINE
  8
1
 10
12.6
 20
6.6
 11
12.6
 21
6.3
  0
LINE
  8
1
 10
5.4
 20
7.9
 11
5.7
 21
7.9
  0
LINE
  8
1
 10
5.7
 20
7.9
 11
5.7
 21
7.91
  0
LINE
  8
1
 10
5.7
 20
7.91
 11
5.4
 21
7.91
  0
LINE
  8
1
 10
5.4
 20
7.91
 11
5.4
 21
7.89
  0
LINE
  8
1
 10
5.4
 20
7.89
 11
5.7
 21
7.89
  0
LINE
  8
1
 10
5.7
 20
7.89
 11
5.7
 21
7.9
  0
LINE
  8
1
 10
5.4
 20
6.7
 11
13.7
 21
6.7
  0
LINE
  8
1
 10
13.7
 20
6.7
 11
13.7
 21
6.71
  0
LINE
  8
1
 10
13.7
 20
6.71
 11
5.4
 21
6.71
  0
LINE
  8
1
 10
5.4
 20
6.71
 11
5.4
 21
6.69
  0
LINE
  8
1
 10
5.4
 20
6.69
 11
13.7
 21
6.69
  0
LINE
  8
1
 10
13.7
 20
6.69
 11
13.7
 21
6.7
  0
LINE
  8
1
 10
5.4
 20
6.2
 11
2.4
 21
6.2
  0
LINE
  8
1
 10
2.4
 20
6.2
 11
2.4
 21
6.21
  0
LINE
  8
1
 10
2.4
 20
6.21
 11
5.4
 21
6.21
  0
LINE
  8
1
 10
5.4
 20
6.21
 11
5.4
 21
6.19
  0
LINE
  8
1
 10
5.4
 20
6.19
 11
2.4
 21
6.19
  0
LINE
  8
1
 10
2.4
 20
6.19
 11
2.4
 21
6.2
  0
LINE
  8
1
 10
2.4
 20
8.1
 11
2.4
 21
4.6
  0
LINE
  8
1
 10
2.4
 20
4.6
 11
2.41
 21
4.6
  0
LINE
  8
1
 10
2.41
 20
4.6
 11
2.41
 21
8.1
  0
LINE
  8
1
 10
2.41
 20
8.1
 11
2.39
 21
8.1
  0
LINE
  8
1
 10
2.39
 20
8.1
 11
2.39
 21
4.6
  0
LINE
  8
1
 10
2.39
 20
4.6
 11
2.4
 21
4.6
  0
LINE
  8
1
 10
4.7
 20
4.6
 11
4.7
 21
6.2
  0
LINE
  8
1
 10
4.7
 20
6.2
 11
4.71
 21
6.2
  0
LINE
  8
1
 10
4.71
 20
6.2
 11
4.71
 21
4.6
  0
LINE
  8
1
 10
4.71
 20
4.6
 11
4.69
 21
4.6
  0
LINE
  8
1
 10
4.69
 20
4.6
 11
4.69
 21
6.2
  0
LINE
  8
1
 10
4.69
 20
6.2
 11
4.7
 21
6.2
  0
LINE
  8
1
 10
5.4
 20
6.2
 11
5.4
 21
8.6
  0
LINE
  8
1
 10
5.4
 20
8.6
 11
5.41
 21
8.6
  0
LINE
  8
1
 10
5.41
 20
8.6
 11
5.41
 21
6.2
  0
LINE
  8
1
 10
5.41
 20
6.2
 11
5.39
 21
6.2
  0
LINE
  8
1
 10
5.39
 20
6.2
 11
5.39
 21
8.6
  0
LINE
  8
1
 10
5.39
 20
8.6
 11
5.4
 21
8.6
  0
LINE
  8
1
 10
5.7
 20
8.6
 11
5.7
 21
7.9
  0
LINE
  8
1
 10
5.7
 20
7.9
 11
5.71
 21
7.9
  0
LINE
  8
1
 10
5.71
 20
7.9
 11
5.71
 21
8.6
  0
LINE
  8
1
 10
5.71
 20
8.6
 11
5.69
 21
8.6
  0
LINE
  8
1
 10
5.69
 20
8.6
 11
5.69
 21
7.9
  0
LINE
  8
1
 10
5.69
 20
7.9
 11
5.7
 21
7.9
  0
LINE
  8
1
 10
6.8
 20
6.7
 11
6.8
 21
4.7
  0
LINE
  8
1
 10
6.8
 20
4.7
 11
6.81
 21
4.7
  0
LINE
  8
1
 10
6.81
 20
4.7
 11
6.81
 21
6.7
  0
LINE
  8
1
 10
6.81
 20
6.7
 11
6.79
 21
6.7
  0
LINE
  8
1
 10
6.79
 20
6.7
 11
6.79
 21
4.7
  0
LINE
  8
1
 10
6.79
 20
4.7
 11
6.8
 21
4.7
  0
LINE
  8
1
 10
8.9
 20
4.6
 11
8.9
 21
6.7
  0
LINE
  8
1
 10
8.9
 20
6.7
 11
8.91
 21
6.7
  0
LINE
  8
1
 10
8.91
 20
6.7
 11
8.91
 21
4.6
  0
LINE
  8
1
 10
8.91
 20
4.6
 11
8.89
 21
4.6
  0
LINE
  8
1
 10
8.89
 20
4.6
 11
8.89
 21
6.7
  0
LINE
  8
1
 10
8.89
 20
6.7
 11
8.9
 21
6.7
  0
LINE
  8
1
 10
8.1
 20
6.7
 11
8.1
 21
8.6
  0
LINE
  8
1
 10
8.1
 20
8.6
 11
8.11
 21
8.6
  0
LINE
  8
1
 10
8.11
 20
8.6
 11
8.11
 21
6.7
  0
LINE
  8
1
 10
8.11
 20
6.7
 11
8.09
 21
6.7
  0
LINE
  8
1
 10
8.09
 20
6.7
 11
8.09
 21
8.6
  0
LINE
  8
1
 10
8.09
 20
8.6
 11
8.1
 21
8.6
  0
LINE
  8
1
 10
11.1
 20
8.7
 11
11.1
 21
6.7
  0
LINE
  8
1
 10
11.1
 20
6.7
 11
11.11
 21
6.7
  0
LINE
  8
1
 10
11.11
 20
6.7
 11
11.11
 21
8.7
  0
LINE
  8
1
 10
11.11
 20
8.7
 11
11.09
 21
8.7
  0
LINE
  8
1
 10
11.09
 20
8.7
 11
11.09
 21
6.7
  0
LINE
  8
1
 10
11.09
 20
6.7
 11
11.1
 21
6.7
  0
LINE
  8
1
 10
13.7
 20
6.7
 11
13.7
 21
8.7
  0
LINE
  8
1
 10
13.7
 20
8.7
 11
13.71
 21
8.7
  0
LINE
  8
1
 10
13.71
 20
8.7
 11
13.71
 21
6.7
  0
LINE
  8
1
 10
13.71
 20
6.7
 11
13.69
 21
6.7
  0
LINE
  8
1
 10
13.69
 20
6.7
 11
13.69
 21
8.7
  0
LINE
  8
1
 10
13.69
 20
8.7
 11
13.7
 21
8.7
  0
TEXT
  8
1
 10
13.42
 20
8.817
 40
0.06
  1
D0
  0
TEXT
  8
1
 10
13.42
 20
8.717
 40
0.06
  1
D1
  0
TEXT
  8
1
 10
13.42
 20
8.617
 40
0.06
  1
D2
  0
TEXT
  8
1
 10
13.42
 20
8.517
 40
0.06
  1
D3
  0
LINE
  8
1
 10
13.7
 20
8.7
 11
13.6
 21
8.8
  0
LINE
  8
1
 10
13.7
 20
8.6
 11
13.6
 21
8.7
  0
LINE
  8
1
 10
13.7
 20
8.5
 11
13.6
 21
8.6
  0
LINE
  8
1
 10
12.0
 20
8.8
 11
11.7
 21
8.8
  0
TEXT
  8
1
 10
12.07
 20
8.77
 40
0.06
  1
A0
  0
TEXT
  8
1
 10
11.71
 20
8.82
 40
0.06
  1
 10
  0
LINE
  8
1
 10
12.0
 20
8.7
 11
11.7
 21
8.7
  0
TEXT
  8
1
 10
12.07
 20
8.67
 40
0.06
  1
A1
  0
TEXT
  8
1
 10
11.71
 20
8.72
 40
0.06
  1
  9
  0
LINE
  8
1
 10
12.0
 20
8.6
 11
11.7
 21
8.6
  0
TEXT
  8
1
 10
12.07
 20
8.57
 40
0.06
  1
A2
  0
TEXT
  8
1
 10
11.71
 20
8.62
 40
0.06
  1
  8
  0
LINE
  8
1
 10
12.0
 20
8.5
 11
11.7
 21
8.5
  0
TEXT
  8
1
 10
12.07
 20
8.47
 40
0.06
  1
A3
  0
TEXT
  8
1
 10
11.71
 20
8.52
 40
0.06
  1
  7
  0
LINE
  8
1
 10
12.0
 20
8.4
 11
11.7
 21
8.4
  0
TEXT
  8
1
 10
12.07
 20
8.37
 40
0.06
  1
A4
  0
TEXT
  8
1
 10
11.71
 20
8.42
 40
0.06
  1
  6
  0
LINE
  8
1
 10
12.0
 20
8.3
 11
11.7
 21
8.3
  0
TEXT
  8
1
 10
12.07
 20
8.27
 40
0.06
  1
A5
  0
TEXT
  8
1
 10
11.71
 20
8.32
 40
0.06
  1
  5
  0
LINE
  8
1
 10
12.0
 20
8.2
 11
11.7
 21
8.2
  0
TEXT
  8
1
 10
12.07
 20
8.17
 40
0.06
  1
A6
  0
TEXT
  8
1
 10
11.71
 20
8.22
 40
0.06
  1
  4
  0
LINE
  8
1
 10
12.0
 20
8.1
 11
11.7
 21
8.1
  0
TEXT
  8
1
 10
12.07
 20
8.07
 40
0.06
  1
A7
  0
TEXT
  8
1
 10
11.71
 20
8.12
 40
0.06
  1
  3
  0
LINE
  8
1
 10
12.0
 20
8.0
 11
11.7
 21
8.0
  0
TEXT
  8
1
 10
12.07
 20
7.97
 40
0.06
  1
A8
  0
TEXT
  8
1
 10
11.71
 20
8.02
 40
0.06
  1
 25
  0
LINE
  8
1
 10
12.0
 20
7.9
 11
11.7
 21
7.9
  0
TEXT
  8
1
 10
12.07
 20
7.87
 40
0.06
  1
A9
  0
TEXT
  8
1
 10
11.71
 20
7.92
 40
0.06
  1
 24
  0
LINE
  8
1
 10
12.0
 20
7.8
 11
11.7
 21
7.8
  0
TEXT
  8
1
 10
12.07
 20
7.77
 40
0.06
  1
A10
  0
TEXT
  8
1
 10
11.71
 20
7.82
 40
0.06
  1
 21
  0
LINE
  8
1
 10
12.0
 20
7.7
 11
11.7
 21
7.7
  0
TEXT
  8
1
 10
12.07
 20
7.67
 40
0.06
  1
A11
  0
TEXT
  8
1
 10
11.71
 20
7.72
 40
0.06
  1
 23
  0
LINE
  8
1
 10
12.0
 20
7.6
 11
11.7
 21
7.6
  0
TEXT
  8
1
 10
12.07
 20
7.57
 40
0.06
  1
A12
  0
TEXT
  8
1
 10
11.71
 20
7.62
 40
0.06
  1
  2
  0
LINE
  8
1
 10
12.0
 20
7.4
 11
11.7
 21
7.4
  0
TEXT
  8
1
 10
12.07
 20
7.37
 40
0.06
  1
CE
  0
LINE
  8
1
 10
12.07
 20
7.45
 11
12.15
 21
7.45
  0
LINE
  8
1
 10
12.15
 20
7.45
 11
12.23
 21
7.45
  0
TEXT
  8
1
 10
11.71
 20
7.42
 40
0.06
  1
 20
  0
LINE
  8
1
 10
12.0
 20
7.3
 11
11.7
 21
7.3
  0
TEXT
  8
1
 10
12.07
 20
7.27
 40
0.06
  1
OE
  0
LINE
  8
1
 10
12.07
 20
7.35
 11
12.15
 21
7.35
  0
LINE
  8
1
 10
12.15
 20
7.35
 11
12.23
 21
7.35
  0
TEXT
  8
1
 10
11.71
 20
7.32
 40
0.06
  1
 22
  0
LINE
  8
1
 10
12.0
 20
7.2
 11
11.7
 21
7.2
  0
TEXT
  8
1
 10
12.07
 20
7.17
 40
0.06
  1
WE
  0
LINE
  8
1
 10
12.07
 20
7.25
 11
12.15
 21
7.25
  0
LINE
  8
1
 10
12.15
 20
7.25
 11
12.23
 21
7.25
  0
TEXT
  8
1
 10
11.71
 20
7.22
 40
0.06
  1
 27
  0
LINE
  8
1
 10
12.8
 20
8.8
 11
13.1
 21
8.8
  0
TEXT
  8
1
 10
12.58
 20
8.77
 40
0.06
  1
D0
  0
TEXT
  8
1
 10
12.87
 20
8.82
 40
0.06
  1
11
  0
LINE
  8
1
 10
12.8
 20
8.7
 11
13.1
 21
8.7
  0
TEXT
  8
1
 10
12.58
 20
8.67
 40
0.06
  1
D1
  0
TEXT
  8
1
 10
12.87
 20
8.72
 40
0.06
  1
12
  0
LINE
  8
1
 10
12.8
 20
8.6
 11
13.1
 21
8.6
  0
TEXT
  8
1
 10
12.58
 20
8.57
 40
0.06
  1
D2
  0
TEXT
  8
1
 10
12.87
 20
8.62
 40
0.06
  1
13
  0
LINE
  8
1
 10
12.8
 20
8.5
 11
13.1
 21
8.5
  0
TEXT
  8
1
 10
12.58
 20
8.47
 40
0.06
  1
D3
  0
TEXT
  8
1
 10
12.87
 20
8.52
 40
0.06
  1
15
  0
LINE
  8
1
 10
12.8
 20
8.4
 11
13.1
 21
8.4
  0
TEXT
  8
1
 10
12.58
 20
8.37
 40
0.06
  1
D4
  0
TEXT
  8
1
 10
12.87
 20
8.42
 40
0.06
  1
16
  0
LINE
  8
1
 10
12.8
 20
8.3
 11
13.1
 21
8.3
  0
TEXT
  8
1
 10
12.58
 20
8.27
 40
0.06
  1
D5
  0
TEXT
  8
1
 10
12.87
 20
8.32
 40
0.06
  1
17
  0
LINE
  8
1
 10
12.8
 20
8.2
 11
13.1
 21
8.2
  0
TEXT
  8
1
 10
12.58
 20
8.17
 40
0.06
  1
D6
  0
TEXT
  8
1
 10
12.87
 20
8.22
 40
0.06
  1
18
  0
LINE
  8
1
 10
12.8
 20
8.1
 11
13.1
 21
8.1
  0
TEXT
  8
1
 10
12.58
 20
8.07
 40
0.06
  1
D7
  0
TEXT
  8
1
 10
12.87
 20
8.12
 40
0.06
  1
19
  0
LINE
  8
1
 10
12.8
 20
7.4
 11
13.1
 21
7.4
  0
TEXT
  8
1
 10
12.34
 20
7.37
 40
0.06
  1
RDY/B
  0
LINE
  8
1
 10
12.66
 20
7.45
 11
12.74
 21
7.45
  0
TEXT
  8
1
 10
12.87
 20
7.42
 40
0.06
  1
 1
  0
LINE
  8
1
 10
12.0
 20
8.9
 11
12.8
 21
8.9
  0
LINE
  8
1
 10
12.8
 20
8.9
 11
12.8
 21
7.1
  0
LINE
  8
1
 10
12.8
 20
7.1
 11
12.0
 21
7.1
  0
LINE
  8
1
 10
12.0
 20
7.1
 11
12.0
 21
8.9
  0
TEXT
  8
1
 10
12.05
 20
8.92
 40
0.06
  1
U2
  0
TEXT
  8
1
 10
12.05
 20
7.02
 40
0.06
  1
2864
  0
TEXT
  8
1
 10
11.22
 20
8.817
 40
0.06
  1
A0
  0
TEXT
  8
1
 10
11.22
 20
8.717
 40
0.06
  1
A1
  0
TEXT
  8
1
 10
11.22
 20
8.617
 40
0.06
  1
A2
  0
TEXT
  8
1
 10
11.22
 20
8.517
 40
0.06
  1
A3
  0
LINE
  8
1
 10
11.2
 20
8.8
 11
11.1
 21
8.7
  0
LINE
  8
1
 10
11.2
 20
8.7
 11
11.1
 21
8.6
  0
LINE
  8
1
 10
11.2
 20
8.6
 11
11.1
 21
8.5
  0
LINE
  8
1
 10
11.2
 20
8.5
 11
11.1
 21
8.4
  0
TEXT
  8
1
 10
7.82
 20
8.717
 40
0.06
  1
A7
  0
TEXT
  8
1
 10
7.82
 20
8.617
 40
0.06
  1
A6
  0
TEXT
  8
1
 10
7.82
 20
8.517
 40
0.06
  1
A5
  0
LINE
  8
1
 10
8.1
 20
8.6
 11
8.0
 21
8.7
  0
LINE
  8
1
 10
8.1
 20
8.5
 11
8.0
 21
8.6
  0
LINE
  8
1
 10
6.6
 20
8.7
 11
6.3
 21
8.7
  0
TEXT
  8
1
 10
6.67
 20
8.67
 40
0.06
  1
D1
  0
TEXT
  8
1
 10
6.31
 20
8.72
 40
0.06
  1
  2
  0
LINE
  8
1
 10
7.2
 20
8.7
 11
7.5
 21
8.7
  0
TEXT
  8
1
 10
6.98
 20
8.67
 40
0.06
  1
Q1
  0
TEXT
  8
1
 10
7.27
 20
8.72
 40
0.06
  1
19
  0
LINE
  8
1
 10
6.6
 20
8.6
 11
6.3
 21
8.6
  0
TEXT
  8
1
 10
6.67
 20
8.57
 40
0.06
  1
D2
  0
TEXT
  8
1
 10
6.31
 20
8.62
 40
0.06
  1
  3
  0
LINE
  8
1
 10
7.2
 20
8.6
 11
7.5
 21
8.6
  0
TEXT
  8
1
 10
6.98
 20
8.57
 40
0.06
  1
Q2
  0
TEXT
  8
1
 10
7.27
 20
8.62
 40
0.06
  1
18
  0
LINE
  8
1
 10
6.6
 20
8.5
 11
6.3
 21
8.5
  0
TEXT
  8
1
 10
6.67
 20
8.47
 40
0.06
  1
D3
  0
TEXT
  8
1
 10
6.31
 20
8.52
 40
0.06
  1
  4
  0
LINE
  8
1
 10
7.2
 20
8.5
 11
7.5
 21
8.5
  0
TEXT
  8
1
 10
6.98
 20
8.47
 40
0.06
  1
Q3
  0
TEXT
  8
1
 10
7.27
 20
8.52
 40
0.06
  1
17
  0
LINE
  8
1
 10
6.6
 20
8.4
 11
6.3
 21
8.4
  0
TEXT
  8
1
 10
6.67
 20
8.37
 40
0.06
  1
D4
  0
TEXT
  8
1
 10
6.31
 20
8.42
 40
0.06
  1
  5
  0
LINE
  8
1
 10
7.2
 20
8.4
 11
7.5
 21
8.4
  0
TEXT
  8
1
 10
6.98
 20
8.37
 40
0.06
  1
Q4
  0
TEXT
  8
1
 10
7.27
 20
8.42
 40
0.06
  1
16
  0
LINE
  8
1
 10
6.6
 20
8.3
 11
6.3
 21
8.3
  0
TEXT
  8
1
 10
6.67
 20
8.27
 40
0.06
  1
D5
  0
TEXT
  8
1
 10
6.31
 20
8.32
 40
0.06
  1
  6
  0
LINE
  8
1
 10
7.2
 20
8.3
 11
7.5
 21
8.3
  0
TEXT
  8
1
 10
6.98
 20
8.27
 40
0.06
  1
Q5
  0
TEXT
  8
1
 10
7.27
 20
8.32
 40
0.06
  1
15
  0
LINE
  8
1
 10
6.6
 20
8.2
 11
6.3
 21
8.2
  0
TEXT
  8
1
 10
6.67
 20
8.17
 40
0.06
  1
D6
  0
TEXT
  8
1
 10
6.31
 20
8.22
 40
0.06
  1
  7
  0
LINE
  8
1
 10
7.2
 20
8.2
 11
7.5
 21
8.2
  0
TEXT
  8
1
 10
6.98
 20
8.17
 40
0.06
  1
Q6
  0
TEXT
  8
1
 10
7.27
 20
8.22
 40
0.06
  1
14
  0
LINE
  8
1
 10
6.6
 20
8.1
 11
6.3
 21
8.1
  0
TEXT
  8
1
 10
6.67
 20
8.07
 40
0.06
  1
D7
  0
TEXT
  8
1
 10
6.31
 20
8.12
 40
0.06
  1
  8
  0
LINE
  8
1
 10
7.2
 20
8.1
 11
7.5
 21
8.1
  0
TEXT
  8
1
 10
6.98
 20
8.07
 40
0.06
  1
Q7
  0
TEXT
  8
1
 10
7.27
 20
8.12
 40
0.06
  1
13
  0
LINE
  8
1
 10
6.6
 20
8.0
 11
6.3
 21
8.0
  0
TEXT
  8
1
 10
6.67
 20
7.97
 40
0.06
  1
D8
  0
TEXT
  8
1
 10
6.31
 20
8.02
 40
0.06
  1
  9
  0
LINE
  8
1
 10
7.2
 20
8.0
 11
7.5
 21
8.0
  0
TEXT
  8
1
 10
6.98
 20
7.97
 40
0.06
  1
Q8
  0
TEXT
  8
1
 10
7.27
 20
8.02
 40
0.06
  1
12
  0
LINE
  8
1
 10
6.6
 20
7.8
 11
6.3
 21
7.8
  0
TEXT
  8
1
 10
6.67
 20
7.77
 40
0.06
  1
C
  0
TEXT
  8
1
 10
6.31
 20
7.82
 40
0.06
  1
 11
  0
CIRCLE
  8
1
 10
6.57
 20
7.7
 40
0.03
  0
LINE
  8
1
 10
6.54
 20
7.7
 11
6.3
 21
7.7
  0
TEXT
  8
1
 10
6.67
 20
7.67
 40
0.06
  1
OC
  0
TEXT
  8
1
 10
6.31
 20
7.72
 40
0.06
  1
  1
  0
LINE
  8
1
 10
6.6
 20
8.8
 11
7.2
 21
8.8
  0
LINE
  8
1
 10
7.2
 20
8.8
 11
7.2
 21
7.6
  0
LINE
  8
1
 10
7.2
 20
7.6
 11
6.6
 21
7.6
  0
LINE
  8
1
 10
6.6
 20
7.6
 11
6.6
 21
8.8
  0
TEXT
  8
1
 10
6.65
 20
8.82
 40
0.06
  1
U3
  0
TEXT
  8
1
 10
6.65
 20
7.52
 40
0.06
  1
74HCT573
  0
TEXT
  8
1
 10
5.82
 20
8.717
 40
0.06
  1
D7
  0
TEXT
  8
1
 10
5.82
 20
8.617
 40
0.06
  1
D6
  0
TEXT
  8
1
 10
5.82
 20
8.517
 40
0.06
  1
D5
  0
LINE
  8
1
 10
5.8
 20
8.7
 11
5.7
 21
8.6
  0
LINE
  8
1
 10
5.8
 20
8.6
 11
5.7
 21
8.5
  0
LINE
  8
1
 10
5.8
 20
8.5
 11
5.7
 21
8.4
  0
TEXT
  8
1
 10
5.12
 20
8.717
 40
0.06
  1
D0
  0
TEXT
  8
1
 10
5.12
 20
8.617
 40
0.06
  1
D1
  0
TEXT
  8
1
 10
5.12
 20
8.517
 40
0.06
  1
D2
  0
LINE
  8
1
 10
5.4
 20
8.6
 11
5.3
 21
8.7
  0
LINE
  8
1
 10
5.4
 20
8.5
 11
5.3
 21
8.6
  0
LINE
  8
1
 10
3.3
 20
8.9
 11
3.0
 21
8.9
  0
TEXT
  8
1
 10
3.37
 20
8.87
 40
0.06
  1
X1
  0
TEXT
  8
1
 10
3.01
 20
8.92
 40
0.06
  1
  2
  0
LINE
  8
1
 10
3.3
 20
8.6
 11
3.0
 21
8.6
  0
TEXT
  8
1
 10
3.37
 20
8.57
 40
0.06
  1
X2
  0
TEXT
  8
1
 10
3.01
 20
8.62
 40
0.06
  1
  3
  0
CIRCLE
  8
1
 10
3.27
 20
8.4
 40
0.03
  0
LINE
  8
1
 10
3.24
 20
8.4
 11
3.0
 21
8.4
  0
TEXT
  8
1
 10
3.37
 20
8.37
 40
0.06
  1
RESET
  0
TEXT
  8
1
 10
3.01
 20
8.42
 40
0.06
  1
  4
  0
CIRCLE
  8
1
 10
3.27
 20
8.3
 40
0.03
  0
LINE
  8
1
 10
3.24
 20
8.3
 11
3.0
 21
8.3
  0
TEXT
  8
1
 10
3.37
 20
8.27
 40
0.06
  1
SS
  0
TEXT
  8
1
 10
3.01
 20
8.32
 40
0.06
  1
  5
  0
LINE
  8
1
 10
3.3
 20
8.2
 11
3.0
 21
8.2
  0
TEXT
  8
1
 10
3.37
 20
8.17
 40
0.06
  1
T0
  0
TEXT
  8
1
 10
3.01
 20
8.22
 40
0.06
  1
  1
  0
LINE
  8
1
 10
3.3
 20
8.1
 11
3.0
 21
8.1
  0
TEXT
  8
1
 10
3.37
 20
8.07
 40
0.06
  1
T1
  0
TEXT
  8
1
 10
3.01
 20
8.12
 40
0.06
  1
 39
  0
CIRCLE
  8
1
 10
3.27
 20
8.0
 40
0.03
  0
LINE
  8
1
 10
3.24
 20
8.0
 11
3.0
 21
8.0
  0
TEXT
  8
1
 10
3.37
 20
7.97
 40
0.06
  1
INT
  0
TEXT
  8
1
 10
3.01
 20
8.02
 40
0.06
  1
  6
  0
LINE
  8
1
 10
3.3
 20
7.8
 11
3.0
 21
7.8
  0
TEXT
  8
1
 10
3.37
 20
7.77
 40
0.06
  1
P1.0
  0
TEXT
  8
1
 10
3.01
 20
7.82
 40
0.06
  1
 27
  0
LINE
  8
1
 10
3.3
 20
7.7
 11
3.0
 21
7.7
  0
TEXT
  8
1
 10
3.37
 20
7.67
 40
0.06
  1
P1.1
  0
TEXT
  8
1
 10
3.01
 20
7.72
 40
0.06
  1
 28
  0
LINE
  8
1
 10
3.3
 20
7.6
 11
3.0
 21
7.6
  0
TEXT
  8
1
 10
3.37
 20
7.57
 40
0.06
  1
P1.2
  0
TEXT
  8
1
 10
3.01
 20
7.62
 40
0.06
  1
 29
  0
LINE
  8
1
 10
3.3
 20
7.5
 11
3.0
 21
7.5
  0
TEXT
  8
1
 10
3.37
 20
7.47
 40
0.06
  1
P1.3
  0
TEXT
  8
1
 10
3.01
 20
7.52
 40
0.06
  1
 30
  0
LINE
  8
1
 10
3.3
 20
7.4
 11
3.0
 21
7.4
  0
TEXT
  8
1
 10
3.37
 20
7.37
 40
0.06
  1
P1.4
  0
TEXT
  8
1
 10
3.01
 20
7.42
 40
0.06
  1
 31
  0
LINE
  8
1
 10
3.3
 20
7.3
 11
3.0
 21
7.3
  0
TEXT
  8
1
 10
3.37
 20
7.27
 40
0.06
  1
P1.5
  0
TEXT
  8
1
 10
3.01
 20
7.32
 40
0.06
  1
 32
  0
LINE
  8
1
 10
3.3
 20
7.2
 11
3.0
 21
7.2
  0
TEXT
  8
1
 10
3.37
 20
7.17
 40
0.06
  1
P1.6
  0
TEXT
  8
1
 10
3.01
 20
7.22
 40
0.06
  1
 33
  0
LINE
  8
1
 10
3.3
 20
7.1
 11
3.0
 21
7.1
  0
TEXT
  8
1
 10
3.37
 20
7.07
 40
0.06
  1
P1.7
  0
TEXT
  8
1
 10
3.01
 20
7.12
 40
0.06
  1
 34
  0
LINE
  8
1
 10
3.3
 20
6.6
 11
3.0
 21
6.6
  0
TEXT
  8
1
 10
3.37
 20
6.57
 40
0.06
  1
EA
  0
TEXT
  8
1
 10
3.01
 20
6.62
 40
0.06
  1
  7
  0
LINE
  8
1
 10
4.5
 20
8.9
 11
4.8
 21
8.9
  0
TEXT
  8
1
 10
4.12
 20
8.87
 40
0.06
  1
PROG
  0
TEXT
  8
1
 10
4.57
 20
8.92
 40
0.06
  1
25
  0
LINE
  8
1
 10
4.5
 20
8.7
 11
4.8
 21
8.7
  0
TEXT
  8
1
 10
4.12
 20
8.67
 40
0.06
  1
DB.0
  0
TEXT
  8
1
 10
4.57
 20
8.72
 40
0.06
  1
12
  0
LINE
  8
1
 10
4.5
 20
8.6
 11
4.8
 21
8.6
  0
TEXT
  8
1
 10
4.12
 20
8.57
 40
0.06
  1
DB.1
  0
TEXT
  8
1
 10
4.57
 20
8.62
 40
0.06
  1
13
  0
LINE
  8
1
 10
4.5
 20
8.5
 11
4.8
 21
8.5
  0
TEXT
  8
1
 10
4.12
 20
8.47
 40
0.06
  1
DB.2
  0
TEXT
  8
1
 10
4.57
 20
8.52
 40
0.06
  1
14
  0
LINE
  8
1
 10
4.5
 20
8.4
 11
4.8
 21
8.4
  0
TEXT
  8
1
 10
4.12
 20
8.37
 40
0.06
  1
DB.3
  0
TEXT
  8
1
 10
4.57
 20
8.42
 40
0.06
  1
15
  0
LINE
  8
1
 10
4.5
 20
8.3
 11
4.8
 21
8.3
  0
TEXT
  8
1
 10
4.12
 20
8.27
 40
0.06
  1
DB.4
  0
TEXT
  8
1
 10
4.57
 20
8.32
 40
0.06
  1
16
  0
LINE
  8
1
 10
4.5
 20
8.2
 11
4.8
 21
8.2
  0
TEXT
  8
1
 10
4.12
 20
8.17
 40
0.06
  1
DB.5
  0
TEXT
  8
1
 10
4.57
 20
8.22
 40
0.06
  1
17
  0
LINE
  8
1
 10
4.5
 20
8.1
 11
4.8
 21
8.1
  0
TEXT
  8
1
 10
4.12
 20
8.07
 40
0.06
  1
DB.6
  0
TEXT
  8
1
 10
4.57
 20
8.12
 40
0.06
  1
18
  0
LINE
  8
1
 10
4.5
 20
8.0
 11
4.8
 21
8.0
  0
TEXT
  8
1
 10
4.12
 20
7.97
 40
0.06
  1
DB.7
  0
TEXT
  8
1
 10
4.57
 20
8.02
 40
0.06
  1
19
  0
LINE
  8
1
 10
4.5
 20
7.8
 11
4.8
 21
7.8
  0
TEXT
  8
1
 10
4.12
 20
7.77
 40
0.06
  1
P2.0
  0
TEXT
  8
1
 10
4.57
 20
7.82
 40
0.06
  1
21
  0
LINE
  8
1
 10
4.5
 20
7.7
 11
4.8
 21
7.7
  0
TEXT
  8
1
 10
4.12
 20
7.67
 40
0.06
  1
P2.1
  0
TEXT
  8
1
 10
4.57
 20
7.72
 40
0.06
  1
22
  0
LINE
  8
1
 10
4.5
 20
7.6
 11
4.8
 21
7.6
  0
TEXT
  8
1
 10
4.12
 20
7.57
 40
0.06
  1
P2.2
  0
TEXT
  8
1
 10
4.57
 20
7.62
 40
0.06
  1
23
  0
LINE
  8
1
 10
4.5
 20
7.5
 11
4.8
 21
7.5
  0
TEXT
  8
1
 10
4.12
 20
7.47
 40
0.06
  1
P2.3
  0
TEXT
  8
1
 10
4.57
 20
7.52
 40
0.06
  1
24
  0
LINE
  8
1
 10
4.5
 20
7.4
 11
4.8
 21
7.4
  0
TEXT
  8
1
 10
4.12
 20
7.37
 40
0.06
  1
P2.4
  0
TEXT
  8
1
 10
4.57
 20
7.42
 40
0.06
  1
35
  0
LINE
  8
1
 10
4.5
 20
7.3
 11
4.8
 21
7.3
  0
TEXT
  8
1
 10
4.12
 20
7.27
 40
0.06
  1
P2.5
  0
TEXT
  8
1
 10
4.57
 20
7.32
 40
0.06
  1
36
  0
LINE
  8
1
 10
4.5
 20
7.2
 11
4.8
 21
7.2
  0
TEXT
  8
1
 10
4.12
 20
7.17
 40
0.06
  1
P2.6
  0
TEXT
  8
1
 10
4.57
 20
7.22
 40
0.06
  1
37
  0
LINE
  8
1
 10
4.5
 20
7.1
 11
4.8
 21
7.1
  0
TEXT
  8
1
 10
4.12
 20
7.07
 40
0.06
  1
P2.7
  0
TEXT
  8
1
 10
4.57
 20
7.12
 40
0.06
  1
38
  0
LINE
  8
1
 10
4.5
 20
6.9
 11
4.8
 21
6.9
  0
TEXT
  8
1
 10
4.28
 20
6.87
 40
0.06
  1
RD
  0
LINE
  8
1
 10
4.28
 20
6.95
 11
4.36
 21
6.95
  0
LINE
  8
1
 10
4.36
 20
6.95
 11
4.44
 21
6.95
  0
TEXT
  8
1
 10
4.57
 20
6.92
 40
0.06
  1
 8
  0
LINE
  8
1
 10
4.5
 20
6.8
 11
4.8
 21
6.8
  0
TEXT
  8
1
 10
4.28
 20
6.77
 40
0.06
  1
WR
  0
LINE
  8
1
 10
4.28
 20
6.85
 11
4.36
 21
6.85
  0
LINE
  8
1
 10
4.36
 20
6.85
 11
4.44
 21
6.85
  0
TEXT
  8
1
 10
4.57
 20
6.82
 40
0.06
  1
10
  0
CIRCLE
  8
1
 10
4.53
 20
6.7
 40
0.03
  0
LINE
  8
1
 10
4.56
 20
6.7
 11
4.8
 21
6.7
  0
TEXT
  8
1
 10
4.12
 20
6.67
 40
0.06
  1
PSEN
  0
TEXT
  8
1
 10
4.57
 20
6.72
 40
0.06
  1
 9
  0
LINE
  8
1
 10
4.5
 20
6.6
 11
4.8
 21
6.6
  0
TEXT
  8
1
 10
4.2
 20
6.57
 40
0.06
  1
ALE
  0
TEXT
  8
1
 10
4.57
 20
6.62
 40
0.06
  1
11
  0
LINE
  8
1
 10
3.3
 20
9.0
 11
4.5
 21
9.0
  0
LINE
  8
1
 10
4.5
 20
9.0
 11
4.5
 21
6.5
  0
LINE
  8
1
 10
4.5
 20
6.5
 11
3.3
 21
6.5
  0
LINE
  8
1
 10
3.3
 20
6.5
 11
3.3
 21
9.0
  0
TEXT
  8
1
 10
3.35
 20
9.02
 40
0.06
  1
U1
  0
TEXT
  8
1
 10
3.35
 20
6.42
 40
0.06
  1
8039
  0
LINE
  8
1
 10
2.9
 20
9.1
 11
2.9
 21
9.14
  0
CIRCLE
  8
1
 10
2.9
 20
9.17
 40
0.03
  0
TEXT
  8
1
 10
2.78
 20
9.21
 40
0.06
  1
VCC
  0
LINE
  8
1
 10
2.0
 20
8.8
 11
1.7
 21
8.8
  0
LINE
  8
1
 10
1.7
 20
8.8
 11
1.7
 21
8.9
  0
LINE
  8
1
 10
1.7
 20
8.9
 11
2.1
 21
8.9
  0
LINE
  8
1
 10
2.1
 20
8.9
 11
2.1
 21
8.8
  0
LINE
  8
1
 10
2.1
 20
8.8
 11
2.0
 21
8.8
  0
LINE
  8
1
 10
1.7
 20
8.75
 11
2.1
 21
8.75
  0
LINE
  8
1
 10
1.7
 20
8.95
 11
2.1
 21
8.95
  0
LINE
  8
1
 10
1.9
 20
8.6
 11
1.9
 21
8.75
  0
LINE
  8
1
 10
1.9
 20
9.1
 11
1.9
 21
8.95
  0
TEXT
  8
1
 10
2.16
 20
8.88
 40
0.06
  1
XT1
  0
TEXT
  8
1
 10
2.15
 20
8.75
 40
0.06
  1
6MHz
  0
LINE
  8
1
 10
1.3
 20
8.9
 11
1.3
 21
9.0
  0
LINE
  8
1
 10
1.3
 20
8.8
 11
1.3
 21
8.7
  0
LINE
  8
1
 10
1.3
 20
8.82
 11
1.3
 21
8.8
  0
LINE
  8
1
 10
1.3
 20
8.89
 11
1.3
 21
8.9
  0
LINE
  8
1
 10
1.22
 20
8.82
 11
1.38
 21
8.82
  0
LINE
  8
1
 10
1.38
 20
8.83
 11
1.22
 21
8.83
  0
LINE
  8
1
 10
1.22
 20
8.84
 11
1.38
 21
8.84
  0
LINE
  8
1
 10
1.22
 20
8.88
 11
1.38
 21
8.88
  0
LINE
  8
1
 10
1.22
 20
8.89
 11
1.38
 21
8.89
  0
LINE
  8
1
 10
1.38
 20
8.87
 11
1.22
 21
8.87
  0
TEXT
  8
1
 10
1.47
 20
8.82
 40
0.06
  1
C2
  0
TEXT
  8
1
 10
1.34
 20
8.73
 40
0.06
  1
10pF
  0
CIRCLE
  8
1
 10
1.9
 20
9.1
 40
0.02
  0
CIRCLE
  8
1
 10
1.9
 20
9.1
 40
0.01
  0
CIRCLE
  8
1
 10
1.9
 20
8.6
 40
0.02
  0
CIRCLE
  8
1
 10
1.9
 20
8.6
 40
0.01
  0
LINE
  8
1
 10
0.4
 20
7.1
 11
0.4
 21
6.8
  0
LINE
  8
1
 10
0.4
 20
7.4
 11
0.4
 21
7.7
  0
LINE
  8
1
 10
0.34
 20
7.1
 11
0.34
 21
7.4
  0
LINE
  8
1
 10
0.34
 20
7.4
 11
0.33
 21
7.4
  0
LINE
  8
1
 10
0.33
 20
7.4
 11
0.33
 21
7.28
  0
LINE
  8
1
 10
0.33
 20
7.28
 11
0.3
 21
7.28
  0
LINE
  8
1
 10
0.3
 20
7.28
 11
0.3
 21
7.22
  0
LINE
  8
1
 10
0.3
 20
7.22
 11
0.33
 21
7.22
  0
LINE
  8
1
 10
0.33
 20
7.22
 11
0.33
 21
7.1
  0
LINE
  8
1
 10
0.33
 20
7.1
 11
0.34
 21
7.1
  0
CIRCLE
  8
1
 10
0.4
 20
7.13
 40
0.03
  0
CIRCLE
  8
1
 10
0.4
 20
7.37
 40
0.03
  0
LINE
  8
1
 10
0.33
 20
7.27
 11
0.31
 21
7.27
  0
LINE
  8
1
 10
0.31
 20
7.26
 11
0.33
 21
7.26
  0
LINE
  8
1
 10
0.33
 20
7.25
 11
0.31
 21
7.25
  0
LINE
  8
1
 10
0.31
 20
7.24
 11
0.33
 21
7.24
  0
LINE
  8
1
 10
0.33
 20
7.23
 11
0.31
 21
7.23
  0
TEXT
  8
1
 10
0.57
 20
7.32
 40
0.06
  1
SW1
  0
TEXT
  8
1
 10
0.57
 20
7.23
 40
0.06
  1
RESET
  0
LINE
  8
1
 10
1.5
 20
8.4
 11
1.5
 21
8.5
  0
LINE
  8
1
 10
1.5
 20
8.3
 11
1.5
 21
8.2
  0
LINE
  8
1
 10
1.5
 20
8.32
 11
1.5
 21
8.3
  0
LINE
  8
1
 10
1.5
 20
8.39
 11
1.5
 21
8.4
  0
LINE
  8
1
 10
1.42
 20
8.32
 11
1.58
 21
8.32
  0
LINE
  8
1
 10
1.58
 20
8.33
 11
1.42
 21
8.33
  0
LINE
  8
1
 10
1.42
 20
8.34
 11
1.58
 21
8.34
  0
LINE
  8
1
 10
1.42
 20
8.38
 11
1.58
 21
8.38
  0
LINE
  8
1
 10
1.42
 20
8.39
 11
1.58
 21
8.39
  0
LINE
  8
1
 10
1.58
 20
8.37
 11
1.42
 21
8.37
  0
TEXT
  8
1
 10
1.67
 20
8.32
 40
0.06
  1
C3
  0
TEXT
  8
1
 10
1.54
 20
8.23
 40
0.06
  1
22pF
  0
CIRCLE
  8
1
 10
1.3
 20
7.8
 40
0.02
  0
CIRCLE
  8
1
 10
1.3
 20
7.8
 40
0.01
  0
LINE
  8
1
 10
0.8
 20
7.8
 11
0.7
 21
7.8
  0
LINE
  8
1
 10
1.1
 20
7.8
 11
1.2
 21
7.8
  0
LINE
  8
1
 10
0.8
 20
7.8
 11
0.83
 21
7.83
  0
LINE
  8
1
 10
0.83
 20
7.83
 11
0.89
 21
7.77
  0
LINE
  8
1
 10
0.89
 20
7.77
 11
0.95
 21
7.83
  0
LINE
  8
1
 10
0.95
 20
7.83
 11
1.01
 21
7.77
  0
LINE
  8
1
 10
1.01
 20
7.77
 11
1.07
 21
7.83
  0
LINE
  8
1
 10
1.07
 20
7.83
 11
1.1
 21
7.8
  0
TEXT
  8
1
 10
0.85
 20
7.92
 40
0.06
  1
R1
  0
TEXT
  8
1
 10
0.85
 20
7.62
 40
0.06
  1
1K
  0
LINE
  8
1
 10
1.3
 20
7.6
 11
1.3
 21
7.7
  0
LINE
  8
1
 10
1.3
 20
7.5
 11
1.3
 21
7.4
  0
LINE
  8
1
 10
1.3
 20
7.52
 11
1.3
 21
7.5
  0
LINE
  8
1
 10
1.22
 20
7.52
 11
1.38
 21
7.52
  0
LINE
  8
1
 10
1.38
 20
7.53
 11
1.22
 21
7.53
  0
LINE
  8
1
 10
1.22
 20
7.54
 11
1.38
 21
7.54
  0
LINE
  8
1
 10
1.22
 20
7.58
 11
1.22
 21
7.57
  0
LINE
  8
1
 10
1.22
 20
7.57
 11
1.38
 21
7.57
  0
LINE
  8
1
 10
1.22
 20
7.6
 11
1.38
 21
7.6
  0
LINE
  8
1
 10
1.22
 20
7.6
 11
1.22
 21
7.57
  0
LINE
  8
1
 10
1.38
 20
7.57
 11
1.38
 21
7.6
  0
TEXT
  8
1
 10
1.47
 20
7.52
 40
0.06
  1
C1
  0
TEXT
  8
1
 10
1.47
 20
7.43
 40
0.06
  1
2uF
  0
LINE
  8
1
 10
1.3
 20
7.3
 11
1.3
 21
7.2
  0
LINE
  8
1
 10
1.27
 20
7.2
 11
1.33
 21
7.2
  0
TEXT
  8
1
 10
1.18
 20
7.13
 40
0.06
  1
GND
  0
LINE
  8
1
 10
1.3
 20
8.1
 11
1.3
 21
8.0
  0
LINE
  8
1
 10
1.27
 20
8.0
 11
1.33
 21
8.0
  0
TEXT
  8
1
 10
1.18
 20
7.93
 40
0.06
  1
GND
  0
LINE
  8
1
 10
1.5
 20
8.1
 11
1.5
 21
8.0
  0
LINE
  8
1
 10
1.47
 20
8.0
 11
1.53
 21
8.0
  0
TEXT
  8
1
 10
1.38
 20
7.93
 40
0.06
  1
GND
  0
TEXT
  8
1
 10
2.52
 20
7.817
 40
0.06
  1
P1.0
  0
TEXT
  8
1
 10
2.52
 20
7.717
 40
0.06
  1
P1.1
  0
TEXT
  8
1
 10
2.52
 20
7.617
 40
0.06
  1
P1.2
  0
TEXT
  8
1
 10
2.52
 20
7.517
 40
0.06
  1
P1.3
  0
TEXT
  8
1
 10
2.52
 20
7.417
 40
0.06
  1
P1.4
  0
TEXT
  8
1
 10
2.52
 20
7.317
 40
0.06
  1
P1.5
  0
TEXT
  8
1
 10
2.52
 20
8.117
 40
0.06
  1
T1
  0
TEXT
  8
1
 10
2.52
 20
8.017
 40
0.06
  1
CLK
  0
TEXT
  8
1
 10
2.52
 20
8.217
 40
0.06
  1
DTA
  0
LINE
  8
1
 10
2.5
 20
7.8
 11
2.4
 21
7.7
  0
LINE
  8
1
 10
2.5
 20
7.7
 11
2.4
 21
7.6
  0
LINE
  8
1
 10
2.5
 20
7.6
 11
2.4
 21
7.5
  0
LINE
  8
1
 10
2.5
 20
7.5
 11
2.4
 21
7.4
  0
LINE
  8
1
 10
2.5
 20
7.4
 11
2.4
 21
7.3
  0
LINE
  8
1
 10
2.5
 20
7.3
 11
2.4
 21
7.2
  0
LINE
  8
1
 10
2.5
 20
8.2
 11
2.4
 21
8.1
  0
LINE
  8
1
 10
2.5
 20
8.1
 11
2.4
 21
8.0
  0
LINE
  8
1
 10
2.5
 20
8.0
 11
2.4
 21
7.9
  0
CIRCLE
  8
1
 10
2.9
 20
8.3
 40
0.02
  0
CIRCLE
  8
1
 10
2.9
 20
8.3
 40
0.01
  0
TEXT
  8
1
 10
5.12
 20
8.417
 40
0.06
  1
D3
  0
TEXT
  8
1
 10
5.12
 20
8.317
 40
0.06
  1
D4
  0
TEXT
  8
1
 10
5.12
 20
8.217
 40
0.06
  1
D5
  0
TEXT
  8
1
 10
5.12
 20
8.117
 40
0.06
  1
D6
  0
TEXT
  8
1
 10
5.12
 20
8.017
 40
0.06
  1
D7
  0
TEXT
  8
1
 10
5.12
 20
7.817
 40
0.06
  1
A8
  0
TEXT
  8
1
 10
5.12
 20
7.717
 40
0.06
  1
A9
  0
TEXT
  8
1
 10
5.02
 20
7.617
 40
0.06
  1
A10
  0
TEXT
  8
1
 10
5.02
 20
7.517
 40
0.06
  1
A11
  0
TEXT
  8
1
 10
5.02
 20
7.417
 40
0.06
  1
P2.4
  0
TEXT
  8
1
 10
5.02
 20
7.317
 40
0.06
  1
P2.5
  0
LINE
  8
1
 10
5.4
 20
8.4
 11
5.3
 21
8.5
  0
LINE
  8
1
 10
5.4
 20
8.3
 11
5.3
 21
8.4
  0
LINE
  8
1
 10
5.4
 20
8.2
 11
5.3
 21
8.3
  0
LINE
  8
1
 10
5.4
 20
8.1
 11
5.3
 21
8.2
  0
LINE
  8
1
 10
5.4
 20
8.0
 11
5.3
 21
8.1
  0
LINE
  8
1
 10
5.4
 20
7.9
 11
5.3
 21
8.0
  0
LINE
  8
1
 10
5.4
 20
7.7
 11
5.3
 21
7.8
  0
LINE
  8
1
 10
5.4
 20
7.6
 11
5.3
 21
7.7
  0
LINE
  8
1
 10
5.4
 20
7.5
 11
5.3
 21
7.6
  0
LINE
  8
1
 10
5.4
 20
7.4
 11
5.3
 21
7.5
  0
LINE
  8
1
 10
5.4
 20
7.3
 11
5.3
 21
7.4
  0
TEXT
  8
1
 10
5.82
 20
8.017
 40
0.06
  1
D0
  0
TEXT
  8
1
 10
5.82
 20
8.117
 40
0.06
  1
D1
  0
TEXT
  8
1
 10
5.82
 20
8.217
 40
0.06
  1
D2
  0
TEXT
  8
1
 10
5.82
 20
8.317
 40
0.06
  1
D3
  0
TEXT
  8
1
 10
5.82
 20
8.417
 40
0.06
  1
D4
  0
LINE
  8
1
 10
5.8
 20
8.4
 11
5.7
 21
8.3
  0
LINE
  8
1
 10
5.8
 20
8.3
 11
5.7
 21
8.2
  0
LINE
  8
1
 10
5.8
 20
8.2
 11
5.7
 21
8.1
  0
LINE
  8
1
 10
5.8
 20
8.1
 11
5.7
 21
8.0
  0
LINE
  8
1
 10
5.8
 20
8.0
 11
5.7
 21
7.9
  0
LINE
  8
1
 10
5.8
 20
7.7
 11
5.8
 21
7.6
  0
LINE
  8
1
 10
5.77
 20
7.6
 11
5.83
 21
7.6
  0
TEXT
  8
1
 10
5.68
 20
7.53
 40
0.06
  1
GND
  0
TEXT
  8
1
 10
7.82
 20
8.417
 40
0.06
  1
A4
  0
TEXT
  8
1
 10
7.82
 20
8.317
 40
0.06
  1
A3
  0
TEXT
  8
1
 10
7.82
 20
8.217
 40
0.06
  1
A2
  0
TEXT
  8
1
 10
7.82
 20
8.117
 40
0.06
  1
A1
  0
TEXT
  8
1
 10
7.82
 20
8.017
 40
0.06
  1
A0
  0
LINE
  8
1
 10
8.1
 20
8.4
 11
8.0
 21
8.5
  0
LINE
  8
1
 10
8.1
 20
8.3
 11
8.0
 21
8.4
  0
LINE
  8
1
 10
8.1
 20
8.2
 11
8.0
 21
8.3
  0
LINE
  8
1
 10
8.1
 20
8.1
 11
8.0
 21
8.2
  0
LINE
  8
1
 10
8.1
 20
8.0
 11
8.0
 21
8.1
  0
LINE
  8
1
 10
8.1
 20
7.9
 11
8.0
 21
8.0
  0
TEXT
  8
1
 10
11.22
 20
8.417
 40
0.06
  1
A4
  0
TEXT
  8
1
 10
11.22
 20
8.317
 40
0.06
  1
A5
  0
TEXT
  8
1
 10
11.22
 20
8.217
 40
0.06
  1
A6
  0
TEXT
  8
1
 10
11.22
 20
8.117
 40
0.06
  1
A7
  0
TEXT
  8
1
 10
11.22
 20
8.017
 40
0.06
  1
A8
  0
TEXT
  8
1
 10
11.22
 20
7.917
 40
0.06
  1
A9
  0
TEXT
  8
1
 10
11.22
 20
7.817
 40
0.06
  1
A10
  0
TEXT
  8
1
 10
11.22
 20
7.717
 40
0.06
  1
A11
  0
TEXT
  8
1
 10
11.22
 20
7.417
 40
0.06
  1
PSEN
  0
LINE
  8
1
 10
10.8
 20
7.5
 11
10.8
 21
7.54
  0
CIRCLE
  8
1
 10
10.8
 20
7.57
 40
0.03
  0
TEXT
  8
1
 10
10.68
 20
7.61
 40
0.06
  1
VCC
  0
LINE
  8
1
 10
11.2
 20
8.4
 11
11.1
 21
8.3
  0
LINE
  8
1
 10
11.2
 20
8.3
 11
11.1
 21
8.2
  0
LINE
  8
1
 10
11.2
 20
8.2
 11
11.1
 21
8.1
  0
LINE
  8
1
 10
11.2
 20
8.1
 11
11.1
 21
8.0
  0
LINE
  8
1
 10
11.2
 20
8.0
 11
11.1
 21
7.9
  0
LINE
  8
1
 10
11.2
 20
7.9
 11
11.1
 21
7.8
  0
LINE
  8
1
 10
11.2
 20
7.8
 11
11.1
 21
7.7
  0
LINE
  8
1
 10
11.2
 20
7.7
 11
11.1
 21
7.6
  0
LINE
  8
1
 10
11.2
 20
7.4
 11
11.1
 21
7.3
  0
CIRCLE
  8
1
 10
11.6
 20
7.3
 40
0.02
  0
CIRCLE
  8
1
 10
11.6
 20
7.3
 40
0.01
  0
TEXT
  8
1
 10
13.42
 20
8.417
 40
0.06
  1
D4
  0
TEXT
  8
1
 10
13.42
 20
8.317
 40
0.06
  1
D5
  0
TEXT
  8
1
 10
13.42
 20
8.217
 40
0.06
  1
D6
  0
TEXT
  8
1
 10
13.42
 20
8.117
 40
0.06
  1
D7
  0
LINE
  8
1
 10
13.7
 20
8.4
 11
13.6
 21
8.5
  0
LINE
  8
1
 10
13.7
 20
8.3
 11
13.6
 21
8.4
  0
LINE
  8
1
 10
13.7
 20
8.2
 11
13.6
 21
8.3
  0
LINE
  8
1
 10
13.7
 20
8.1
 11
13.6
 21
8.2
  0
LINE
  8
1
 10
13.7
 20
8.0
 11
13.6
 21
8.1
  0
LINE
  8
1
 10
11.6
 20
7.0
 11
11.6
 21
6.9
  0
LINE
  8
1
 10
11.57
 20
6.9
 11
11.63
 21
6.9
  0
TEXT
  8
1
 10
11.48
 20
6.83
 40
0.06
  1
GND
  0
LINE
  8
1
 10
12.6
 20
6.6
 11
12.5
 21
6.7
  0
LINE
  8
1
 10
11.6
 20
6.6
 11
11.5
 21
6.7
  0
TEXT
  8
1
 10
11.62
 20
6.517
 40
0.06
  1
P2.5
  0
TEXT
  8
1
 10
12.62
 20
6.517
 40
0.06
  1
P2.4
  0
LINE
  8
1
 10
11.6
 20
6.2
 11
11.6
 21
6.3
  0
LINE
  8
1
 10
11.6
 20
5.9
 11
11.6
 21
5.8
  0
LINE
  8
1
 10
11.6
 20
6.2
 11
11.63
 21
6.17
  0
LINE
  8
1
 10
11.63
 20
6.17
 11
11.57
 21
6.11
  0
LINE
  8
1
 10
11.57
 20
6.11
 11
11.63
 21
6.05
  0
LINE
  8
1
 10
11.63
 20
6.05
 11
11.57
 21
5.99
  0
LINE
  8
1
 10
11.57
 20
5.99
 11
11.63
 21
5.93
  0
LINE
  8
1
 10
11.63
 20
5.93
 11
11.6
 21
5.9
  0
TEXT
  8
1
 10
11.77
 20
6.12
 40
0.06
  1
R?
  0
TEXT
  8
1
 10
11.77
 20
6.03
 40
0.06
  1
470R
  0
LINE
  8
1
 10
12.6
 20
6.2
 11
12.6
 21
6.3
  0
LINE
  8
1
 10
12.6
 20
5.9
 11
12.6
 21
5.8
  0
LINE
  8
1
 10
12.6
 20
6.2
 11
12.63
 21
6.17
  0
LINE
  8
1
 10
12.63
 20
6.17
 11
12.57
 21
6.11
  0
LINE
  8
1
 10
12.57
 20
6.11
 11
12.63
 21
6.05
  0
LINE
  8
1
 10
12.63
 20
6.05
 11
12.57
 21
5.99
  0
LINE
  8
1
 10
12.57
 20
5.99
 11
12.63
 21
5.93
  0
LINE
  8
1
 10
12.63
 20
5.93
 11
12.6
 21
5.9
  0
TEXT
  8
1
 10
12.77
 20
6.12
 40
0.06
  1
R?
  0
TEXT
  8
1
 10
12.77
 20
6.03
 40
0.06
  1
470R
  0
LINE
  8
1
 10
7.2
 20
6.2
 11
7.2
 21
6.24
  0
CIRCLE
  8
1
 10
7.2
 20
6.27
 40
0.03
  0
TEXT
  8
1
 10
7.08
 20
6.31
 40
0.06
  1
VCC
  0
CIRCLE
  8
1
 10
7.2
 20
6.1
 40
0.02
  0
CIRCLE
  8
1
 10
7.2
 20
6.1
 40
0.01
  0
TEXT
  8
1
 10
5.12
 20
6.817
 40
0.06
  1
WR
  0
TEXT
  8
1
 10
5.12
 20
6.917
 40
0.06
  1
RD
  0
TEXT
  8
1
 10
4.92
 20
6.717
 40
0.06
  1
PSEN
  0
TEXT
  8
1
 10
5.02
 20
7.217
 40
0.06
  1
P2.6
  0
TEXT
  8
1
 10
5.02
 20
7.117
 40
0.06
  1
P2.7
  0
LINE
  8
1
 10
5.4
 20
6.8
 11
5.3
 21
6.7
  0
LINE
  8
1
 10
5.4
 20
6.9
 11
5.3
 21
6.8
  0
LINE
  8
1
 10
5.4
 20
7.0
 11
5.3
 21
6.9
  0
LINE
  8
1
 10
5.4
 20
7.2
 11
5.3
 21
7.3
  0
LINE
  8
1
 10
5.4
 20
7.1
 11
5.3
 21
7.2
  0
LINE
  8
1
 10
5.4
 20
7.0
 11
5.3
 21
7.1
  0
TEXT
  8
1
 10
2.52
 20
7.217
 40
0.06
  1
P1.6
  0
TEXT
  8
1
 10
2.52
 20
7.117
 40
0.06
  1
P1.7
  0
LINE
  8
1
 10
2.5
 20
7.2
 11
2.4
 21
7.1
  0
LINE
  8
1
 10
2.5
 20
7.1
 11
2.4
 21
7.0
  0
LINE
  8
1
 10
0.4
 20
6.8
 11
0.4
 21
6.7
  0
LINE
  8
1
 10
0.37
 20
6.7
 11
0.43
 21
6.7
  0
TEXT
  8
1
 10
0.28
 20
6.63
 40
0.06
  1
GND
  0
LINE
  8
1
 10
2.5
 20
5.5
 11
2.4
 21
5.4
  0
LINE
  8
1
 10
2.5
 20
5.4
 11
2.4
 21
5.3
  0
LINE
  8
1
 10
2.5
 20
5.3
 11
2.4
 21
5.2
  0
LINE
  8
1
 10
2.5
 20
5.1
 11
2.4
 21
5.0
  0
LINE
  8
1
 10
2.5
 20
5.0
 11
2.4
 21
4.9
  0
TEXT
  8
1
 10
3.02
 20
5.517
 40
0.06
  1
D6
  0
TEXT
  8
1
 10
3.02
 20
5.417
 40
0.06
  1
D4
  0
TEXT
  8
1
 10
3.02
 20
5.317
 40
0.06
  1
D5
  0
TEXT
  8
1
 10
2.92
 20
5.017
 40
0.06
  1
CLK
  0
TEXT
  8
1
 10
2.82
 20
5.117
 40
0.06
  1
RESET
  0
TEXT
  8
1
 10
2.52
 20
5.517
 40
0.06
  1
P1.6
  0
TEXT
  8
1
 10
2.52
 20
5.417
 40
0.06
  1
P1.4
  0
TEXT
  8
1
 10
2.52
 20
5.317
 40
0.06
  1
P1.5
  0
TEXT
  8
1
 10
2.52
 20
5.017
 40
0.06
  1
P1.7
  0
CIRCLE
  8
1
 10
3.27
 20
5.6
 40
0.03
  0
LINE
  8
1
 10
3.24
 20
5.6
 11
3.0
 21
5.6
  0
TEXT
  8
1
 10
3.37
 20
5.57
 40
0.06
  1
1
  0
CIRCLE
  8
1
 10
3.83
 20
5.6
 40
0.03
  0
LINE
  8
1
 10
3.86
 20
5.6
 11
4.1
 21
5.6
  0
TEXT
  8
1
 10
3.66
 20
5.57
 40
0.06
  1
2
  0
CIRCLE
  8
1
 10
3.27
 20
5.5
 40
0.03
  0
LINE
  8
1
 10
3.24
 20
5.5
 11
3.0
 21
5.5
  0
TEXT
  8
1
 10
3.37
 20
5.47
 40
0.06
  1
3
  0
CIRCLE
  8
1
 10
3.83
 20
5.5
 40
0.03
  0
LINE
  8
1
 10
3.86
 20
5.5
 11
4.1
 21
5.5
  0
TEXT
  8
1
 10
3.66
 20
5.47
 40
0.06
  1
4
  0
CIRCLE
  8
1
 10
3.27
 20
5.4
 40
0.03
  0
LINE
  8
1
 10
3.24
 20
5.4
 11
3.0
 21
5.4
  0
TEXT
  8
1
 10
3.37
 20
5.37
 40
0.06
  1
5
  0
CIRCLE
  8
1
 10
3.83
 20
5.4
 40
0.03
  0
LINE
  8
1
 10
3.86
 20
5.4
 11
4.1
 21
5.4
  0
TEXT
  8
1
 10
3.66
 20
5.37
 40
0.06
  1
6
  0
CIRCLE
  8
1
 10
3.27
 20
5.3
 40
0.03
  0
LINE
  8
1
 10
3.24
 20
5.3
 11
3.0
 21
5.3
  0
TEXT
  8
1
 10
3.37
 20
5.27
 40
0.06
  1
7
  0
CIRCLE
  8
1
 10
3.83
 20
5.3
 40
0.03
  0
LINE
  8
1
 10
3.86
 20
5.3
 11
4.1
 21
5.3
  0
TEXT
  8
1
 10
3.66
 20
5.27
 40
0.06
  1
8
  0
CIRCLE
  8
1
 10
3.27
 20
5.2
 40
0.03
  0
LINE
  8
1
 10
3.24
 20
5.2
 11
3.0
 21
5.2
  0
TEXT
  8
1
 10
3.37
 20
5.17
 40
0.06
  1
9
  0
CIRCLE
  8
1
 10
3.83
 20
5.2
 40
0.03
  0
LINE
  8
1
 10
3.86
 20
5.2
 11
4.1
 21
5.2
  0
TEXT
  8
1
 10
3.58
 20
5.17
 40
0.06
  1
10
  0
CIRCLE
  8
1
 10
3.27
 20
5.1
 40
0.03
  0
LINE
  8
1
 10
3.24
 20
5.1
 11
3.0
 21
5.1
  0
TEXT
  8
1
 10
3.37
 20
5.07
 40
0.06
  1
11
  0
CIRCLE
  8
1
 10
3.83
 20
5.1
 40
0.03
  0
LINE
  8
1
 10
3.86
 20
5.1
 11
4.1
 21
5.1
  0
TEXT
  8
1
 10
3.58
 20
5.07
 40
0.06
  1
12
  0
CIRCLE
  8
1
 10
3.27
 20
5.0
 40
0.03
  0
LINE
  8
1
 10
3.24
 20
5.0
 11
3.0
 21
5.0
  0
TEXT
  8
1
 10
3.37
 20
4.97
 40
0.06
  1
13
  0
CIRCLE
  8
1
 10
3.83
 20
5.0
 40
0.03
  0
LINE
  8
1
 10
3.86
 20
5.0
 11
4.1
 21
5.0
  0
TEXT
  8
1
 10
3.58
 20
4.97
 40
0.06
  1
14
  0
CIRCLE
  8
1
 10
3.27
 20
4.9
 40
0.03
  0
LINE
  8
1
 10
3.24
 20
4.9
 11
3.0
 21
4.9
  0
TEXT
  8
1
 10
3.37
 20
4.87
 40
0.06
  1
15
  0
CIRCLE
  8
1
 10
3.83
 20
4.9
 40
0.03
  0
LINE
  8
1
 10
3.86
 20
4.9
 11
4.1
 21
4.9
  0
TEXT
  8
1
 10
3.58
 20
4.87
 40
0.06
  1
16
  0
LINE
  8
1
 10
3.3
 20
5.7
 11
3.8
 21
5.7
  0
LINE
  8
1
 10
3.8
 20
5.7
 11
3.8
 21
4.8
  0
LINE
  8
1
 10
3.8
 20
4.8
 11
3.3
 21
4.8
  0
LINE
  8
1
 10
3.3
 20
4.8
 11
3.3
 21
5.7
  0
TEXT
  8
1
 10
3.35
 20
5.72
 40
0.06
  1
JP1
  0
TEXT
  8
1
 10
3.35
 20
4.72
 40
0.06
  1
H8X2
  0
LINE
  8
1
 10
2.0
 20
5.5
 11
2.0
 21
5.4
  0
LINE
  8
1
 10
1.97
 20
5.4
 11
2.03
 21
5.4
  0
TEXT
  8
1
 10
1.88
 20
5.33
 40
0.06
  1
GND
  0
LINE
  8
1
 10
2.0
 20
5.0
 11
2.0
 21
5.04
  0
CIRCLE
  8
1
 10
2.0
 20
5.07
 40
0.03
  0
TEXT
  8
1
 10
1.88
 20
5.11
 40
0.06
  1
VCC
  0
TEXT
  8
1
 10
2.92
 20
5.617
 40
0.06
  1
GND
  0
TEXT
  8
1
 10
2.92
 20
4.917
 40
0.06
  1
VCC
  0
LINE
  8
1
 10
4.7
 20
5.4
 11
4.6
 21
5.5
  0
LINE
  8
1
 10
4.7
 20
5.3
 11
4.6
 21
5.4
  0
LINE
  8
1
 10
4.7
 20
5.2
 11
4.6
 21
5.3
  0
LINE
  8
1
 10
4.7
 20
5.1
 11
4.6
 21
5.2
  0
TEXT
  8
1
 10
3.92
 20
5.517
 40
0.06
  1
D2
  0
TEXT
  8
1
 10
3.92
 20
5.417
 40
0.06
  1
D3
  0
TEXT
  8
1
 10
3.92
 20
5.317
 40
0.06
  1
D0
  0
TEXT
  8
1
 10
3.92
 20
5.217
 40
0.06
  1
D1
  0
TEXT
  8
1
 10
3.92
 20
5.017
 40
0.06
  1
-12v
  0
TEXT
  8
1
 10
4.22
 20
5.317
 40
0.06
  1
P1.0
  0
TEXT
  8
1
 10
4.22
 20
5.217
 40
0.06
  1
P1.1
  0
TEXT
  8
1
 10
4.22
 20
5.417
 40
0.06
  1
P1.3
  0
TEXT
  8
1
 10
4.22
 20
5.517
 40
0.06
  1
P1.2
  0
LINE
  8
1
 10
7.2
 20
6.0
 11
7.2
 21
6.1
  0
LINE
  8
1
 10
7.2
 20
5.7
 11
7.2
 21
5.6
  0
LINE
  8
1
 10
7.2
 20
6.0
 11
7.23
 21
5.97
  0
LINE
  8
1
 10
7.23
 20
5.97
 11
7.17
 21
5.91
  0
LINE
  8
1
 10
7.17
 20
5.91
 11
7.23
 21
5.85
  0
LINE
  8
1
 10
7.23
 20
5.85
 11
7.17
 21
5.79
  0
LINE
  8
1
 10
7.17
 20
5.79
 11
7.23
 21
5.73
  0
LINE
  8
1
 10
7.23
 20
5.73
 11
7.2
 21
5.7
  0
TEXT
  8
1
 10
7.37
 20
5.92
 40
0.06
  1
R2
  0
TEXT
  8
1
 10
7.37
 20
5.83
 40
0.06
  1
10K
  0
TEXT
  8
1
 10
6.92
 20
4.917
 40
0.06
  1
CLK
  0
TEXT
  8
1
 10
6.92
 20
5.417
 40
0.06
  1
DTA
  0
LINE
  8
1
 10
6.9
 20
5.4
 11
6.8
 21
5.3
  0
LINE
  8
1
 10
6.9
 20
4.9
 11
6.8
 21
4.8
  0
CIRCLE
  8
1
 10
7.3
 20
5.4
 40
0.02
  0
CIRCLE
  8
1
 10
7.3
 20
5.4
 40
0.01
  0
CIRCLE
  8
1
 10
7.2
 20
4.9
 40
0.02
  0
CIRCLE
  8
1
 10
7.2
 20
4.9
 40
0.01
  0
LINE
  8
1
 10
8.0
 20
5.4
 11
8.3
 21
5.4
  0
LINE
  8
1
 10
7.7
 20
5.4
 11
7.4
 21
5.4
  0
LINE
  8
1
 10
7.7
 20
5.4
 11
7.8
 21
5.4
  0
LINE
  8
1
 10
7.8
 20
5.4
 11
7.8
 21
5.5
  0
LINE
  8
1
 10
7.8
 20
5.5
 11
7.9
 21
5.4
  0
LINE
  8
1
 10
7.9
 20
5.4
 11
8.0
 21
5.4
  0
LINE
  8
1
 10
7.9
 20
5.5
 11
7.9
 21
5.3
  0
LINE
  8
1
 10
7.9
 20
5.4
 11
7.8
 21
5.3
  0
LINE
  8
1
 10
7.8
 20
5.3
 11
7.8
 21
5.4
  0
TEXT
  8
1
 10
7.75
 20
5.52
 40
0.06
  1
D1
  0
TEXT
  8
1
 10
7.75
 20
5.22
 40
0.06
  1
D
  0
LINE
  8
1
 10
8.0
 20
4.9
 11
8.3
 21
4.9
  0
LINE
  8
1
 10
7.7
 20
4.9
 11
7.4
 21
4.9
  0
LINE
  8
1
 10
7.7
 20
4.9
 11
7.8
 21
4.9
  0
LINE
  8
1
 10
7.8
 20
4.9
 11
7.8
 21
5.0
  0
LINE
  8
1
 10
7.8
 20
5.0
 11
7.9
 21
4.9
  0
LINE
  8
1
 10
7.9
 20
4.9
 11
8.0
 21
4.9
  0
LINE
  8
1
 10
7.9
 20
5.0
 11
7.9
 21
4.8
  0
LINE
  8
1
 10
7.9
 20
4.9
 11
7.8
 21
4.8
  0
LINE
  8
1
 10
7.8
 20
4.8
 11
7.8
 21
4.9
  0
TEXT
  8
1
 10
7.75
 20
5.02
 40
0.06
  1
D2
  0
TEXT
  8
1
 10
7.75
 20
4.72
 40
0.06
  1
D
  0
LINE
  8
1
 10
7.7
 20
6.0
 11
7.7
 21
6.1
  0
LINE
  8
1
 10
7.7
 20
5.7
 11
7.7
 21
5.6
  0
LINE
  8
1
 10
7.7
 20
6.0
 11
7.73
 21
5.97
  0
LINE
  8
1
 10
7.73
 20
5.97
 11
7.67
 21
5.91
  0
LINE
  8
1
 10
7.67
 20
5.91
 11
7.73
 21
5.85
  0
LINE
  8
1
 10
7.73
 20
5.85
 11
7.67
 21
5.79
  0
LINE
  8
1
 10
7.67
 20
5.79
 11
7.73
 21
5.73
  0
LINE
  8
1
 10
7.73
 20
5.73
 11
7.7
 21
5.7
  0
TEXT
  8
1
 10
7.87
 20
5.92
 40
0.06
  1
R3
  0
TEXT
  8
1
 10
7.87
 20
5.83
 40
0.06
  1
10K
  0
TEXT
  8
1
 10
9.02
 20
5.317
 40
0.06
  1
CLK
  0
TEXT
  8
1
 10
9.02
 20
5.217
 40
0.06
  1
DTA
  0
TEXT
  8
1
 10
8.42
 20
5.417
 40
0.06
  1
P2.7
  0
TEXT
  8
1
 10
8.42
 20
4.917
 40
0.06
  1
P2.6
  0
LINE
  8
1
 10
9.3
 20
5.5
 11
9.3
 21
5.54
  0
CIRCLE
  8
1
 10
9.3
 20
5.57
 40
0.03
  0
TEXT
  8
1
 10
9.18
 20
5.61
 40
0.06
  1
VCC
  0
LINE
  8
1
 10
9.0
 20
5.3
 11
8.9
 21
5.2
  0
LINE
  8
1
 10
9.0
 20
5.2
 11
8.9
 21
5.1
  0
LINE
  8
1
 10
8.9
 20
5.3
 11
8.8
 21
5.4
  0
CIRCLE
  8
1
 10
9.77
 20
5.3
 40
0.03
  0
LINE
  8
1
 10
9.74
 20
5.3
 11
9.5
 21
5.3
  0
TEXT
  8
1
 10
9.87
 20
5.27
 40
0.06
  1
1
  0
CIRCLE
  8
1
 10
9.77
 20
5.2
 40
0.03
  0
LINE
  8
1
 10
9.74
 20
5.2
 11
9.5
 21
5.2
  0
TEXT
  8
1
 10
9.87
 20
5.17
 40
0.06
  1
2
  0
CIRCLE
  8
1
 10
9.77
 20
5.1
 40
0.03
  0
LINE
  8
1
 10
9.74
 20
5.1
 11
9.5
 21
5.1
  0
TEXT
  8
1
 10
9.87
 20
5.07
 40
0.06
  1
3
  0
CIRCLE
  8
1
 10
9.77
 20
5.0
 40
0.03
  0
LINE
  8
1
 10
9.74
 20
5.0
 11
9.5
 21
5.0
  0
TEXT
  8
1
 10
9.87
 20
4.97
 40
0.06
  1
4
  0
CIRCLE
  8
1
 10
9.77
 20
4.9
 40
0.03
  0
LINE
  8
1
 10
9.74
 20
4.9
 11
9.5
 21
4.9
  0
TEXT
  8
1
 10
9.87
 20
4.87
 40
0.06
  1
5
  0
LINE
  8
1
 10
9.8
 20
5.4
 11
10.1
 21
5.4
  0
LINE
  8
1
 10
10.1
 20
5.4
 11
10.1
 21
4.8
  0
LINE
  8
1
 10
10.1
 20
4.8
 11
9.8
 21
4.8
  0
LINE
  8
1
 10
9.8
 20
4.8
 11
9.8
 21
5.4
  0
TEXT
  8
1
 10
9.85
 20
5.42
 40
0.06
  1
JP2
  0
TEXT
  8
1
 10
9.85
 20
4.72
 40
0.06
  1
H5
  0
LINE
  8
1
 10
11.6
 20
5.2
 11
11.6
 21
5.1
  0
LINE
  8
1
 10
11.57
 20
5.1
 11
11.63
 21
5.1
  0
TEXT
  8
1
 10
11.48
 20
5.03
 40
0.06
  1
GND
  0
LINE
  8
1
 10
12.6
 20
5.2
 11
12.6
 21
5.1
  0
LINE
  8
1
 10
12.57
 20
5.1
 11
12.63
 21
5.1
  0
TEXT
  8
1
 10
12.48
 20
5.03
 40
0.06
  1
GND
  0
LINE
  8
1
 10
11.6
 20
5.7
 11
11.6
 21
5.8
  0
LINE
  8
1
 10
11.6
 20
5.3
 11
11.6
 21
5.2
  0
LINE
  8
1
 10
11.7
 20
5.6
 11
11.5
 21
5.6
  0
LINE
  8
1
 10
11.5
 20
5.6
 11
11.6
 21
5.5
  0
LINE
  8
1
 10
11.6
 20
5.5
 11
11.7
 21
5.6
  0
LINE
  8
1
 10
11.7
 20
5.5
 11
11.5
 21
5.5
  0
LINE
  8
1
 10
11.6
 20
5.7
 11
11.6
 21
5.6
  0
LINE
  8
1
 10
11.6
 20
5.5
 11
11.6
 21
5.3
  0
LINE
  8
1
 10
11.7
 20
5.44
 11
11.7
 21
5.4
  0
LINE
  8
1
 10
11.7
 20
5.4
 11
11.66
 21
5.4
  0
LINE
  8
1
 10
11.66
 20
5.4
 11
11.7
 21
5.44
  0
LINE
  8
1
 10
11.68
 20
5.42
 11
11.63
 21
5.47
  0
LINE
  8
1
 10
11.7
 20
5.32
 11
11.7
 21
5.36
  0
LINE
  8
1
 10
11.7
 20
5.36
 11
11.66
 21
5.32
  0
LINE
  8
1
 10
11.66
 20
5.32
 11
11.7
 21
5.32
  0
LINE
  8
1
 10
11.68
 20
5.34
 11
11.63
 21
5.39
  0
LINE
  8
1
 10
11.68
 20
5.59
 11
11.52
 21
5.59
  0
LINE
  8
1
 10
11.53
 20
5.58
 11
11.67
 21
5.58
  0
LINE
  8
1
 10
11.66
 20
5.57
 11
11.54
 21
5.57
  0
LINE
  8
1
 10
11.55
 20
5.56
 11
11.65
 21
5.56
  0
LINE
  8
1
 10
11.64
 20
5.55
 11
11.56
 21
5.55
  0
LINE
  8
1
 10
11.57
 20
5.54
 11
11.63
 21
5.54
  0
LINE
  8
1
 10
11.62
 20
5.53
 11
11.58
 21
5.53
  0
LINE
  8
1
 10
11.59
 20
5.52
 11
11.61
 21
5.52
  0
LINE
  8
1
 10
11.6
 20
5.51
 11
11.6
 21
5.51
  0
LINE
  8
1
 10
11.69
 20
5.42
 11
11.69
 21
5.42
  0
LINE
  8
1
 10
11.69
 20
5.41
 11
11.68
 21
5.41
  0
LINE
  8
1
 10
11.69
 20
5.34
 11
11.69
 21
5.34
  0
LINE
  8
1
 10
11.69
 20
5.33
 11
11.68
 21
5.33
  0
TEXT
  8
1
 10
11.77
 20
5.62
 40
0.06
  1
D?
  0
TEXT
  8
1
 10
11.77
 20
5.53
 40
0.06
  1
GREEN
  0
LINE
  8
1
 10
12.6
 20
5.7
 11
12.6
 21
5.8
  0
LINE
  8
1
 10
12.6
 20
5.3
 11
12.6
 21
5.2
  0
LINE
  8
1
 10
12.7
 20
5.6
 11
12.5
 21
5.6
  0
LINE
  8
1
 10
12.5
 20
5.6
 11
12.6
 21
5.5
  0
LINE
  8
1
 10
12.6
 20
5.5
 11
12.7
 21
5.6
  0
LINE
  8
1
 10
12.7
 20
5.5
 11
12.5
 21
5.5
  0
LINE
  8
1
 10
12.6
 20
5.7
 11
12.6
 21
5.6
  0
LINE
  8
1
 10
12.6
 20
5.5
 11
12.6
 21
5.3
  0
LINE
  8
1
 10
12.7
 20
5.44
 11
12.7
 21
5.4
  0
LINE
  8
1
 10
12.7
 20
5.4
 11
12.66
 21
5.4
  0
LINE
  8
1
 10
12.66
 20
5.4
 11
12.7
 21
5.44
  0
LINE
  8
1
 10
12.68
 20
5.42
 11
12.63
 21
5.47
  0
LINE
  8
1
 10
12.7
 20
5.32
 11
12.7
 21
5.36
  0
LINE
  8
1
 10
12.7
 20
5.36
 11
12.66
 21
5.32
  0
LINE
  8
1
 10
12.66
 20
5.32
 11
12.7
 21
5.32
  0
LINE
  8
1
 10
12.68
 20
5.34
 11
12.63
 21
5.39
  0
LINE
  8
1
 10
12.68
 20
5.59
 11
12.52
 21
5.59
  0
LINE
  8
1
 10
12.53
 20
5.58
 11
12.67
 21
5.58
  0
LINE
  8
1
 10
12.66
 20
5.57
 11
12.54
 21
5.57
  0
LINE
  8
1
 10
12.55
 20
5.56
 11
12.65
 21
5.56
  0
LINE
  8
1
 10
12.64
 20
5.55
 11
12.56
 21
5.55
  0
LINE
  8
1
 10
12.57
 20
5.54
 11
12.63
 21
5.54
  0
LINE
  8
1
 10
12.62
 20
5.53
 11
12.58
 21
5.53
  0
LINE
  8
1
 10
12.59
 20
5.52
 11
12.61
 21
5.52
  0
LINE
  8
1
 10
12.6
 20
5.51
 11
12.6
 21
5.51
  0
LINE
  8
1
 10
12.69
 20
5.42
 11
12.69
 21
5.42
  0
LINE
  8
1
 10
12.69
 20
5.41
 11
12.68
 21
5.41
  0
LINE
  8
1
 10
12.69
 20
5.34
 11
12.69
 21
5.34
  0
LINE
  8
1
 10
12.69
 20
5.33
 11
12.68
 21
5.33
  0
TEXT
  8
1
 10
12.77
 20
5.62
 40
0.06
  1
D?
  0
TEXT
  8
1
 10
12.77
 20
5.53
 40
0.06
  1
RED
  0
LINE
  8
1
 10
8.9
 20
4.8
 11
8.8
 21
4.9
  0
TEXT
  8
1
 10
9.22
 20
4.417
 40
0.06
  1
PC Keyboard Connector
  0
LINE
  8
1
 10
9.4
 20
4.8
 11
9.4
 21
4.7
  0
LINE
  8
1
 10
9.37
 20
4.7
 11
9.43
 21
4.7
  0
TEXT
  8
1
 10
9.28
 20
4.63
 40
0.06
  1
GND
  0
TEXT
  8
1
 10
6.82
 20
4.417
 40
0.06
  1
PC Keyboard Output Circiut
  0
TEXT
  8
1
 10
2.42
 20
4.417
 40
0.06
  1
Apple IIe Keyboard Connector
  0
LINE
  8
1
 10
0.1
 20
0.1
 11
15.1
 21
0.1
  0
LINE
  8
1
 10
15.1
 20
0.1
 11
15.1
 21
9.6
  0
LINE
  8
1
 10
15.1
 20
9.6
 11
0.1
 21
9.6
  0
LINE
  8
1
 10
0.1
 20
9.6
 11
0.1
 21
0.1
  0
TEXT
  8
1
 10
11.53
 20
0.12
 40
0.06
  1
Date:
  0
TEXT
  8
1
 10
12.01
 20
0.12
 40
0.06
  1
      May  5, 1996
  0
TEXT
  8
1
 10
13.49
 20
0.12
 40
0.06
  1
Sheet
  0
TEXT
  8
1
 10
13.97
 20
0.12
 40
0.06
  1
    1
  0
TEXT
  8
1
 10
14.45
 20
0.12
 40
0.06
  1
of
  0
TEXT
  8
1
 10
14.69
 20
0.12
 40
0.06
  1
    1
  0
LINE
  8
1
 10
15.1
 20
0.21
 11
11.51
 21
0.21
  0
LINE
  8
1
 10
13.47
 20
0.1
 11
13.47
 21
0.21
  0
TEXT
  8
1
 10
11.53
 20
0.42
 40
0.06
  1
Size
  0
TEXT
  8
1
 10
11.89
 20
0.42
 40
0.06
  1
Document Number
  0
TEXT
  8
1
 10
14.84
 20
0.42
 40
0.06
  1
REV
  0
TEXT
  8
1
 10
11.66
 20
0.27
 40
0.06
  1
B
  0
TEXT
  8
1
 10
13.29
 20
0.27
 40
0.06
  1
1
  0
TEXT
  8
1
 10
14.92
 20
0.27
 40
0.06
  1
1
  0
LINE
  8
1
 10
14.82
 20
0.21
 11
14.82
 21
0.51
  0
LINE
  8
1
 10
15.1
 20
0.51
 11
11.51
 21
0.51
  0
LINE
  8
1
 10
11.87
 20
0.51
 11
11.87
 21
0.21
  0
TEXT
  8
1
 10
11.53
 20
0.71
 40
0.06
  1
Title
  0
TEXT
  8
1
 10
11.89
 20
0.57
 40
0.06
  1
PC Keyboard Interface For Apple IIe
  0
LINE
  8
1
 10
11.51
 20
0.81
 11
15.1
 21
0.81
  0
TEXT
  8
1
 10
12.41
 20
0.89
 40
0.06
  1
(c)1996 Artur Jasowicz
  0
LINE
  8
1
 10
15.1
 20
1.05
 11
11.51
 21
1.05
  0
LINE
  8
1
 10
11.51
 20
1.05
 11
11.51
 21
0.1
  0
ENDSEC
  0
EOF
